<svg width="412" height="393" viewBox="0 0 412 393" fill="none" xmlns="http://www.w3.org/2000/svg">
<g clip-path="url(#clip0_1_2)">
<path opacity="0.2" d="M405.694 29.3026H35.7347V167.197H405.694V29.3026Z" fill="#C0C0C0"/>
<path d="M390.98 17.2368H21.0204V155.132H390.98V17.2368Z" fill="white"/>
<path d="M21.0204 17.2368H390.98V155.132H21.0204V17.2368Z" stroke="black" stroke-miterlimit="10"/>
<path d="M21.0204 60.3289H390.98" stroke="black" stroke-miterlimit="10"/>
<path d="M21.0204 77.5658H390.98" stroke="black" stroke-miterlimit="10"/>
<path d="M154.664 36.6639H151.008V40.4408H149.103V31.1986H155.121V32.7411H151.008V35.1278H154.664V36.6639ZM159.869 40.4408C159.784 40.2758 159.723 40.0705 159.685 39.8251C159.24 40.3202 158.663 40.5677 157.952 40.5677C157.279 40.5677 156.72 40.3731 156.276 39.9838C155.836 39.5944 155.616 39.1036 155.616 38.5111C155.616 37.7832 155.885 37.2247 156.422 36.8353C156.964 36.446 157.745 36.2492 158.764 36.245H159.609V35.8514C159.609 35.5341 159.526 35.2802 159.361 35.0897C159.2 34.8993 158.944 34.8041 158.593 34.8041C158.284 34.8041 158.041 34.8781 157.863 35.0262C157.69 35.1744 157.603 35.3775 157.603 35.6356H155.768C155.768 35.2378 155.891 34.8697 156.136 34.5311C156.382 34.1926 156.729 33.9281 157.177 33.7377C157.626 33.543 158.13 33.4457 158.688 33.4457C159.535 33.4457 160.205 33.6594 160.7 34.0868C161.2 34.51 161.449 35.1066 161.449 35.8768V38.8539C161.454 39.5056 161.545 39.9986 161.722 40.3329V40.4408H159.869ZM158.352 39.1649C158.623 39.1649 158.872 39.1057 159.101 38.9872C159.329 38.8645 159.499 38.7015 159.609 38.4984V37.3177H158.923C158.005 37.3177 157.516 37.6351 157.457 38.2699L157.45 38.3778C157.45 38.6063 157.531 38.7946 157.692 38.9427C157.852 39.0909 158.072 39.1649 158.352 39.1649ZM164.649 34.3217C165.135 33.7377 165.747 33.4457 166.483 33.4457C167.973 33.4457 168.728 34.3111 168.749 36.0419V40.4408H166.915V36.0927C166.915 35.6991 166.83 35.4092 166.661 35.223C166.492 35.0326 166.21 34.9374 165.817 34.9374C165.279 34.9374 164.89 35.1447 164.649 35.5594V40.4408H162.814V30.6908H164.649V34.3217ZM173.992 35.2928C173.743 35.259 173.523 35.2421 173.332 35.2421C172.638 35.2421 172.183 35.4769 171.967 35.9467V40.4408H170.133V33.5726H171.866L171.917 34.3915C172.285 33.7609 172.795 33.4457 173.447 33.4457C173.65 33.4457 173.84 33.4732 174.018 33.5282L173.992 35.2928ZM176.988 38.9618H180.346V40.4408H174.646V39.3236L177.877 35.058H174.741V33.5726H180.245V34.6581L176.988 38.9618ZM184.555 40.5677C183.548 40.5677 182.727 40.2588 182.092 39.641C181.461 39.0232 181.146 38.2001 181.146 37.1718V36.994C181.146 36.3042 181.28 35.6885 181.546 35.1469C181.813 34.601 182.189 34.182 182.676 33.89C183.167 33.5938 183.725 33.4457 184.352 33.4457C185.291 33.4457 186.03 33.7419 186.567 34.3344C187.109 34.9268 187.38 35.7668 187.38 36.8544V37.6034H183.006C183.065 38.052 183.243 38.4117 183.539 38.6825C183.84 38.9533 184.218 39.0887 184.676 39.0887C185.382 39.0887 185.934 38.8327 186.332 38.3207L187.234 39.33C186.959 39.7193 186.586 40.024 186.116 40.244C185.647 40.4598 185.126 40.5677 184.555 40.5677ZM184.345 34.931C183.981 34.931 183.685 35.0538 183.457 35.2992C183.232 35.5446 183.089 35.8959 183.025 36.3529H185.577V36.2069C185.568 35.8007 185.458 35.4875 185.247 35.2675C185.035 35.0432 184.735 34.931 184.345 34.931ZM192.54 39.7426C192.087 40.2927 191.461 40.5677 190.661 40.5677C189.925 40.5677 189.362 40.3562 188.973 39.933C188.588 39.5098 188.391 38.8899 188.383 38.0731V33.5726H190.217V38.0096C190.217 38.7248 190.543 39.0824 191.195 39.0824C191.817 39.0824 192.244 38.8666 192.477 38.4349V33.5726H194.318V40.4408H192.591L192.54 39.7426ZM195.435 36.9559C195.435 35.9022 195.684 35.0538 196.184 34.4105C196.687 33.7673 197.364 33.4457 198.215 33.4457C198.968 33.4457 199.554 33.7038 199.973 34.2201L200.05 33.5726H201.713V40.2123C201.713 40.8132 201.575 41.3358 201.3 41.7802C201.029 42.2245 200.646 42.563 200.151 42.7958C199.656 43.0285 199.076 43.1449 198.412 43.1449C197.908 43.1449 197.417 43.0433 196.939 42.8402C196.461 42.6413 196.099 42.3832 195.854 42.0658L196.666 40.9486C197.123 41.4607 197.678 41.7167 198.329 41.7167C198.816 41.7167 199.195 41.5855 199.466 41.3231C199.736 41.065 199.872 40.6968 199.872 40.2186V39.8505C199.449 40.3287 198.892 40.5677 198.202 40.5677C197.377 40.5677 196.709 40.2461 196.197 39.6029C195.689 38.9554 195.435 38.0985 195.435 37.0321V36.9559ZM197.269 37.0892C197.269 37.7113 197.394 38.2001 197.644 38.5555C197.893 38.9068 198.236 39.0824 198.672 39.0824C199.231 39.0824 199.631 38.8729 199.872 38.454V35.5658C199.626 35.1469 199.231 34.9374 198.685 34.9374C198.245 34.9374 197.898 35.1172 197.644 35.4769C197.394 35.8366 197.269 36.3741 197.269 37.0892Z" fill="black"/>
<path opacity="0.2" d="M405.694 236.145H35.7347V387.829H405.694V236.145Z" fill="#C0C0C0"/>
<path d="M390.98 224.079H21.0204V375.763H390.98V224.079Z" fill="white"/>
<path d="M21.0204 224.079H390.98V375.763H21.0204V224.079Z" stroke="black" stroke-miterlimit="10"/>
<path d="M21.0204 267.171H390.98" stroke="black" stroke-miterlimit="10"/>
<path d="M21.0204 284.408H390.98" stroke="black" stroke-miterlimit="10"/>
<path d="M183.281 247.283V238.041H186.519C187.64 238.041 188.491 238.257 189.07 238.688C189.65 239.116 189.94 239.744 189.94 240.573C189.94 241.026 189.824 241.426 189.591 241.773C189.358 242.116 189.035 242.368 188.62 242.528C189.094 242.647 189.466 242.886 189.737 243.246C190.012 243.605 190.15 244.046 190.15 244.566C190.15 245.455 189.866 246.128 189.299 246.585C188.732 247.042 187.924 247.274 186.874 247.283H183.281ZM185.186 243.258V245.753H186.817C187.266 245.753 187.615 245.647 187.864 245.436C188.118 245.22 188.245 244.924 188.245 244.547C188.245 243.701 187.807 243.271 186.931 243.258H185.186ZM185.186 241.913H186.595C187.556 241.896 188.036 241.513 188.036 240.764C188.036 240.345 187.913 240.044 187.668 239.862C187.426 239.676 187.043 239.583 186.519 239.583H185.186V241.913ZM195.577 246.585C195.124 247.135 194.498 247.41 193.698 247.41C192.962 247.41 192.399 247.198 192.009 246.775C191.624 246.352 191.428 245.732 191.419 244.915V240.415H193.254V244.852C193.254 245.567 193.579 245.924 194.231 245.924C194.853 245.924 195.281 245.709 195.513 245.277V240.415H197.354V247.283H195.628L195.577 246.585ZM202.458 245.385C202.458 245.161 202.346 244.985 202.121 244.858C201.901 244.727 201.546 244.611 201.055 244.509C199.421 244.166 198.605 243.472 198.605 242.427C198.605 241.818 198.856 241.31 199.36 240.903C199.868 240.493 200.53 240.288 201.347 240.288C202.219 240.288 202.915 240.493 203.435 240.903C203.96 241.314 204.222 241.847 204.222 242.503H202.388C202.388 242.241 202.303 242.025 202.134 241.856C201.965 241.682 201.7 241.595 201.34 241.595C201.032 241.595 200.792 241.665 200.623 241.805C200.454 241.945 200.369 242.122 200.369 242.338C200.369 242.541 200.465 242.706 200.655 242.833C200.85 242.956 201.175 243.064 201.632 243.157C202.09 243.246 202.475 243.347 202.788 243.462C203.757 243.817 204.241 244.433 204.241 245.309C204.241 245.935 203.973 246.443 203.435 246.832C202.898 247.217 202.204 247.41 201.353 247.41C200.778 247.41 200.266 247.308 199.817 247.105C199.373 246.898 199.024 246.616 198.77 246.261C198.516 245.901 198.389 245.514 198.389 245.099H200.128C200.145 245.425 200.266 245.675 200.49 245.848C200.714 246.022 201.015 246.109 201.391 246.109C201.743 246.109 202.007 246.043 202.185 245.912C202.367 245.776 202.458 245.601 202.458 245.385Z" fill="black"/>
<path d="M206 224.079V155.132" stroke="black" stroke-miterlimit="10"/>
<path d="M223.697 190.166L206 155.132L188.303 190.166" fill="white"/>
<path d="M223.697 190.166L206 155.132L188.303 190.166H223.697Z" stroke="black" stroke-miterlimit="10"/>
</g>
<defs>
<clipPath id="clip0_1_2">
<rect width="412" height="393" fill="white"/>
</clipPath>
</defs>
</svg>
