<svg width="239" height="202" viewBox="0 0 239 202" fill="none" xmlns="http://www.w3.org/2000/svg">
<path opacity="0.2" d="M238.112 11.8357H10.0306V201.264H238.112V11.8357Z" fill="#C0C0C0"/>
<path d="M229.041 0.785713H0.959183V190.214H229.041V0.785713Z" fill="white"/>
<path d="M0.959183 0.785713H229.041V190.214H0.959183V0.785713Z" stroke="black" stroke-miterlimit="10"/>
<path d="M0.959183 40.25H229.041" stroke="black" stroke-miterlimit="10"/>
<path d="M0.959183 100.236H229.041" stroke="black" stroke-miterlimit="10"/>
<path d="M85.7999 19.2696H82.1436V23.0464H80.2393V13.8042H86.2569V15.3467H82.1436V17.7334H85.7999V19.2696ZM91.005 23.0464C90.9203 22.8814 90.859 22.6761 90.8209 22.4307C90.3765 22.9258 89.7989 23.1734 89.088 23.1734C88.4151 23.1734 87.8565 22.9787 87.4122 22.5894C86.9721 22.2001 86.752 21.7092 86.752 21.1167C86.752 20.3889 87.0207 19.8303 87.5582 19.441C88.0998 19.0516 88.8806 18.8549 89.9005 18.8506H90.7447V18.4571C90.7447 18.1397 90.6622 17.8858 90.4971 17.6954C90.3363 17.5049 90.0803 17.4097 89.7291 17.4097C89.4202 17.4097 89.1768 17.4838 88.9991 17.6319C88.8256 17.78 88.7388 17.9831 88.7388 18.2413H86.9044C86.9044 17.8435 87.0271 17.4753 87.2725 17.1368C87.518 16.7982 87.865 16.5337 88.3136 16.3433C88.7621 16.1486 89.2657 16.0513 89.8243 16.0513C90.6706 16.0513 91.3414 16.265 91.8365 16.6924C92.3359 17.1156 92.5855 17.7123 92.5855 18.4825V21.4595C92.5898 22.1112 92.6807 22.6042 92.8585 22.9385V23.0464H91.005ZM89.4879 21.7705C89.7587 21.7705 90.0084 21.7113 90.2369 21.5928C90.4654 21.4701 90.6347 21.3072 90.7447 21.104V19.9234H90.0592C89.1409 19.9234 88.6521 20.2408 88.5928 20.8755L88.5865 20.9834C88.5865 21.212 88.6669 21.4003 88.8277 21.5484C88.9885 21.6965 89.2086 21.7705 89.4879 21.7705ZM95.7847 16.9273C96.2714 16.3433 96.8829 16.0513 97.6192 16.0513C99.1088 16.0513 99.8642 16.9167 99.8853 18.6475V23.0464H98.0509V18.6983C98.0509 18.3047 97.9662 18.0149 97.797 17.8287C97.6277 17.6382 97.3463 17.543 96.9527 17.543C96.4153 17.543 96.026 17.7504 95.7847 18.1651V23.0464H93.9503V13.2964H95.7847V16.9273ZM105.128 17.8985C104.879 17.8646 104.659 17.8477 104.468 17.8477C103.774 17.8477 103.319 18.0826 103.104 18.5523V23.0464H101.269V16.1783H103.002L103.053 16.9971C103.421 16.3666 103.931 16.0513 104.583 16.0513C104.786 16.0513 104.976 16.0788 105.154 16.1338L105.128 17.8985ZM108.125 21.5674H111.482V23.0464H105.782V21.9292L109.013 17.6636H105.878V16.1783H111.381V17.2637L108.125 21.5674ZM115.691 23.1734C114.684 23.1734 113.863 22.8645 113.228 22.2466C112.598 21.6288 112.282 20.8057 112.282 19.7774V19.5997C112.282 18.9099 112.416 18.2942 112.682 17.7525C112.949 17.2066 113.325 16.7876 113.812 16.4956C114.303 16.1994 114.862 16.0513 115.488 16.0513C116.427 16.0513 117.166 16.3475 117.703 16.94C118.245 17.5324 118.516 18.3724 118.516 19.46V20.209H114.142C114.201 20.6576 114.379 21.0173 114.675 21.2881C114.976 21.559 115.355 21.6944 115.812 21.6944C116.518 21.6944 117.071 21.4384 117.468 20.9263L118.37 21.9356C118.095 22.3249 117.722 22.6296 117.253 22.8497C116.783 23.0655 116.262 23.1734 115.691 23.1734ZM115.482 17.5367C115.118 17.5367 114.821 17.6594 114.593 17.9048C114.369 18.1503 114.225 18.5015 114.161 18.9585H116.713V18.8125C116.705 18.4063 116.594 18.0931 116.383 17.8731C116.171 17.6488 115.871 17.5367 115.482 17.5367ZM123.676 22.3482C123.224 22.8983 122.597 23.1734 121.797 23.1734C121.061 23.1734 120.498 22.9618 120.109 22.5386C119.724 22.1154 119.527 21.4955 119.519 20.6788V16.1783H121.353V20.6153C121.353 21.3304 121.679 21.688 122.331 21.688C122.953 21.688 123.38 21.4722 123.613 21.0406V16.1783H125.454V23.0464H123.727L123.676 22.3482ZM126.571 19.5616C126.571 18.5079 126.821 17.6594 127.32 17.0162C127.823 16.3729 128.501 16.0513 129.351 16.0513C130.104 16.0513 130.691 16.3094 131.109 16.8257L131.186 16.1783H132.849V22.8179C132.849 23.4188 132.711 23.9414 132.436 24.3858C132.165 24.8301 131.782 25.1687 131.287 25.4014C130.792 25.6342 130.212 25.7505 129.548 25.7505C129.044 25.7505 128.553 25.649 128.075 25.4458C127.597 25.2469 127.235 24.9888 126.99 24.6714L127.802 23.5542C128.259 24.0663 128.814 24.3223 129.465 24.3223C129.952 24.3223 130.331 24.1911 130.602 23.9288C130.872 23.6706 131.008 23.3025 131.008 22.8243V22.4561C130.585 22.9343 130.028 23.1734 129.338 23.1734C128.513 23.1734 127.845 22.8518 127.333 22.2085C126.825 21.5611 126.571 20.7041 126.571 19.6377V19.5616ZM128.405 19.6949C128.405 20.3169 128.53 20.8057 128.78 21.1612C129.03 21.5124 129.372 21.688 129.808 21.688C130.367 21.688 130.767 21.4786 131.008 21.0596V18.1714C130.762 17.7525 130.367 17.543 129.821 17.543C129.381 17.543 129.034 17.7229 128.78 18.0826C128.53 18.4423 128.405 18.9797 128.405 19.6949Z" fill="black"/>
<path d="M10.7713 55.9068H7.67365V54.9483H10.7713V55.9068ZM15.2401 53.5391C15.0623 53.5095 14.8698 53.4947 14.6624 53.4947C13.8922 53.4947 13.3696 53.8226 13.0945 54.4786V59.3536H11.9202V52.4854H13.0628L13.0818 53.2789C13.4669 52.6653 14.0128 52.3584 14.7195 52.3584C14.9481 52.3584 15.1216 52.3881 15.2401 52.4473V53.5391ZM20.3118 59.3536C20.2441 59.2181 20.1891 58.9769 20.1468 58.6299C19.6009 59.197 18.9492 59.4805 18.1917 59.4805C17.5146 59.4805 16.9582 59.2901 16.5223 58.9092C16.0906 58.5241 15.8748 58.0375 15.8748 57.4493C15.8748 56.7341 16.1457 56.1797 16.6873 55.7862C17.2332 55.3884 17.9992 55.1895 18.9852 55.1895H20.1277V54.65C20.1277 54.2395 20.005 53.9136 19.7596 53.6724C19.5141 53.427 19.1523 53.3042 18.6741 53.3042C18.2552 53.3042 17.904 53.41 17.6204 53.6216C17.3369 53.8332 17.1951 54.0892 17.1951 54.3897H16.0145C16.0145 54.0469 16.1351 53.7168 16.3763 53.3995C16.6217 53.0778 16.9518 52.8239 17.3665 52.6377C17.7855 52.4515 18.2446 52.3584 18.744 52.3584C19.5353 52.3584 20.1553 52.5573 20.6038 52.9551C21.0524 53.3487 21.2851 53.8925 21.3021 54.5865V57.7476C21.3021 58.3781 21.3825 58.8796 21.5433 59.252V59.3536H20.3118ZM18.3631 58.4585C18.7313 58.4585 19.0804 58.3633 19.4105 58.1729C19.7405 57.9825 19.9796 57.7349 20.1277 57.4302V56.021H19.2073C17.7685 56.021 17.0491 56.4421 17.0491 57.2842C17.0491 57.6524 17.1719 57.9402 17.4173 58.1475C17.6627 58.3549 17.978 58.4585 18.3631 58.4585ZM25.993 59.4805C25.062 59.4805 24.3045 59.1758 23.7205 58.5665C23.1365 57.9528 22.8445 57.134 22.8445 56.1099V55.8941C22.8445 55.2128 22.9736 54.6055 23.2318 54.0723C23.4941 53.5349 23.8581 53.1159 24.3235 52.8155C24.7933 52.5108 25.3011 52.3584 25.847 52.3584C26.7399 52.3584 27.4339 52.6526 27.929 53.2408C28.4241 53.829 28.6717 54.6711 28.6717 55.7671V56.2559H24.0189C24.0358 56.933 24.2326 57.481 24.6092 57.9C24.9901 58.3147 25.4725 58.522 26.0565 58.522C26.4712 58.522 26.8224 58.4374 27.1102 58.2681C27.3979 58.0988 27.6497 57.8746 27.8655 57.5953L28.5828 58.1539C28.0073 59.0383 27.144 59.4805 25.993 59.4805ZM25.847 53.3233C25.373 53.3233 24.9752 53.4968 24.6536 53.8438C24.332 54.1866 24.1331 54.669 24.0569 55.2911H27.4974V55.2022C27.4635 54.6055 27.3027 54.1443 27.015 53.8184C26.7272 53.4883 26.3379 53.3233 25.847 53.3233ZM29.7508 55.8624C29.7508 54.8086 30.0005 53.9623 30.4998 53.3233C30.9992 52.6801 31.653 52.3584 32.4612 52.3584C33.2653 52.3584 33.9022 52.6335 34.3719 53.1836V49.6036H35.5462V59.3536H34.4671L34.41 58.6172C33.9402 59.1928 33.2864 59.4805 32.4485 59.4805C31.653 59.4805 31.0034 59.1547 30.4998 58.503C30.0005 57.8513 29.7508 57.0007 29.7508 55.9512V55.8624ZM30.9251 55.9957C30.9251 56.7743 31.0859 57.3837 31.4075 57.8238C31.7291 58.2639 32.1735 58.4839 32.7405 58.4839C33.4853 58.4839 34.0291 58.1496 34.3719 57.481V54.3262C34.0207 53.6788 33.4811 53.355 32.7532 53.355C32.1777 53.355 31.7291 53.5772 31.4075 54.0215C31.0859 54.4659 30.9251 55.1239 30.9251 55.9957ZM40.2244 59.4805C39.2934 59.4805 38.5359 59.1758 37.952 58.5665C37.368 57.9528 37.076 57.134 37.076 56.1099V55.8941C37.076 55.2128 37.2051 54.6055 37.4632 54.0723C37.7256 53.5349 38.0895 53.1159 38.555 52.8155C39.0247 52.5108 39.5325 52.3584 40.0784 52.3584C40.9713 52.3584 41.6653 52.6526 42.1605 53.2408C42.6556 53.829 42.9031 54.6711 42.9031 55.7671V56.2559H38.2503C38.2672 56.933 38.464 57.481 38.8406 57.9C39.2215 58.3147 39.7039 58.522 40.2879 58.522C40.7026 58.522 41.0539 58.4374 41.3416 58.2681C41.6294 58.0988 41.8812 57.8746 42.097 57.5953L42.8143 58.1539C42.2387 59.0383 41.3755 59.4805 40.2244 59.4805ZM40.0784 53.3233C39.6045 53.3233 39.2067 53.4968 38.8851 53.8438C38.5635 54.1866 38.3646 54.669 38.2884 55.2911H41.7288V55.2022C41.695 54.6055 41.5342 54.1443 41.2464 53.8184C40.9586 53.4883 40.5693 53.3233 40.0784 53.3233ZM47.5877 53.5391C47.41 53.5095 47.2174 53.4947 47.0101 53.4947C46.2399 53.4947 45.7173 53.8226 45.4422 54.4786V59.3536H44.2679V52.4854H45.4105L45.4295 53.2789C45.8146 52.6653 46.3605 52.3584 47.0672 52.3584C47.2957 52.3584 47.4692 52.3881 47.5877 52.4473V53.5391ZM48.6351 58.7378C48.6351 58.5347 48.6943 58.3654 48.8128 58.23C48.9355 58.0946 49.1175 58.0269 49.3587 58.0269C49.5999 58.0269 49.7819 58.0946 49.9046 58.23C50.0316 58.3654 50.095 58.5347 50.095 58.7378C50.095 58.9325 50.0316 59.0954 49.9046 59.2266C49.7819 59.3578 49.5999 59.4234 49.3587 59.4234C49.1175 59.4234 48.9355 59.3578 48.8128 59.2266C48.6943 59.0954 48.6351 58.9325 48.6351 58.7378ZM48.6414 53.1329C48.6414 52.9297 48.7007 52.7605 48.8192 52.625C48.9419 52.4896 49.1238 52.4219 49.3651 52.4219C49.6063 52.4219 49.7882 52.4896 49.9109 52.625C50.0379 52.7605 50.1014 52.9297 50.1014 53.1329C50.1014 53.3275 50.0379 53.4904 49.9109 53.6216C49.7882 53.7528 49.6063 53.8184 49.3651 53.8184C49.1238 53.8184 48.9419 53.7528 48.8192 53.6216C48.7007 53.4904 48.6414 53.3275 48.6414 53.1329ZM56.3221 59.3536H55.1478V52.4854H56.3221V59.3536ZM55.0526 50.6636C55.0526 50.4732 55.1097 50.3124 55.2239 50.1812C55.3424 50.05 55.5159 49.9844 55.7444 49.9844C55.973 49.9844 56.1465 50.05 56.265 50.1812C56.3834 50.3124 56.4427 50.4732 56.4427 50.6636C56.4427 50.8541 56.3834 51.0127 56.265 51.1397C56.1465 51.2667 55.973 51.3301 55.7444 51.3301C55.5159 51.3301 55.3424 51.2667 55.2239 51.1397C55.1097 51.0127 55.0526 50.8541 55.0526 50.6636ZM59.3182 52.4854L59.3563 53.3487C59.881 52.6885 60.5665 52.3584 61.4129 52.3584C62.8644 52.3584 63.5965 53.1773 63.6092 54.815V59.3536H62.4349V54.8086C62.4306 54.3135 62.3164 53.9475 62.0921 53.7105C61.872 53.4735 61.5272 53.355 61.0574 53.355C60.6766 53.355 60.3423 53.4566 60.0545 53.6597C59.7667 53.8628 59.5425 54.1294 59.3817 54.4595V59.3536H58.2073V52.4854H59.3182ZM66.9734 50.8223V52.4854H68.2557V53.3931H66.9734V57.6524C66.9734 57.9275 67.0306 58.1348 67.1448 58.2745C67.2591 58.4099 67.4538 58.4776 67.7288 58.4776C67.8642 58.4776 68.0504 58.4522 68.2874 58.4014V59.3536C67.9785 59.4382 67.678 59.4805 67.386 59.4805C66.8613 59.4805 66.4656 59.3218 66.199 59.0044C65.9324 58.6871 65.7991 58.2364 65.7991 57.6524V53.3931H64.5486V52.4854H65.7991V50.8223H66.9734Z" fill="black"/>
<path d="M10.7713 79.5854H7.67365V78.6269H10.7713V79.5854ZM15.9193 81.2104C15.9193 80.893 15.7986 80.6476 15.5574 80.4741C15.3205 80.2963 14.9036 80.144 14.3069 80.017C13.7145 79.8901 13.2427 79.7377 12.8914 79.56C12.5444 79.3823 12.2863 79.1707 12.117 78.9252C11.952 78.6798 11.8694 78.3878 11.8694 78.0493C11.8694 77.4864 12.1064 77.0104 12.5804 76.621C13.0586 76.2317 13.6679 76.037 14.4085 76.037C15.1872 76.037 15.8177 76.2381 16.3001 76.6401C16.7868 77.0421 17.0301 77.5563 17.0301 78.1826H15.8494C15.8494 77.8609 15.7119 77.5838 15.4368 77.351C15.166 77.1183 14.8232 77.0019 14.4085 77.0019C13.9811 77.0019 13.6468 77.095 13.4056 77.2812C13.1644 77.4674 13.0438 77.7107 13.0438 78.0112C13.0438 78.2947 13.1559 78.5084 13.3802 78.6523C13.6045 78.7962 14.0086 78.9337 14.5926 79.0649C15.1808 79.1961 15.6569 79.3526 16.0208 79.5346C16.3847 79.7166 16.6535 79.9366 16.827 80.1948C17.0047 80.4487 17.0936 80.7597 17.0936 81.1279C17.0936 81.7415 16.8481 82.2345 16.3572 82.6069C15.8664 82.975 15.2295 83.1591 14.4466 83.1591C13.8965 83.1591 13.4098 83.0618 12.9866 82.8671C12.5635 82.6725 12.2313 82.4016 11.9901 82.0546C11.7531 81.7034 11.6346 81.3246 11.6346 80.9184H12.8089C12.8301 81.312 12.9866 81.6251 13.2786 81.8578C13.5748 82.0864 13.9642 82.2006 14.4466 82.2006C14.8909 82.2006 15.2464 82.1118 15.513 81.934C15.7838 81.7521 15.9193 81.5108 15.9193 81.2104ZM19.8992 83.0322H18.7249V76.164H19.8992V83.0322ZM18.6297 74.3422C18.6297 74.1518 18.6868 73.991 18.8011 73.8598C18.9196 73.7286 19.0931 73.663 19.3216 73.663C19.5501 73.663 19.7236 73.7286 19.8421 73.8598C19.9606 73.991 20.0198 74.1518 20.0198 74.3422C20.0198 74.5327 19.9606 74.6913 19.8421 74.8183C19.7236 74.9453 19.5501 75.0087 19.3216 75.0087C19.0931 75.0087 18.9196 74.9453 18.8011 74.8183C18.6868 74.6913 18.6297 74.5327 18.6297 74.3422ZM23.3777 74.5009V76.164H24.66V77.0717H23.3777V81.331C23.3777 81.6061 23.4349 81.8134 23.5491 81.9531C23.6634 82.0885 23.8581 82.1562 24.1331 82.1562C24.2685 82.1562 24.4547 82.1308 24.6917 82.08V83.0322C24.3828 83.1168 24.0823 83.1591 23.7903 83.1591C23.2656 83.1591 22.8699 83.0004 22.6033 82.683C22.3367 82.3657 22.2034 81.915 22.2034 81.331V77.0717H20.9529V76.164H22.2034V74.5009H23.3777ZM27.1419 82.0737H31.16V83.0322H25.7073V82.1689L29.4969 77.1352H25.7645V76.164H30.9695V76.9955L27.1419 82.0737ZM38.2884 79.6743C38.2884 80.7195 38.0493 81.5616 37.5711 82.2006C37.0929 82.8396 36.4455 83.1591 35.6287 83.1591C34.7951 83.1591 34.1391 82.8946 33.6609 82.3657V85.6728H32.4866V76.164H33.5594L33.6165 76.9257C34.0947 76.3333 34.7591 76.037 35.6097 76.037C36.4349 76.037 37.0866 76.3481 37.5648 76.9702C38.0472 77.5922 38.2884 78.4576 38.2884 79.5663V79.6743ZM37.1141 79.541C37.1141 78.7665 36.949 78.155 36.619 77.7065C36.2889 77.2579 35.8361 77.0336 35.2606 77.0336C34.5496 77.0336 34.0164 77.3489 33.6609 77.9794V81.2612C34.0122 81.8875 34.5496 82.2006 35.2733 82.2006C35.8361 82.2006 36.2825 81.9785 36.6126 81.5341C36.9469 81.0856 37.1141 80.4212 37.1141 79.541ZM41.0623 83.0322H39.888V73.2822H41.0623V83.0322ZM47.1878 83.0322C47.1201 82.8967 47.0651 82.6555 47.0228 82.3085C46.4769 82.8756 45.8252 83.1591 45.0677 83.1591C44.3906 83.1591 43.8341 82.9687 43.3983 82.5878C42.9666 82.2027 42.7508 81.7161 42.7508 81.1279C42.7508 80.4127 43.0216 79.8583 43.5633 79.4648C44.1092 79.067 44.8751 78.8681 45.8611 78.8681H47.0037V78.3286C47.0037 77.9181 46.881 77.5922 46.6356 77.351C46.3901 77.1056 46.0283 76.9828 45.5501 76.9828C45.1312 76.9828 44.7799 77.0886 44.4964 77.3002C44.2129 77.5118 44.0711 77.7678 44.0711 78.0683H42.8904C42.8904 77.7255 43.011 77.3954 43.2523 77.0781C43.4977 76.7564 43.8278 76.5025 44.2425 76.3163C44.6614 76.1301 45.1206 76.037 45.6199 76.037C46.4113 76.037 47.0312 76.2359 47.4798 76.6337C47.9284 77.0273 48.1611 77.5711 48.178 78.2651V81.4262C48.178 82.0567 48.2584 82.5582 48.4193 82.9306V83.0322H47.1878ZM45.2391 82.1371C45.6072 82.1371 45.9564 82.0419 46.2864 81.8515C46.6165 81.6611 46.8556 81.4135 47.0037 81.1088V79.6996H46.0833C44.6445 79.6996 43.9251 80.1207 43.9251 80.9628C43.9251 81.331 44.0478 81.6188 44.2933 81.8261C44.5387 82.0335 44.854 82.1371 45.2391 82.1371ZM52.869 83.1591C51.938 83.1591 51.1805 82.8544 50.5965 82.2451C50.0125 81.6314 49.7205 80.8126 49.7205 79.7885V79.5727C49.7205 78.8914 49.8496 78.2841 50.1077 77.7509C50.3701 77.2135 50.734 76.7945 51.1995 76.4941C51.6693 76.1894 52.1771 76.037 52.723 76.037C53.6159 76.037 54.3099 76.3312 54.805 76.9194C55.3001 77.5076 55.5477 78.3497 55.5477 79.4457V79.9345H50.8948C50.9118 80.6116 51.1085 81.1596 51.4852 81.5786C51.866 81.9933 52.3484 82.2006 52.9324 82.2006C53.3471 82.2006 53.6984 82.116 53.9861 81.9467C54.2739 81.7774 54.5257 81.5532 54.7415 81.2739L55.4588 81.8325C54.8833 82.7169 54.02 83.1591 52.869 83.1591ZM52.723 77.0019C52.249 77.0019 51.8512 77.1754 51.5296 77.5224C51.208 77.8652 51.0091 78.3476 50.9329 78.9697H54.3734V78.8808C54.3395 78.2841 54.1787 77.8229 53.8909 77.497C53.6032 77.1669 53.2138 77.0019 52.723 77.0019ZM58.5057 74.5009V76.164H59.7879V77.0717H58.5057V81.331C58.5057 81.6061 58.5628 81.8134 58.6771 81.9531C58.7913 82.0885 58.986 82.1562 59.261 82.1562C59.3965 82.1562 59.5827 82.1308 59.8196 82.08V83.0322C59.5107 83.1168 59.2103 83.1591 58.9183 83.1591C58.3935 83.1591 57.9979 83.0004 57.7313 82.683C57.4647 82.3657 57.3314 81.915 57.3314 81.331V77.0717H56.0809V76.164H57.3314V74.5009H58.5057ZM62.2698 82.0737H66.2879V83.0322H60.8353V82.1689L64.6248 77.1352H60.8924V76.164H66.0975V76.9955L62.2698 82.0737ZM70.3631 83.1591C69.4321 83.1591 68.6746 82.8544 68.0906 82.2451C67.5067 81.6314 67.2147 80.8126 67.2147 79.7885V79.5727C67.2147 78.8914 67.3437 78.2841 67.6019 77.7509C67.8642 77.2135 68.2282 76.7945 68.6937 76.4941C69.1634 76.1894 69.6712 76.037 70.2171 76.037C71.11 76.037 71.804 76.3312 72.2991 76.9194C72.7943 77.5076 73.0418 78.3497 73.0418 79.4457V79.9345H68.389C68.4059 80.6116 68.6027 81.1596 68.9793 81.5786C69.3602 81.9933 69.8426 82.2006 70.4266 82.2006C70.8413 82.2006 71.1925 82.116 71.4803 81.9467C71.768 81.7774 72.0198 81.5532 72.2357 81.2739L72.9529 81.8325C72.3774 82.7169 71.5141 83.1591 70.3631 83.1591ZM70.2171 77.0019C69.7431 77.0019 69.3454 77.1754 69.0237 77.5224C68.7021 77.8652 68.5032 78.3476 68.4271 78.9697H71.8675V78.8808C71.8336 78.2841 71.6728 77.8229 71.3851 77.497C71.0973 77.1669 70.708 77.0019 70.2171 77.0019ZM74.3685 82.4164C74.3685 82.2133 74.4277 82.044 74.5462 81.9086C74.6689 81.7732 74.8509 81.7055 75.0921 81.7055C75.3333 81.7055 75.5153 81.7732 75.638 81.9086C75.765 82.044 75.8284 82.2133 75.8284 82.4164C75.8284 82.6111 75.765 82.774 75.638 82.9052C75.5153 83.0364 75.3333 83.102 75.0921 83.102C74.8509 83.102 74.6689 83.0364 74.5462 82.9052C74.4277 82.774 74.3685 82.6111 74.3685 82.4164ZM74.3748 76.8115C74.3748 76.6083 74.4341 76.4391 74.5526 76.3036C74.6753 76.1682 74.8572 76.1005 75.0984 76.1005C75.3397 76.1005 75.5216 76.1682 75.6443 76.3036C75.7713 76.4391 75.8348 76.6083 75.8348 76.8115C75.8348 77.0061 75.7713 77.169 75.6443 77.3002C75.5216 77.4314 75.3397 77.497 75.0984 77.497C74.8572 77.497 74.6753 77.4314 74.5526 77.3002C74.4341 77.169 74.3748 77.0061 74.3748 76.8115ZM82.0555 83.0322H80.8812V76.164H82.0555V83.0322ZM80.7859 74.3422C80.7859 74.1518 80.8431 73.991 80.9573 73.8598C81.0758 73.7286 81.2493 73.663 81.4778 73.663C81.7064 73.663 81.8799 73.7286 81.9984 73.8598C82.1168 73.991 82.1761 74.1518 82.1761 74.3422C82.1761 74.5327 82.1168 74.6913 81.9984 74.8183C81.8799 74.9453 81.7064 75.0087 81.4778 75.0087C81.2493 75.0087 81.0758 74.9453 80.9573 74.8183C80.8431 74.6913 80.7859 74.5327 80.7859 74.3422ZM85.0516 76.164L85.0897 77.0273C85.6144 76.3671 86.2999 76.037 87.1463 76.037C88.5978 76.037 89.3299 76.8559 89.3426 78.4936V83.0322H88.1683V78.4872C88.164 77.9921 88.0498 77.6261 87.8255 77.3891C87.6054 77.1521 87.2606 77.0336 86.7908 77.0336C86.41 77.0336 86.0757 77.1352 85.7879 77.3383C85.5001 77.5414 85.2759 77.808 85.1151 78.1381V83.0322H83.9407V76.164H85.0516ZM92.7068 74.5009V76.164H93.9891V77.0717H92.7068V81.331C92.7068 81.6061 92.764 81.8134 92.8782 81.9531C92.9925 82.0885 93.1872 82.1562 93.4622 82.1562C93.5976 82.1562 93.7838 82.1308 94.0208 82.08V83.0322C93.7119 83.1168 93.4114 83.1591 93.1194 83.1591C92.5947 83.1591 92.199 83.0004 91.9324 82.683C91.6658 82.3657 91.5325 81.915 91.5325 81.331V77.0717H90.282V76.164H91.5325V74.5009H92.7068Z" fill="black"/>
<path d="M11.6917 114.382H14.2689V115.493H11.6917V118.413H10.511V115.493H7.9339V114.382H10.511V111.684H11.6917V114.382ZM19.7025 117.518C19.7025 117.2 19.5818 116.955 19.3406 116.781C19.1037 116.603 18.6868 116.451 18.0901 116.324C17.4977 116.197 17.0259 116.045 16.6746 115.867C16.3276 115.689 16.0695 115.478 15.9002 115.232C15.7352 114.987 15.6526 114.695 15.6526 114.356C15.6526 113.794 15.8896 113.317 16.3636 112.928C16.8418 112.539 17.4512 112.344 18.1917 112.344C18.9704 112.344 19.6009 112.545 20.0833 112.947C20.57 113.349 20.8133 113.863 20.8133 114.49H19.6326C19.6326 114.168 19.4951 113.891 19.22 113.658C18.9492 113.425 18.6064 113.309 18.1917 113.309C17.7643 113.309 17.43 113.402 17.1888 113.588C16.9476 113.775 16.827 114.018 16.827 114.318C16.827 114.602 16.9391 114.816 17.1634 114.959C17.3877 115.103 17.7918 115.241 18.3758 115.372C18.964 115.503 19.4401 115.66 19.804 115.842C20.1679 116.024 20.4367 116.244 20.6102 116.502C20.7879 116.756 20.8768 117.067 20.8768 117.435C20.8768 118.049 20.6313 118.542 20.1404 118.914C19.6496 119.282 19.0127 119.466 18.2298 119.466C17.6797 119.466 17.193 119.369 16.7698 119.174C16.3467 118.98 16.0145 118.709 15.7733 118.362C15.5363 118.011 15.4178 117.632 15.4178 117.226H16.5921C16.6133 117.619 16.7698 117.932 17.0618 118.165C17.3581 118.393 17.7474 118.508 18.2298 118.508C18.6741 118.508 19.0296 118.419 19.2962 118.241C19.567 118.059 19.7025 117.818 19.7025 117.518ZM23.9998 110.808V112.471H25.282V113.379H23.9998V117.638C23.9998 117.913 24.0569 118.121 24.1712 118.26C24.2855 118.396 24.4801 118.463 24.7552 118.463C24.8906 118.463 25.0768 118.438 25.3138 118.387V119.339C25.0049 119.424 24.7044 119.466 24.4124 119.466C23.8877 119.466 23.492 119.308 23.2254 118.99C22.9588 118.673 22.8255 118.222 22.8255 117.638V113.379H21.575V112.471H22.8255V110.808H23.9998ZM30.8997 119.339C30.832 119.204 30.777 118.963 30.7347 118.616C30.1888 119.183 29.5371 119.466 28.7796 119.466C28.1025 119.466 27.546 119.276 27.1102 118.895C26.6785 118.51 26.4627 118.023 26.4627 117.435C26.4627 116.72 26.7335 116.165 27.2752 115.772C27.8211 115.374 28.5871 115.175 29.5731 115.175H30.7156V114.636C30.7156 114.225 30.5929 113.899 30.3475 113.658C30.102 113.413 29.7402 113.29 29.262 113.29C28.8431 113.29 28.4918 113.396 28.2083 113.607C27.9248 113.819 27.783 114.075 27.783 114.375H26.6024C26.6024 114.033 26.723 113.703 26.9642 113.385C27.2096 113.064 27.5397 112.81 27.9544 112.623C28.3734 112.437 28.8325 112.344 29.3318 112.344C30.1232 112.344 30.7431 112.543 31.1917 112.941C31.6403 113.334 31.873 113.878 31.89 114.572V117.733C31.89 118.364 31.9704 118.865 32.1312 119.238V119.339H30.8997ZM28.951 118.444C29.3192 118.444 29.6683 118.349 29.9984 118.159C30.3284 117.968 30.5675 117.721 30.7156 117.416V116.007H29.7952C28.3564 116.007 27.637 116.428 27.637 117.27C27.637 117.638 27.7597 117.926 28.0052 118.133C28.2506 118.341 28.5659 118.444 28.951 118.444ZM37.0506 113.525C36.8729 113.495 36.6803 113.48 36.473 113.48C35.7028 113.48 35.1802 113.808 34.9051 114.464V119.339H33.7308V112.471H34.8734L34.8924 113.265C35.2775 112.651 35.8234 112.344 36.5301 112.344C36.7586 112.344 36.9321 112.374 37.0506 112.433V113.525ZM40.0467 110.808V112.471H41.3289V113.379H40.0467V117.638C40.0467 117.913 40.1038 118.121 40.2181 118.26C40.3323 118.396 40.527 118.463 40.8021 118.463C40.9375 118.463 41.1237 118.438 41.3607 118.387V119.339C41.0517 119.424 40.7513 119.466 40.4593 119.466C39.9345 119.466 39.5389 119.308 39.2723 118.99C39.0057 118.673 38.8724 118.222 38.8724 117.638V113.379H37.6219V112.471H38.8724V110.808H40.0467ZM48.1146 115.067H44.1092V118.343H48.762V119.339H42.8904V110.097H48.6985V111.1H44.1092V114.071H48.1146V115.067ZM51.2059 112.471L51.244 113.334C51.7687 112.674 52.4542 112.344 53.3006 112.344C54.7521 112.344 55.4842 113.163 55.4969 114.801V119.339H54.3226V114.794C54.3183 114.299 54.2041 113.933 53.9798 113.696C53.7597 113.459 53.4149 113.341 52.9451 113.341C52.5643 113.341 52.23 113.442 51.9422 113.645C51.6544 113.849 51.4302 114.115 51.2693 114.445V119.339H50.095V112.471H51.2059ZM56.9886 115.848C56.9886 114.777 57.2361 113.927 57.7313 113.296C58.2264 112.662 58.8823 112.344 59.699 112.344C60.5369 112.344 61.1907 112.64 61.6605 113.233L61.7176 112.471H62.7903V119.174C62.7903 120.063 62.5259 120.763 61.9969 121.275C61.4721 121.787 60.7654 122.043 59.8768 122.043C59.3817 122.043 58.8971 121.938 58.4232 121.726C57.9492 121.514 57.5874 121.225 57.3377 120.856L57.9471 120.152C58.4507 120.774 59.0664 121.085 59.7943 121.085C60.3655 121.085 60.8099 120.924 61.1273 120.602C61.4489 120.281 61.6097 119.828 61.6097 119.244V118.654C61.14 119.195 60.4988 119.466 59.6863 119.466C58.8823 119.466 58.2306 119.143 57.7313 118.495C57.2361 117.848 56.9886 116.965 56.9886 115.848ZM58.1693 115.981C58.1693 116.756 58.3279 117.365 58.6453 117.809C58.9627 118.25 59.407 118.47 59.9783 118.47C60.7189 118.47 61.2627 118.133 61.6097 117.46V114.325C61.25 113.669 60.7104 113.341 59.991 113.341C59.4197 113.341 58.9733 113.563 58.6517 114.007C58.3301 114.452 58.1693 115.11 58.1693 115.981ZM65.8436 119.339H64.6693V112.471H65.8436V119.339ZM64.574 110.649C64.574 110.459 64.6312 110.298 64.7454 110.167C64.8639 110.036 65.0374 109.97 65.2659 109.97C65.4944 109.97 65.6679 110.036 65.7864 110.167C65.9049 110.298 65.9642 110.459 65.9642 110.649C65.9642 110.84 65.9049 110.998 65.7864 111.125C65.6679 111.252 65.4944 111.316 65.2659 111.316C65.0374 111.316 64.8639 111.252 64.7454 111.125C64.6312 110.998 64.574 110.84 64.574 110.649ZM68.8397 112.471L68.8777 113.334C69.4025 112.674 70.088 112.344 70.9344 112.344C72.3859 112.344 73.118 113.163 73.1307 114.801V119.339H71.9564V114.794C71.9521 114.299 71.8379 113.933 71.6136 113.696C71.3935 113.459 71.0486 113.341 70.5789 113.341C70.1981 113.341 69.8637 113.442 69.576 113.645C69.2882 113.849 69.0639 114.115 68.9031 114.445V119.339H67.7288V112.471H68.8397ZM77.7518 119.466C76.8208 119.466 76.0633 119.162 75.4793 118.552C74.8953 117.939 74.6033 117.12 74.6033 116.096V115.88C74.6033 115.198 74.7324 114.591 74.9905 114.058C75.2529 113.521 75.6168 113.102 76.0823 112.801C76.5521 112.497 77.0599 112.344 77.6058 112.344C78.4987 112.344 79.1927 112.638 79.6878 113.226C80.1829 113.815 80.4305 114.657 80.4305 115.753V116.242H75.7776C75.7946 116.919 75.9914 117.467 76.368 117.886C76.7488 118.3 77.2313 118.508 77.8152 118.508C78.23 118.508 78.5812 118.423 78.869 118.254C79.1567 118.085 79.4085 117.86 79.6243 117.581L80.3416 118.14C79.7661 119.024 78.9028 119.466 77.7518 119.466ZM77.6058 113.309C77.1318 113.309 76.734 113.483 76.4124 113.83C76.0908 114.172 75.8919 114.655 75.8157 115.277H79.2562V115.188C79.2223 114.591 79.0615 114.13 78.7737 113.804C78.486 113.474 78.0967 113.309 77.6058 113.309ZM81.7508 115.588C81.7508 114.631 81.8777 113.713 82.1317 112.833C82.3898 111.953 82.7728 111.153 83.2806 110.434C83.7884 109.714 84.3152 109.206 84.8611 108.91L85.1024 109.684C84.4845 110.158 83.9767 110.882 83.5789 111.855C83.1854 112.829 82.9695 113.918 82.9315 115.124L82.9251 115.664C82.9251 117.297 83.2234 118.715 83.8201 119.917C84.1798 120.636 84.6072 121.199 85.1024 121.605L84.8611 122.323C84.2983 122.01 83.7609 121.485 83.2488 120.748C82.2501 119.31 81.7508 117.589 81.7508 115.588ZM88.949 115.651C88.949 116.595 88.8242 117.501 88.5745 118.368C88.3291 119.231 87.9503 120.029 87.4383 120.761C86.9305 121.493 86.3973 122.014 85.8387 122.323L85.5911 121.605C86.2428 121.106 86.7654 120.332 87.159 119.282C87.5568 118.228 87.7599 117.06 87.7684 115.778V115.575C87.7684 114.686 87.6753 113.861 87.4891 113.1C87.3029 112.334 87.0426 111.648 86.7083 111.043C86.3782 110.438 86.0058 109.966 85.5911 109.627L85.8387 108.91C86.3973 109.219 86.9284 109.735 87.4319 110.459C87.9398 111.183 88.3185 111.98 88.5682 112.852C88.8221 113.724 88.949 114.657 88.949 115.651ZM90.72 118.724C90.72 118.52 90.7793 118.351 90.8978 118.216C91.0205 118.08 91.2025 118.013 91.4437 118.013C91.6849 118.013 91.8668 118.08 91.9896 118.216C92.1165 118.351 92.18 118.52 92.18 118.724C92.18 118.918 92.1165 119.081 91.9896 119.212C91.8668 119.344 91.6849 119.409 91.4437 119.409C91.2025 119.409 91.0205 119.344 90.8978 119.212C90.7793 119.081 90.72 118.918 90.72 118.724ZM90.7264 113.119C90.7264 112.915 90.7856 112.746 90.9041 112.611C91.0268 112.475 91.2088 112.408 91.45 112.408C91.6912 112.408 91.8732 112.475 91.9959 112.611C92.1229 112.746 92.1863 112.915 92.1863 113.119C92.1863 113.313 92.1229 113.476 91.9959 113.607C91.8732 113.739 91.6912 113.804 91.45 113.804C91.2088 113.804 91.0268 113.739 90.9041 113.607C90.7856 113.476 90.7264 113.313 90.7264 113.119ZM99.3973 117.746L101.098 112.471H102.298L99.8353 119.339H98.9402L96.452 112.471H97.6517L99.3973 117.746ZM103.015 115.842C103.015 115.169 103.147 114.564 103.409 114.026C103.676 113.489 104.044 113.074 104.513 112.782C104.987 112.49 105.527 112.344 106.132 112.344C107.067 112.344 107.823 112.668 108.398 113.315C108.978 113.963 109.268 114.824 109.268 115.899V115.981C109.268 116.65 109.139 117.251 108.881 117.784C108.627 118.313 108.261 118.726 107.783 119.022C107.309 119.318 106.763 119.466 106.145 119.466C105.214 119.466 104.458 119.143 103.879 118.495C103.303 117.848 103.015 116.991 103.015 115.924V115.842ZM104.196 115.981C104.196 116.743 104.372 117.355 104.723 117.816C105.078 118.277 105.552 118.508 106.145 118.508C106.742 118.508 107.215 118.275 107.567 117.809C107.918 117.34 108.094 116.684 108.094 115.842C108.094 115.088 107.914 114.479 107.554 114.014C107.199 113.544 106.725 113.309 106.132 113.309C105.552 113.309 105.085 113.54 104.729 114.001C104.374 114.462 104.196 115.122 104.196 115.981ZM112.016 119.339H110.842V112.471H112.016V119.339ZM110.747 110.649C110.747 110.459 110.804 110.298 110.918 110.167C111.037 110.036 111.21 109.97 111.439 109.97C111.667 109.97 111.841 110.036 111.959 110.167C112.078 110.298 112.137 110.459 112.137 110.649C112.137 110.84 112.078 110.998 111.959 111.125C111.841 111.252 111.667 111.316 111.439 111.316C111.21 111.316 111.037 111.252 110.918 111.125C110.804 110.998 110.747 110.84 110.747 110.649ZM113.616 115.848C113.616 114.794 113.866 113.948 114.365 113.309C114.864 112.666 115.518 112.344 116.326 112.344C117.131 112.344 117.767 112.619 118.237 113.169V109.589H119.411V119.339H118.332L118.275 118.603C117.805 119.178 117.152 119.466 116.314 119.466C115.518 119.466 114.869 119.14 114.365 118.489C113.866 117.837 113.616 116.986 113.616 115.937V115.848ZM114.79 115.981C114.79 116.76 114.951 117.369 115.273 117.809C115.594 118.25 116.039 118.47 116.606 118.47C117.351 118.47 117.894 118.135 118.237 117.467V114.312C117.886 113.664 117.346 113.341 116.618 113.341C116.043 113.341 115.594 113.563 115.273 114.007C114.951 114.452 114.79 115.11 114.79 115.981Z" fill="black"/>
</svg>
