<svg width="318" height="485" viewBox="0 0 318 485" fill="none" xmlns="http://www.w3.org/2000/svg">
<path opacity="0.2" d="M313.133 27.5753H27.5816V222.224H313.133V27.5753Z" fill="#C0C0C0"/>
<path d="M301.776 16.2207H16.2245V210.87H301.776V16.2207Z" fill="white"/>
<path d="M16.2245 16.2207H301.776V210.87H16.2245V16.2207Z" stroke="black" stroke-miterlimit="10"/>
<path d="M16.2245 56.7726H301.776" stroke="black" stroke-miterlimit="10"/>
<path d="M16.2245 118.411H301.776" stroke="black" stroke-miterlimit="10"/>
<path d="M120.833 34.9874H117.177V38.7642H115.273V29.522H121.29V31.0645H117.177V33.4512H120.833V34.9874ZM126.038 38.7642C125.954 38.5992 125.892 38.3939 125.854 38.1485C125.41 38.6436 124.832 38.8912 124.121 38.8912C123.449 38.8912 122.89 38.6965 122.446 38.3072C122.006 37.9179 121.785 37.427 121.785 36.8345C121.785 36.1067 122.054 35.5481 122.592 35.1587C123.133 34.7694 123.914 34.5726 124.934 34.5684H125.778V34.1749C125.778 33.8575 125.696 33.6036 125.531 33.4131C125.37 33.2227 125.114 33.1275 124.763 33.1275C124.454 33.1275 124.21 33.2015 124.033 33.3497C123.859 33.4978 123.772 33.7009 123.772 33.959H121.938C121.938 33.5612 122.061 33.1931 122.306 32.8545C122.551 32.516 122.898 32.2515 123.347 32.0611C123.796 31.8664 124.299 31.7691 124.858 31.7691C125.704 31.7691 126.375 31.9828 126.87 32.4102C127.369 32.8334 127.619 33.4301 127.619 34.2002V37.1773C127.623 37.829 127.714 38.322 127.892 38.6563V38.7642H126.038ZM124.521 37.4883C124.792 37.4883 125.042 37.4291 125.27 37.3106C125.499 37.1879 125.668 37.0249 125.778 36.8218V35.6412H125.093C124.174 35.6412 123.686 35.9585 123.626 36.5933L123.62 36.7012C123.62 36.9297 123.7 37.118 123.861 37.2662C124.022 37.4143 124.242 37.4883 124.521 37.4883ZM130.818 32.6451C131.305 32.0611 131.916 31.7691 132.653 31.7691C134.142 31.7691 134.898 32.6345 134.919 34.3653V38.7642H133.084V34.4161C133.084 34.0225 133 33.7326 132.83 33.5464C132.661 33.356 132.38 33.2608 131.986 33.2608C131.449 33.2608 131.059 33.4681 130.818 33.8829V38.7642H128.984V29.0142H130.818V32.6451ZM140.162 33.6163C139.912 33.5824 139.692 33.5655 139.502 33.5655C138.808 33.5655 138.353 33.8003 138.137 34.2701V38.7642H136.303V31.896H138.035L138.086 32.7149C138.454 32.0844 138.964 31.7691 139.616 31.7691C139.819 31.7691 140.01 31.7966 140.187 31.8516L140.162 33.6163ZM143.158 37.2852H146.516V38.7642H140.816V37.647L144.047 33.3814H140.911V31.896H146.414V32.9815L143.158 37.2852ZM150.724 38.8912C149.717 38.8912 148.896 38.5822 148.262 37.9644C147.631 37.3466 147.316 36.5235 147.316 35.4952V35.3174C147.316 34.6276 147.449 34.0119 147.716 33.4703C147.982 32.9244 148.359 32.5054 148.846 32.2134C149.336 31.9172 149.895 31.7691 150.521 31.7691C151.461 31.7691 152.199 32.0653 152.737 32.6578C153.278 33.2502 153.549 34.0902 153.549 35.1778V35.9268H149.176C149.235 36.3754 149.413 36.7351 149.709 37.0059C150.009 37.2767 150.388 37.4122 150.845 37.4122C151.552 37.4122 152.104 37.1561 152.502 36.6441L153.403 37.6534C153.128 38.0427 152.756 38.3474 152.286 38.5674C151.816 38.7832 151.296 38.8912 150.724 38.8912ZM150.515 33.2544C150.151 33.2544 149.855 33.3772 149.626 33.6226C149.402 33.868 149.258 34.2193 149.195 34.6763H151.746V34.5303C151.738 34.1241 151.628 33.8109 151.416 33.5909C151.205 33.3666 150.904 33.2544 150.515 33.2544ZM158.71 38.066C158.257 38.6161 157.631 38.8912 156.831 38.8912C156.095 38.8912 155.532 38.6796 155.142 38.2564C154.757 37.8332 154.561 37.2133 154.552 36.3965V31.896H156.387V36.3331C156.387 37.0482 156.712 37.4058 157.364 37.4058C157.986 37.4058 158.414 37.19 158.646 36.7583V31.896H160.487V38.7642H158.761L158.71 38.066ZM161.604 35.2793C161.604 34.2256 161.854 33.3772 162.353 32.7339C162.857 32.0907 163.534 31.7691 164.385 31.7691C165.138 31.7691 165.724 32.0272 166.143 32.5435L166.219 31.896H167.882V38.5357C167.882 39.1366 167.745 39.6592 167.47 40.1036C167.199 40.5479 166.816 40.8864 166.321 41.1192C165.826 41.3519 165.246 41.4683 164.581 41.4683C164.078 41.4683 163.587 41.3667 163.109 41.1636C162.631 40.9647 162.269 40.7066 162.023 40.3892L162.836 39.272C163.293 39.7841 163.847 40.0401 164.499 40.0401C164.986 40.0401 165.364 39.9089 165.635 39.6465C165.906 39.3884 166.041 39.0202 166.041 38.542V38.1739C165.618 38.6521 165.062 38.8912 164.372 38.8912C163.547 38.8912 162.878 38.5695 162.366 37.9263C161.858 37.2789 161.604 36.4219 161.604 35.3555V35.2793ZM163.439 35.4126C163.439 36.0347 163.564 36.5235 163.813 36.879C164.063 37.2302 164.406 37.4058 164.842 37.4058C165.4 37.4058 165.8 37.1963 166.041 36.7774V33.8892C165.796 33.4703 165.4 33.2608 164.854 33.2608C164.414 33.2608 164.067 33.4406 163.813 33.8003C163.564 34.16 163.439 34.6975 163.439 35.4126Z" fill="black"/>
<path d="M27.6693 72.6251H24.5716V71.6666H27.6693V72.6251ZM32.138 70.2574C31.9603 70.2278 31.7677 70.213 31.5604 70.213C30.7902 70.213 30.2676 70.541 29.9925 71.1969V76.0719H28.8182V69.2037H29.9608L29.9798 69.9972C30.3649 69.3836 30.9108 69.0768 31.6175 69.0768C31.846 69.0768 32.0195 69.1064 32.138 69.1656V70.2574ZM37.2098 76.0719C37.1421 75.9365 37.0871 75.6953 37.0447 75.3483C36.4988 75.9153 35.8471 76.1989 35.0897 76.1989C34.4126 76.1989 33.8561 76.0084 33.4202 75.6276C32.9886 75.2425 32.7728 74.7558 32.7728 74.1676C32.7728 73.4524 33.0436 72.8981 33.5853 72.5045C34.1312 72.1067 34.8971 71.9078 35.8831 71.9078H37.0257V71.3683C37.0257 70.9578 36.903 70.632 36.6575 70.3907C36.4121 70.1453 36.0503 70.0226 35.5721 70.0226C35.1531 70.0226 34.8019 70.1284 34.5184 70.34C34.2348 70.5516 34.0931 70.8076 34.0931 71.108H32.9124C32.9124 70.7653 33.033 70.4352 33.2742 70.1178C33.5197 69.7962 33.8498 69.5423 34.2645 69.3561C34.6834 69.1699 35.1426 69.0768 35.6419 69.0768C36.4332 69.0768 37.0532 69.2757 37.5018 69.6735C37.9503 70.067 38.1831 70.6108 38.2 71.3048V74.4659C38.2 75.0965 38.2804 75.5979 38.4412 75.9703V76.0719H37.2098ZM35.261 75.1769C35.6292 75.1769 35.9783 75.0817 36.3084 74.8912C36.6385 74.7008 36.8776 74.4532 37.0257 74.1486V72.7394H36.1053C34.6665 72.7394 33.9471 73.1604 33.9471 74.0026C33.9471 74.3707 34.0698 74.6585 34.3152 74.8658C34.5607 75.0732 34.876 75.1769 35.261 75.1769ZM42.8909 76.1989C41.9599 76.1989 41.2025 75.8942 40.6185 75.2848C40.0345 74.6712 39.7425 73.8523 39.7425 72.8282V72.6124C39.7425 71.9311 39.8716 71.3239 40.1297 70.7906C40.3921 70.2532 40.756 69.8343 41.2215 69.5338C41.6912 69.2291 42.199 69.0768 42.7449 69.0768C43.6378 69.0768 44.3318 69.3709 44.827 69.9591C45.3221 70.5473 45.5696 71.3894 45.5696 72.4855V72.9742H40.9168C40.9337 73.6513 41.1305 74.1993 41.5071 74.6183C41.888 75.033 42.3704 75.2404 42.9544 75.2404C43.3691 75.2404 43.7204 75.1557 44.0081 74.9865C44.2959 74.8172 44.5477 74.5929 44.7635 74.3136L45.4808 74.8722C44.9053 75.7566 44.042 76.1989 42.8909 76.1989ZM42.7449 70.0416C42.271 70.0416 41.8732 70.2151 41.5516 70.5621C41.23 70.9049 41.0311 71.3873 40.9549 72.0094H44.3953V71.9205C44.3615 71.3239 44.2007 70.8626 43.9129 70.5367C43.6251 70.2067 43.2358 70.0416 42.7449 70.0416ZM46.6487 72.5807C46.6487 71.527 46.8984 70.6806 47.3978 70.0416C47.8971 69.3984 48.5509 69.0768 49.3592 69.0768C50.1632 69.0768 50.8001 69.3518 51.2698 69.902V66.3219H52.4442V76.0719H51.3651L51.3079 75.3356C50.8382 75.9111 50.1844 76.1989 49.3465 76.1989C48.5509 76.1989 47.9013 75.873 47.3978 75.2213C46.8984 74.5696 46.6487 73.719 46.6487 72.6696V72.5807ZM47.8231 72.714C47.8231 73.4926 47.9839 74.102 48.3055 74.5421C48.6271 74.9822 49.0714 75.2023 49.6385 75.2023C50.3833 75.2023 50.9271 74.868 51.2698 74.1993V71.0446C50.9186 70.3971 50.379 70.0734 49.6512 70.0734C49.0757 70.0734 48.6271 70.2955 48.3055 70.7399C47.9839 71.1842 47.8231 71.8422 47.8231 72.714ZM57.1224 76.1989C56.1914 76.1989 55.4339 75.8942 54.8499 75.2848C54.2659 74.6712 53.9739 73.8523 53.9739 72.8282V72.6124C53.9739 71.9311 54.103 71.3239 54.3611 70.7906C54.6235 70.2532 54.9874 69.8343 55.4529 69.5338C55.9227 69.2291 56.4305 69.0768 56.9764 69.0768C57.8693 69.0768 58.5633 69.3709 59.0584 69.9591C59.5535 70.5473 59.8011 71.3894 59.8011 72.4855V72.9742H55.1483C55.1652 73.6513 55.362 74.1993 55.7386 74.6183C56.1194 75.033 56.6019 75.2404 57.1859 75.2404C57.6006 75.2404 57.9518 75.1557 58.2396 74.9865C58.5273 74.8172 58.7791 74.5929 58.9949 74.3136L59.7122 74.8722C59.1367 75.7566 58.2734 76.1989 57.1224 76.1989ZM56.9764 70.0416C56.5024 70.0416 56.1046 70.2151 55.783 70.5621C55.4614 70.9049 55.2625 71.3873 55.1863 72.0094H58.6268V71.9205C58.5929 71.3239 58.4321 70.8626 58.1443 70.5367C57.8566 70.2067 57.4673 70.0416 56.9764 70.0416ZM64.4857 70.2574C64.3079 70.2278 64.1154 70.213 63.908 70.213C63.1378 70.213 62.6152 70.541 62.3401 71.1969V76.0719H61.1658V69.2037H62.3084L62.3275 69.9972C62.7125 69.3836 63.2584 69.0768 63.9651 69.0768C64.1937 69.0768 64.3672 69.1064 64.4857 69.1656V70.2574ZM65.533 75.4562C65.533 75.2531 65.5923 75.0838 65.7108 74.9484C65.8335 74.8129 66.0154 74.7452 66.2567 74.7452C66.4979 74.7452 66.6798 74.8129 66.8026 74.9484C66.9295 75.0838 66.993 75.2531 66.993 75.4562C66.993 75.6508 66.9295 75.8138 66.8026 75.9449C66.6798 76.0761 66.4979 76.1417 66.2567 76.1417C66.0154 76.1417 65.8335 76.0761 65.7108 75.9449C65.5923 75.8138 65.533 75.6508 65.533 75.4562ZM65.5394 69.8512C65.5394 69.6481 65.5986 69.4788 65.7171 69.3434C65.8398 69.208 66.0218 69.1403 66.263 69.1403C66.5042 69.1403 66.6862 69.208 66.8089 69.3434C66.9359 69.4788 66.9993 69.6481 66.9993 69.8512C66.9993 70.0459 66.9359 70.2088 66.8089 70.34C66.6862 70.4712 66.5042 70.5367 66.263 70.5367C66.0218 70.5367 65.8398 70.4712 65.7171 70.34C65.5986 70.2088 65.5394 70.0459 65.5394 69.8512ZM73.22 76.0719H72.0457V69.2037H73.22V76.0719ZM71.9505 67.382C71.9505 67.1915 72.0076 67.0307 72.1219 66.8995C72.2404 66.7684 72.4139 66.7028 72.6424 66.7028C72.8709 66.7028 73.0444 66.7684 73.1629 66.8995C73.2814 67.0307 73.3406 67.1915 73.3406 67.382C73.3406 67.5724 73.2814 67.7311 73.1629 67.858C73.0444 67.985 72.8709 68.0485 72.6424 68.0485C72.4139 68.0485 72.2404 67.985 72.1219 67.858C72.0076 67.7311 71.9505 67.5724 71.9505 67.382ZM76.2161 69.2037L76.2542 70.067C76.779 69.4069 77.4645 69.0768 78.3109 69.0768C79.7623 69.0768 80.4944 69.8956 80.5071 71.5333V76.0719H79.3328V71.527C79.3286 71.0319 79.2143 70.6658 78.9901 70.4288C78.77 70.1919 78.4251 70.0734 77.9554 70.0734C77.5745 70.0734 77.2402 70.1749 76.9525 70.3781C76.6647 70.5812 76.4404 70.8478 76.2796 71.1779V76.0719H75.1053V69.2037H76.2161ZM83.8714 67.5406V69.2037H85.1536V70.1115H83.8714V74.3707C83.8714 74.6458 83.9285 74.8531 84.0428 74.9928C84.157 75.1282 84.3517 75.1959 84.6268 75.1959C84.7622 75.1959 84.9484 75.1705 85.1854 75.1198V76.0719C84.8764 76.1565 84.576 76.1989 84.284 76.1989C83.7593 76.1989 83.3636 76.0402 83.097 75.7228C82.8304 75.4054 82.6971 74.9547 82.6971 74.3707V70.1115H81.4466V69.2037H82.6971V67.5406H83.8714Z" fill="black"/>
<path d="M27.6693 96.9562H24.5716V95.9977H27.6693V96.9562ZM32.8172 98.5812C32.8172 98.2639 32.6966 98.0184 32.4554 97.8449C32.2184 97.6672 31.8016 97.5148 31.2049 97.3879C30.6124 97.2609 30.1406 97.1086 29.7894 96.9308C29.4424 96.7531 29.1842 96.5415 29.015 96.2961C28.8499 96.0506 28.7674 95.7586 28.7674 95.4201C28.7674 94.8573 29.0044 94.3812 29.4783 93.9919C29.9565 93.6026 30.5659 93.4079 31.3065 93.4079C32.0851 93.4079 32.7156 93.6089 33.1981 94.0109C33.6847 94.4129 33.928 94.9271 33.928 95.5534H32.7474C32.7474 95.2318 32.6098 94.9546 32.3348 94.7219C32.0639 94.4891 31.7212 94.3727 31.3065 94.3727C30.879 94.3727 30.5447 94.4658 30.3035 94.652C30.0623 94.8382 29.9417 95.0816 29.9417 95.382C29.9417 95.6655 30.0539 95.8793 30.2781 96.0231C30.5024 96.167 30.9066 96.3045 31.4905 96.4357C32.0788 96.5669 32.5548 96.7235 32.9188 96.9055C33.2827 97.0874 33.5514 97.3075 33.7249 97.5656C33.9026 97.8195 33.9915 98.1306 33.9915 98.4987C33.9915 99.1123 33.7461 99.6053 33.2552 99.9777C32.7643 100.346 32.1274 100.53 31.3445 100.53C30.7944 100.53 30.3078 100.433 29.8846 100.238C29.4614 100.043 29.1292 99.7725 28.888 99.4255C28.651 99.0742 28.5325 98.6955 28.5325 98.2892H29.7068C29.728 98.6828 29.8846 98.996 30.1766 99.2287C30.4728 99.4572 30.8621 99.5715 31.3445 99.5715C31.7889 99.5715 32.1443 99.4826 32.4109 99.3049C32.6818 99.1229 32.8172 98.8817 32.8172 98.5812ZM36.7972 100.403H35.6229V93.5349H36.7972V100.403ZM35.5276 91.7131C35.5276 91.5226 35.5848 91.3618 35.699 91.2307C35.8175 91.0995 35.991 91.0339 36.2195 91.0339C36.4481 91.0339 36.6216 91.0995 36.7401 91.2307C36.8585 91.3618 36.9178 91.5226 36.9178 91.7131C36.9178 91.9035 36.8585 92.0622 36.7401 92.1891C36.6216 92.3161 36.4481 92.3796 36.2195 92.3796C35.991 92.3796 35.8175 92.3161 35.699 92.1891C35.5848 92.0622 35.5276 91.9035 35.5276 91.7131ZM40.2757 91.8718V93.5349H41.5579V94.4426H40.2757V98.7018C40.2757 98.9769 40.3328 99.1843 40.4471 99.3239C40.5613 99.4593 40.756 99.527 41.0311 99.527C41.1665 99.527 41.3527 99.5016 41.5897 99.4509V100.403C41.2807 100.488 40.9803 100.53 40.6883 100.53C40.1636 100.53 39.7679 100.371 39.5013 100.054C39.2347 99.7365 39.1014 99.2858 39.1014 98.7018V94.4426H37.8509V93.5349H39.1014V91.8718H40.2757ZM44.0399 99.4445H48.0579V100.403H42.6053V99.5397L46.3948 94.506H42.6624V93.5349H47.8675V94.3664L44.0399 99.4445ZM55.1863 97.0451C55.1863 98.0904 54.9472 98.9325 54.4691 99.5715C53.9909 100.21 53.3434 100.53 52.5267 100.53C51.693 100.53 51.0371 100.265 50.5589 99.7365V103.044H49.3846V93.5349H50.4573L50.5145 94.2966C50.9927 93.7041 51.657 93.4079 52.5076 93.4079C53.3328 93.4079 53.9845 93.7189 54.4627 94.341C54.9451 94.9631 55.1863 95.8285 55.1863 96.9372V97.0451ZM54.012 96.9118C54.012 96.1374 53.847 95.5259 53.5169 95.0773C53.1868 94.6288 52.734 94.4045 52.1585 94.4045C51.4476 94.4045 50.9144 94.7197 50.5589 95.3503V98.632C50.9101 99.2583 51.4476 99.5715 52.1712 99.5715C52.734 99.5715 53.1805 99.3493 53.5106 98.905C53.8449 98.4564 54.012 97.792 54.012 96.9118ZM57.9603 100.403H56.7859V90.653H57.9603V100.403ZM64.0858 100.403C64.018 100.268 63.963 100.026 63.9207 99.6794C63.3748 100.246 62.7231 100.53 61.9656 100.53C61.2886 100.53 60.7321 100.34 60.2962 99.9587C59.8646 99.5736 59.6487 99.0869 59.6487 98.4987C59.6487 97.7835 59.9196 97.2292 60.4612 96.8356C61.0071 96.4378 61.7731 96.239 62.7591 96.239H63.9017V95.6994C63.9017 95.2889 63.779 94.9631 63.5335 94.7219C63.2881 94.4764 62.9262 94.3537 62.4481 94.3537C62.0291 94.3537 61.6779 94.4595 61.3943 94.6711C61.1108 94.8827 60.9691 95.1387 60.9691 95.4391H59.7884C59.7884 95.0964 59.909 94.7663 60.1502 94.4489C60.3957 94.1273 60.7257 93.8734 61.1404 93.6872C61.5594 93.501 62.0185 93.4079 62.5179 93.4079C63.3092 93.4079 63.9292 93.6068 64.3777 94.0046C64.8263 94.3981 65.0591 94.9419 65.076 95.6359V98.7971C65.076 99.4276 65.1564 99.9291 65.3172 100.301V100.403H64.0858ZM62.137 99.508C62.5052 99.508 62.8543 99.4128 63.1844 99.2224C63.5145 99.0319 63.7536 98.7844 63.9017 98.4797V97.0705H62.9813C61.5425 97.0705 60.8231 97.4916 60.8231 98.3337C60.8231 98.7018 60.9458 98.9896 61.1912 99.197C61.4367 99.4043 61.7519 99.508 62.137 99.508ZM69.7669 100.53C68.8359 100.53 68.0784 100.225 67.4944 99.6159C66.9105 99.0023 66.6185 98.1835 66.6185 97.1594V96.9435C66.6185 96.2622 66.7475 95.655 67.0057 95.1218C67.268 94.5843 67.632 94.1654 68.0975 93.8649C68.5672 93.5602 69.075 93.4079 69.6209 93.4079C70.5138 93.4079 71.2078 93.702 71.7029 94.2902C72.1981 94.8784 72.4456 95.7206 72.4456 96.8166V97.3054H67.7928C67.8097 97.9824 68.0065 98.5305 68.3831 98.9494C68.764 99.3641 69.2464 99.5715 69.8304 99.5715C70.2451 99.5715 70.5963 99.4868 70.8841 99.3176C71.1719 99.1483 71.4236 98.924 71.6395 98.6447L72.3568 99.2033C71.7812 100.088 70.9179 100.53 69.7669 100.53ZM69.6209 94.3727C69.147 94.3727 68.7492 94.5462 68.4276 94.8932C68.1059 95.236 67.907 95.7184 67.8309 96.3405H71.2713V96.2516C71.2374 95.655 71.0766 95.1937 70.7889 94.8679C70.5011 94.5378 70.1118 94.3727 69.6209 94.3727ZM75.4036 91.8718V93.5349H76.6859V94.4426H75.4036V98.7018C75.4036 98.9769 75.4608 99.1843 75.575 99.3239C75.6893 99.4593 75.8839 99.527 76.159 99.527C76.2944 99.527 76.4806 99.5016 76.7176 99.4509V100.403C76.4087 100.488 76.1082 100.53 75.8162 100.53C75.2915 100.53 74.8958 100.371 74.6292 100.054C74.3626 99.7365 74.2293 99.2858 74.2293 98.7018V94.4426H72.9788V93.5349H74.2293V91.8718H75.4036ZM79.1678 99.4445H83.1859V100.403H77.7332V99.5397L81.5228 94.506H77.7903V93.5349H82.9954V94.3664L79.1678 99.4445ZM87.261 100.53C86.3301 100.53 85.5726 100.225 84.9886 99.6159C84.4046 99.0023 84.1126 98.1835 84.1126 97.1594V96.9435C84.1126 96.2622 84.2417 95.655 84.4998 95.1218C84.7622 94.5843 85.1261 94.1654 85.5916 93.8649C86.0613 93.5602 86.5692 93.4079 87.1151 93.4079C88.008 93.4079 88.702 93.702 89.1971 94.2902C89.6922 94.8784 89.9398 95.7206 89.9398 96.8166V97.3054H85.2869C85.3039 97.9824 85.5006 98.5305 85.8773 98.9494C86.2581 99.3641 86.7405 99.5715 87.3245 99.5715C87.7392 99.5715 88.0905 99.4868 88.3782 99.3176C88.666 99.1483 88.9178 98.924 89.1336 98.6447L89.8509 99.2033C89.2754 100.088 88.4121 100.53 87.261 100.53ZM87.1151 94.3727C86.6411 94.3727 86.2433 94.5462 85.9217 94.8932C85.6001 95.236 85.4012 95.7184 85.325 96.3405H88.7654V96.2516C88.7316 95.655 88.5708 95.1937 88.283 94.8679C87.9953 94.5378 87.6059 94.3727 87.1151 94.3727ZM91.2664 99.7873C91.2664 99.5842 91.3257 99.4149 91.4442 99.2795C91.5669 99.1441 91.7488 99.0764 91.9901 99.0764C92.2313 99.0764 92.4132 99.1441 92.5359 99.2795C92.6629 99.4149 92.7264 99.5842 92.7264 99.7873C92.7264 99.982 92.6629 100.145 92.5359 100.276C92.4132 100.407 92.2313 100.473 91.9901 100.473C91.7488 100.473 91.5669 100.407 91.4442 100.276C91.3257 100.145 91.2664 99.982 91.2664 99.7873ZM91.2728 94.1823C91.2728 93.9792 91.332 93.8099 91.4505 93.6745C91.5732 93.5391 91.7552 93.4714 91.9964 93.4714C92.2376 93.4714 92.4196 93.5391 92.5423 93.6745C92.6693 93.8099 92.7327 93.9792 92.7327 94.1823C92.7327 94.377 92.6693 94.5399 92.5423 94.6711C92.4196 94.8023 92.2376 94.8679 91.9964 94.8679C91.7552 94.8679 91.5732 94.8023 91.4505 94.6711C91.332 94.5399 91.2728 94.377 91.2728 94.1823ZM98.9534 100.403H97.7791V93.5349H98.9534V100.403ZM97.6839 91.7131C97.6839 91.5226 97.741 91.3618 97.8553 91.2307C97.9738 91.0995 98.1473 91.0339 98.3758 91.0339C98.6043 91.0339 98.7778 91.0995 98.8963 91.2307C99.0148 91.3618 99.074 91.5226 99.074 91.7131C99.074 91.9035 99.0148 92.0622 98.8963 92.1891C98.7778 92.3161 98.6043 92.3796 98.3758 92.3796C98.1473 92.3796 97.9738 92.3161 97.8553 92.1891C97.741 92.0622 97.6839 91.9035 97.6839 91.7131ZM101.95 93.5349L101.988 94.3981C102.512 93.738 103.198 93.4079 104.044 93.4079C105.496 93.4079 106.228 94.2267 106.241 95.8644V100.403H105.066V95.8581C105.062 95.363 104.948 94.9969 104.723 94.7599C104.503 94.523 104.159 94.4045 103.689 94.4045C103.308 94.4045 102.974 94.506 102.686 94.7092C102.398 94.9123 102.174 95.1789 102.013 95.509V100.403H100.839V93.5349H101.95ZM109.605 91.8718V93.5349H110.887V94.4426H109.605V98.7018C109.605 98.9769 109.662 99.1843 109.776 99.3239C109.89 99.4593 110.085 99.527 110.36 99.527C110.496 99.527 110.682 99.5016 110.919 99.4509V100.403C110.61 100.488 110.309 100.53 110.017 100.53C109.493 100.53 109.097 100.371 108.83 100.054C108.564 99.7365 108.43 99.2858 108.43 98.7018V94.4426H107.18V93.5349H108.43V91.8718H109.605Z" fill="black"/>
<path d="M28.5897 132.753H31.1668V133.864H28.5897V136.784H27.409V133.864H24.8318V132.753H27.409V130.055H28.5897V132.753ZM36.6004 135.889C36.6004 135.572 36.4798 135.326 36.2386 135.153C36.0016 134.975 35.5848 134.823 34.9881 134.696C34.3957 134.569 33.9238 134.416 33.5726 134.239C33.2256 134.061 32.9674 133.849 32.7982 133.604C32.6331 133.358 32.5506 133.066 32.5506 132.728C32.5506 132.165 32.7876 131.689 33.2615 131.3C33.7397 130.91 34.3491 130.716 35.0897 130.716C35.8683 130.716 36.4988 130.917 36.9813 131.319C37.4679 131.721 37.7112 132.235 37.7112 132.861H36.5306C36.5306 132.539 36.393 132.262 36.118 132.03C35.8471 131.797 35.5044 131.68 35.0897 131.68C34.6623 131.68 34.3279 131.774 34.0867 131.96C33.8455 132.146 33.7249 132.389 33.7249 132.69C33.7249 132.973 33.8371 133.187 34.0613 133.331C34.2856 133.475 34.6898 133.612 35.2737 133.743C35.862 133.875 36.338 134.031 36.702 134.213C37.0659 134.395 37.3346 134.615 37.5081 134.873C37.6859 135.127 37.7747 135.438 37.7747 135.806C37.7747 136.42 37.5293 136.913 37.0384 137.285C36.5475 137.654 35.9106 137.838 35.1277 137.838C34.5776 137.838 34.091 137.74 33.6678 137.546C33.2446 137.351 32.9124 137.08 32.6712 136.733C32.4342 136.382 32.3157 136.003 32.3157 135.597H33.4901C33.5112 135.99 33.6678 136.304 33.9598 136.536C34.256 136.765 34.6453 136.879 35.1277 136.879C35.5721 136.879 35.9276 136.79 36.1942 136.613C36.465 136.431 36.6004 136.189 36.6004 135.889ZM40.8978 129.179V130.843H42.18V131.75H40.8978V136.01C40.8978 136.285 40.9549 136.492 41.0692 136.632C41.1834 136.767 41.3781 136.835 41.6531 136.835C41.7886 136.835 41.9748 136.809 42.2117 136.759V137.711C41.9028 137.795 41.6024 137.838 41.3104 137.838C40.7856 137.838 40.39 137.679 40.1234 137.362C39.8568 137.044 39.7234 136.594 39.7234 136.01V131.75H38.473V130.843H39.7234V129.179H40.8978ZM47.7977 137.711C47.73 137.575 47.6749 137.334 47.6326 136.987C47.0867 137.554 46.435 137.838 45.6776 137.838C45.0005 137.838 44.444 137.647 44.0081 137.266C43.5765 136.881 43.3607 136.395 43.3607 135.806C43.3607 135.091 43.6315 134.537 44.1732 134.143C44.7191 133.746 45.485 133.547 46.471 133.547H47.6136V133.007C47.6136 132.597 47.4909 132.271 47.2454 132.03C47 131.784 46.6382 131.661 46.16 131.661C45.741 131.661 45.3898 131.767 45.1063 131.979C44.8227 132.19 44.681 132.446 44.681 132.747H43.5003C43.5003 132.404 43.6209 132.074 43.8621 131.757C44.1076 131.435 44.4376 131.181 44.8524 130.995C45.2713 130.809 45.7304 130.716 46.2298 130.716C47.0211 130.716 47.6411 130.914 48.0897 131.312C48.5382 131.706 48.771 132.25 48.7879 132.944V136.105C48.7879 136.735 48.8683 137.237 49.0291 137.609V137.711H47.7977ZM45.8489 136.816C46.2171 136.816 46.5662 136.72 46.8963 136.53C47.2264 136.34 47.4655 136.092 47.6136 135.787V134.378H46.6932C45.2544 134.378 44.535 134.799 44.535 135.641C44.535 136.01 44.6577 136.297 44.9031 136.505C45.1486 136.712 45.4638 136.816 45.8489 136.816ZM53.9485 131.896C53.7708 131.867 53.5783 131.852 53.3709 131.852C52.6007 131.852 52.0781 132.18 51.803 132.836V137.711H50.6287V130.843H51.7713L51.7903 131.636C52.1754 131.022 52.7213 130.716 53.428 130.716C53.6566 130.716 53.8301 130.745 53.9485 130.804V131.896ZM56.9446 129.179V130.843H58.2269V131.75H56.9446V136.01C56.9446 136.285 57.0018 136.492 57.116 136.632C57.2303 136.767 57.4249 136.835 57.7 136.835C57.8354 136.835 58.0216 136.809 58.2586 136.759V137.711C57.9497 137.795 57.6492 137.838 57.3572 137.838C56.8325 137.838 56.4368 137.679 56.1702 137.362C55.9036 137.044 55.7703 136.594 55.7703 136.01V131.75H54.5198V130.843H55.7703V129.179H56.9446ZM65.0125 133.439H61.0071V136.714H65.66V137.711H59.7884V128.469H65.5965V129.471H61.0071V132.442H65.0125V133.439ZM68.1038 130.843L68.1419 131.706C68.6666 131.046 69.3522 130.716 70.1985 130.716C71.65 130.716 72.3821 131.534 72.3948 133.172V137.711H71.2205V133.166C71.2163 132.671 71.102 132.305 70.8777 132.068C70.6577 131.831 70.3128 131.712 69.8431 131.712C69.4622 131.712 69.1279 131.814 68.8401 132.017C68.5524 132.22 68.3281 132.487 68.1673 132.817V137.711H66.993V130.843H68.1038ZM73.8865 134.219C73.8865 133.149 74.1341 132.298 74.6292 131.668C75.1243 131.033 75.7803 130.716 76.597 130.716C77.4349 130.716 78.0887 131.012 78.5584 131.604L78.6155 130.843H79.6883V137.546C79.6883 138.434 79.4238 139.135 78.8948 139.647C78.3701 140.159 77.6634 140.415 76.7747 140.415C76.2796 140.415 75.7951 140.309 75.3211 140.097C74.8471 139.886 74.4853 139.596 74.2357 139.228L74.845 138.523C75.3486 139.145 75.9643 139.456 76.6922 139.456C77.2635 139.456 77.7078 139.296 78.0252 138.974C78.3468 138.652 78.5076 138.199 78.5076 137.615V137.025C78.0379 137.567 77.3968 137.838 76.5843 137.838C75.7803 137.838 75.1286 137.514 74.6292 136.866C74.1341 136.219 73.8865 135.337 73.8865 134.219ZM75.0672 134.353C75.0672 135.127 75.2259 135.737 75.5433 136.181C75.8607 136.621 76.305 136.841 76.8763 136.841C77.6168 136.841 78.1606 136.505 78.5076 135.832V132.696C78.1479 132.04 77.6084 131.712 76.889 131.712C76.3177 131.712 75.8712 131.934 75.5496 132.379C75.228 132.823 75.0672 133.481 75.0672 134.353ZM82.7415 137.711H81.5672V130.843H82.7415V137.711ZM81.472 129.021C81.472 128.83 81.5291 128.67 81.6434 128.538C81.7619 128.407 81.9354 128.342 82.1639 128.342C82.3924 128.342 82.5659 128.407 82.6844 128.538C82.8029 128.67 82.8621 128.83 82.8621 129.021C82.8621 129.211 82.8029 129.37 82.6844 129.497C82.5659 129.624 82.3924 129.687 82.1639 129.687C81.9354 129.687 81.7619 129.624 81.6434 129.497C81.5291 129.37 81.472 129.211 81.472 129.021ZM85.7376 130.843L85.7757 131.706C86.3004 131.046 86.986 130.716 87.8323 130.716C89.2838 130.716 90.0159 131.534 90.0286 133.172V137.711H88.8543V133.166C88.8501 132.671 88.7358 132.305 88.5115 132.068C88.2915 131.831 87.9466 131.712 87.4769 131.712C87.096 131.712 86.7617 131.814 86.4739 132.017C86.1862 132.22 85.9619 132.487 85.8011 132.817V137.711H84.6268V130.843H85.7376ZM94.6497 137.838C93.7187 137.838 92.9612 137.533 92.3773 136.924C91.7933 136.31 91.5013 135.491 91.5013 134.467V134.251C91.5013 133.57 91.6304 132.963 91.8885 132.429C92.1509 131.892 92.5148 131.473 92.9803 131.173C93.45 130.868 93.9578 130.716 94.5037 130.716C95.3966 130.716 96.0906 131.01 96.5858 131.598C97.0809 132.186 97.3284 133.028 97.3284 134.124V134.613H92.6756C92.6925 135.29 92.8893 135.838 93.2659 136.257C93.6468 136.672 94.1292 136.879 94.7132 136.879C95.1279 136.879 95.4791 136.795 95.7669 136.625C96.0547 136.456 96.3065 136.232 96.5223 135.952L97.2396 136.511C96.664 137.395 95.8008 137.838 94.6497 137.838ZM94.5037 131.68C94.0298 131.68 93.632 131.854 93.3104 132.201C92.9887 132.544 92.7899 133.026 92.7137 133.648H96.1541V133.559C96.1203 132.963 95.9595 132.501 95.6717 132.176C95.3839 131.845 94.9946 131.68 94.5037 131.68ZM98.6487 133.959C98.6487 133.003 98.7757 132.085 99.0296 131.204C99.2877 130.324 99.6707 129.524 100.179 128.805C100.686 128.086 101.213 127.578 101.759 127.282L102 128.056C101.382 128.53 100.875 129.254 100.477 130.227C100.083 131.2 99.8675 132.29 99.8294 133.496L99.8231 134.035C99.8231 135.669 100.121 137.087 100.718 138.288C101.078 139.008 101.505 139.571 102 139.977L101.759 140.694C101.196 140.381 100.659 139.856 100.147 139.12C99.1481 137.681 98.6487 135.961 98.6487 133.959ZM105.847 134.023C105.847 134.966 105.722 135.872 105.472 136.74C105.227 137.603 104.848 138.4 104.336 139.133C103.828 139.865 103.295 140.385 102.737 140.694L102.489 139.977C103.141 139.477 103.663 138.703 104.057 137.654C104.455 136.6 104.658 135.432 104.666 134.15V133.947C104.666 133.058 104.573 132.233 104.387 131.471C104.201 130.705 103.941 130.019 103.606 129.414C103.276 128.809 102.904 128.337 102.489 127.999L102.737 127.282C103.295 127.59 103.826 128.107 104.33 128.83C104.838 129.554 105.216 130.352 105.466 131.223C105.72 132.095 105.847 133.028 105.847 134.023ZM107.618 137.095C107.618 136.892 107.677 136.723 107.796 136.587C107.918 136.452 108.1 136.384 108.342 136.384C108.583 136.384 108.765 136.452 108.888 136.587C109.014 136.723 109.078 136.892 109.078 137.095C109.078 137.29 109.014 137.453 108.888 137.584C108.765 137.715 108.583 137.781 108.342 137.781C108.1 137.781 107.918 137.715 107.796 137.584C107.677 137.453 107.618 137.29 107.618 137.095ZM107.624 131.49C107.624 131.287 107.684 131.118 107.802 130.982C107.925 130.847 108.107 130.779 108.348 130.779C108.589 130.779 108.771 130.847 108.894 130.982C109.021 131.118 109.084 131.287 109.084 131.49C109.084 131.685 109.021 131.848 108.894 131.979C108.771 132.11 108.589 132.176 108.348 132.176C108.107 132.176 107.925 132.11 107.802 131.979C107.684 131.848 107.624 131.685 107.624 131.49ZM116.295 136.117L117.996 130.843H119.196L116.733 137.711H115.838L113.35 130.843H114.55L116.295 136.117ZM119.913 134.213C119.913 133.54 120.045 132.935 120.307 132.398C120.574 131.86 120.942 131.446 121.411 131.154C121.885 130.862 122.425 130.716 123.03 130.716C123.965 130.716 124.721 131.039 125.296 131.687C125.876 132.334 126.166 133.195 126.166 134.27V134.353C126.166 135.021 126.037 135.622 125.779 136.156C125.525 136.685 125.159 137.097 124.68 137.393C124.207 137.69 123.661 137.838 123.043 137.838C122.112 137.838 121.356 137.514 120.777 136.866C120.201 136.219 119.913 135.362 119.913 134.296V134.213ZM121.094 134.353C121.094 135.115 121.27 135.726 121.621 136.187C121.976 136.649 122.45 136.879 123.043 136.879C123.639 136.879 124.113 136.646 124.465 136.181C124.816 135.711 124.992 135.055 124.992 134.213C124.992 133.46 124.812 132.851 124.452 132.385C124.096 131.915 123.623 131.68 123.03 131.68C122.45 131.68 121.983 131.911 121.627 132.372C121.272 132.834 121.094 133.494 121.094 134.353ZM128.914 137.711H127.74V130.843H128.914V137.711ZM127.645 129.021C127.645 128.83 127.702 128.67 127.816 128.538C127.935 128.407 128.108 128.342 128.337 128.342C128.565 128.342 128.739 128.407 128.857 128.538C128.976 128.67 129.035 128.83 129.035 129.021C129.035 129.211 128.976 129.37 128.857 129.497C128.739 129.624 128.565 129.687 128.337 129.687C128.108 129.687 127.935 129.624 127.816 129.497C127.702 129.37 127.645 129.211 127.645 129.021ZM130.514 134.219C130.514 133.166 130.764 132.319 131.263 131.68C131.762 131.037 132.416 130.716 133.224 130.716C134.028 130.716 134.665 130.991 135.135 131.541V127.961H136.309V137.711H135.23L135.173 136.974C134.703 137.55 134.05 137.838 133.212 137.838C132.416 137.838 131.767 137.512 131.263 136.86C130.764 136.208 130.514 135.358 130.514 134.308V134.219ZM131.688 134.353C131.688 135.131 131.849 135.741 132.171 136.181C132.492 136.621 132.937 136.841 133.504 136.841C134.249 136.841 134.792 136.507 135.135 135.838V132.683C134.784 132.036 134.244 131.712 133.516 131.712C132.941 131.712 132.492 131.934 132.171 132.379C131.849 132.823 131.688 133.481 131.688 134.353Z" fill="black"/>
<path opacity="0.2" d="M313.133 300.084H27.5816V480.134H313.133V300.084Z" fill="#C0C0C0"/>
<path d="M301.776 288.729H16.2245V468.779H301.776V288.729Z" fill="white"/>
<path d="M16.2245 288.729H301.776V468.779H16.2245V288.729Z" stroke="black" stroke-miterlimit="10"/>
<path d="M16.2245 329.281H301.776" stroke="black" stroke-miterlimit="10"/>
<path d="M16.2245 345.502H301.776" stroke="black" stroke-miterlimit="10"/>
<path d="M141.653 311.273V302.03H144.89C146.012 302.03 146.862 302.246 147.442 302.678C148.022 303.105 148.312 303.734 148.312 304.563C148.312 305.016 148.195 305.416 147.963 305.763C147.73 306.106 147.406 306.357 146.991 306.518C147.465 306.637 147.838 306.876 148.109 307.235C148.384 307.595 148.521 308.035 148.521 308.556C148.521 309.444 148.238 310.117 147.671 310.574C147.104 311.031 146.295 311.264 145.246 311.273H141.653ZM143.557 307.248V309.743H145.189C145.637 309.743 145.986 309.637 146.236 309.425C146.49 309.21 146.617 308.913 146.617 308.537C146.617 307.69 146.179 307.261 145.303 307.248H143.557ZM143.557 305.902H144.967C145.927 305.886 146.407 305.503 146.407 304.754C146.407 304.335 146.285 304.034 146.039 303.852C145.798 303.666 145.415 303.573 144.89 303.573H143.557V305.902ZM153.948 310.574C153.496 311.124 152.869 311.4 152.07 311.4C151.333 311.4 150.77 311.188 150.381 310.765C149.996 310.342 149.799 309.722 149.791 308.905V304.404H151.625V308.841C151.625 309.557 151.951 309.914 152.603 309.914C153.225 309.914 153.652 309.698 153.885 309.267V304.404H155.726V311.273H153.999L153.948 310.574ZM160.829 309.375C160.829 309.15 160.717 308.975 160.493 308.848C160.273 308.717 159.917 308.6 159.427 308.499C157.793 308.156 156.976 307.462 156.976 306.417C156.976 305.807 157.228 305.299 157.732 304.893C158.24 304.483 158.902 304.277 159.719 304.277C160.59 304.277 161.286 304.483 161.807 304.893C162.332 305.304 162.594 305.837 162.594 306.493H160.76C160.76 306.23 160.675 306.015 160.506 305.845C160.336 305.672 160.072 305.585 159.712 305.585C159.403 305.585 159.164 305.655 158.995 305.795C158.826 305.934 158.741 306.112 158.741 306.328C158.741 306.531 158.836 306.696 159.027 306.823C159.221 306.946 159.547 307.053 160.004 307.147C160.461 307.235 160.846 307.337 161.159 307.451C162.128 307.807 162.613 308.422 162.613 309.298C162.613 309.925 162.344 310.433 161.807 310.822C161.269 311.207 160.575 311.4 159.725 311.4C159.149 311.4 158.637 311.298 158.189 311.095C157.744 310.887 157.395 310.606 157.141 310.251C156.887 309.891 156.76 309.504 156.76 309.089H158.5C158.517 309.415 158.637 309.664 158.862 309.838C159.086 310.011 159.386 310.098 159.763 310.098C160.114 310.098 160.379 310.033 160.556 309.901C160.738 309.766 160.829 309.59 160.829 309.375Z" fill="black"/>
<path d="M28.5897 359.843H31.1668V360.954H28.5897V363.874H27.409V360.954H24.8318V359.843H27.409V357.146H28.5897V359.843ZM36.6004 362.979C36.6004 362.662 36.4798 362.416 36.2386 362.243C36.0016 362.065 35.5848 361.913 34.9881 361.786C34.3957 361.659 33.9238 361.507 33.5726 361.329C33.2256 361.151 32.9674 360.94 32.7982 360.694C32.6331 360.449 32.5506 360.157 32.5506 359.818C32.5506 359.255 32.7876 358.779 33.2615 358.39C33.7397 358.001 34.3491 357.806 35.0897 357.806C35.8683 357.806 36.4988 358.007 36.9813 358.409C37.4679 358.811 37.7112 359.325 37.7112 359.951H36.5306C36.5306 359.63 36.393 359.353 36.118 359.12C35.8471 358.887 35.5044 358.771 35.0897 358.771C34.6623 358.771 34.3279 358.864 34.0867 359.05C33.8455 359.236 33.7249 359.48 33.7249 359.78C33.7249 360.064 33.8371 360.277 34.0613 360.421C34.2856 360.565 34.6898 360.703 35.2737 360.834C35.862 360.965 36.338 361.121 36.702 361.303C37.0659 361.485 37.3346 361.705 37.5081 361.964C37.6859 362.217 37.7747 362.529 37.7747 362.897C37.7747 363.51 37.5293 364.003 37.0384 364.376C36.5475 364.744 35.9106 364.928 35.1277 364.928C34.5776 364.928 34.091 364.831 33.6678 364.636C33.2446 364.441 32.9124 364.17 32.6712 363.823C32.4342 363.472 32.3157 363.093 32.3157 362.687H33.4901C33.5112 363.081 33.6678 363.394 33.9598 363.627C34.256 363.855 34.6453 363.969 35.1277 363.969C35.5721 363.969 35.9276 363.881 36.1942 363.703C36.465 363.521 36.6004 363.28 36.6004 362.979ZM42.1546 364.928C41.2236 364.928 40.4661 364.623 39.8821 364.014C39.2982 363.4 39.0062 362.581 39.0062 361.557V361.342C39.0062 360.66 39.1352 360.053 39.3934 359.52C39.6557 358.982 40.0197 358.563 40.4852 358.263C40.9549 357.958 41.4627 357.806 42.0086 357.806C42.9015 357.806 43.5955 358.1 44.0906 358.688C44.5858 359.276 44.8333 360.119 44.8333 361.215V361.703H40.1805C40.1974 362.38 40.3942 362.928 40.7708 363.347C41.1517 363.762 41.6341 363.969 42.2181 363.969C42.6328 363.969 42.984 363.885 43.2718 363.716C43.5595 363.546 43.8113 363.322 44.0272 363.043L44.7444 363.601C44.1689 364.486 43.3056 364.928 42.1546 364.928ZM42.0086 358.771C41.5346 358.771 41.1369 358.944 40.8152 359.291C40.4936 359.634 40.2947 360.116 40.2186 360.738H43.659V360.65C43.6251 360.053 43.4643 359.592 43.1766 359.266C42.8888 358.936 42.4995 358.771 42.0086 358.771ZM47.4739 364.801H46.2996V355.051H47.4739V364.801ZM50.6351 364.801H49.4608V355.051H50.6351V364.801ZM59.0901 356.562H56.1194V364.801H54.907V356.562H51.9427V355.559H59.0901V356.562ZM61.553 364.801H60.3787V357.933H61.553V364.801ZM60.2835 356.111C60.2835 355.921 60.3406 355.76 60.4549 355.629C60.5734 355.497 60.7469 355.432 60.9754 355.432C61.2039 355.432 61.3774 355.497 61.4959 355.629C61.6144 355.76 61.6736 355.921 61.6736 356.111C61.6736 356.301 61.6144 356.46 61.4959 356.587C61.3774 356.714 61.2039 356.778 60.9754 356.778C60.7469 356.778 60.5734 356.714 60.4549 356.587C60.3406 356.46 60.2835 356.301 60.2835 356.111ZM66.1932 363.969C66.6121 363.969 66.9782 363.842 67.2913 363.589C67.6045 363.335 67.778 363.017 67.8118 362.636H68.9227C68.9015 363.03 68.7661 363.405 68.5164 363.76C68.2667 364.115 67.9324 364.399 67.5135 364.611C67.0988 364.822 66.6587 364.928 66.1932 364.928C65.258 364.928 64.5132 364.617 63.9588 363.995C63.4087 363.369 63.1336 362.514 63.1336 361.43V361.234C63.1336 360.565 63.2563 359.97 63.5018 359.45C63.7472 358.929 64.0984 358.525 64.5555 358.238C65.0167 357.95 65.5605 357.806 66.1868 357.806C66.957 357.806 67.596 358.037 68.1038 358.498C68.6159 358.959 68.8888 359.558 68.9227 360.294H67.8118C67.778 359.85 67.6087 359.486 67.304 359.202C67.0036 358.915 66.6312 358.771 66.1868 358.771C65.5901 358.771 65.1268 358.987 64.7967 359.418C64.4708 359.846 64.3079 360.466 64.3079 361.278V361.5C64.3079 362.292 64.4708 362.901 64.7967 363.328C65.1225 363.756 65.588 363.969 66.1932 363.969ZM72.16 361.621L71.4236 362.389V364.801H70.2493V355.051H71.4236V360.948L72.0521 360.193L74.1912 357.933H75.6194L72.9471 360.802L75.9305 364.801H74.553L72.16 361.621ZM79.555 364.928C78.624 364.928 77.8665 364.623 77.2825 364.014C76.6985 363.4 76.4066 362.581 76.4066 361.557V361.342C76.4066 360.66 76.5356 360.053 76.7938 359.52C77.0561 358.982 77.4201 358.563 77.8856 358.263C78.3553 357.958 78.8631 357.806 79.409 357.806C80.3019 357.806 80.9959 358.1 81.491 358.688C81.9861 359.276 82.2337 360.119 82.2337 361.215V361.703H77.5809C77.5978 362.38 77.7946 362.928 78.1712 363.347C78.5521 363.762 79.0345 363.969 79.6185 363.969C80.0332 363.969 80.3844 363.885 80.6722 363.716C80.9599 363.546 81.2117 363.322 81.4276 363.043L82.1448 363.601C81.5693 364.486 80.706 364.928 79.555 364.928ZM79.409 358.771C78.935 358.771 78.5373 358.944 78.2156 359.291C77.894 359.634 77.6951 360.116 77.619 360.738H81.0594V360.65C81.0255 360.053 80.8647 359.592 80.577 359.266C80.2892 358.936 79.8999 358.771 79.409 358.771ZM85.1917 356.27V357.933H86.4739V358.841H85.1917V363.1C85.1917 363.375 85.2488 363.582 85.3631 363.722C85.4774 363.857 85.672 363.925 85.9471 363.925C86.0825 363.925 86.2687 363.9 86.5057 363.849V364.801C86.1968 364.886 85.8963 364.928 85.6043 364.928C85.0796 364.928 84.6839 364.769 84.4173 364.452C84.1507 364.134 84.0174 363.684 84.0174 363.1V358.841H82.7669V357.933H84.0174V356.27H85.1917ZM87.8069 361.05C87.8069 360.093 87.9339 359.175 88.1878 358.295C88.4459 357.414 88.8289 356.615 89.3367 355.895C89.8445 355.176 90.3714 354.668 90.9173 354.372L91.1585 355.146C90.5407 355.62 90.0329 356.344 89.6351 357.317C89.2415 358.29 89.0257 359.38 88.9876 360.586L88.9813 361.126C88.9813 362.759 89.2796 364.177 89.8763 365.379C90.236 366.098 90.6634 366.661 91.1585 367.067L90.9173 367.784C90.3545 367.471 89.817 366.947 89.305 366.21C88.3063 364.771 87.8069 363.051 87.8069 361.05ZM95.0052 361.113C95.0052 362.057 94.8804 362.962 94.6307 363.83C94.3852 364.693 94.0065 365.491 93.4944 366.223C92.9866 366.955 92.4534 367.475 91.8948 367.784L91.6473 367.067C92.299 366.568 92.8216 365.793 93.2151 364.744C93.6129 363.69 93.8161 362.522 93.8245 361.24V361.037C93.8245 360.148 93.7314 359.323 93.5452 358.561C93.359 357.795 93.0988 357.11 92.7645 356.505C92.4344 355.899 92.062 355.428 91.6473 355.089L91.8948 354.372C92.4534 354.681 92.9845 355.197 93.4881 355.921C93.9959 356.644 94.3747 357.442 94.6243 358.314C94.8782 359.185 95.0052 360.119 95.0052 361.113ZM96.7762 364.185C96.7762 363.982 96.8354 363.813 96.9539 363.677C97.0766 363.542 97.2586 363.474 97.4998 363.474C97.741 363.474 97.923 363.542 98.0457 363.677C98.1727 363.813 98.2361 363.982 98.2361 364.185C98.2361 364.38 98.1727 364.543 98.0457 364.674C97.923 364.805 97.741 364.871 97.4998 364.871C97.2586 364.871 97.0766 364.805 96.9539 364.674C96.8354 364.543 96.7762 364.38 96.7762 364.185ZM96.7825 358.58C96.7825 358.377 96.8418 358.208 96.9603 358.072C97.083 357.937 97.265 357.869 97.5062 357.869C97.7474 357.869 97.9293 357.937 98.0521 358.072C98.179 358.208 98.2425 358.377 98.2425 358.58C98.2425 358.775 98.179 358.938 98.0521 359.069C97.9293 359.2 97.7474 359.266 97.5062 359.266C97.265 359.266 97.083 359.2 96.9603 359.069C96.8418 358.938 96.7825 358.775 96.7825 358.58ZM105.453 363.208L107.155 357.933H108.354L105.891 364.801H104.996L102.508 357.933H103.708L105.453 363.208ZM109.072 361.303C109.072 360.631 109.203 360.025 109.465 359.488C109.732 358.951 110.1 358.536 110.57 358.244C111.044 357.952 111.583 357.806 112.188 357.806C113.124 357.806 113.879 358.13 114.454 358.777C115.034 359.425 115.324 360.286 115.324 361.361V361.443C115.324 362.112 115.195 362.713 114.937 363.246C114.683 363.775 114.317 364.187 113.839 364.484C113.365 364.78 112.819 364.928 112.201 364.928C111.27 364.928 110.515 364.604 109.935 363.957C109.359 363.309 109.072 362.452 109.072 361.386V361.303ZM110.252 361.443C110.252 362.205 110.428 362.816 110.779 363.278C111.135 363.739 111.609 363.969 112.201 363.969C112.798 363.969 113.272 363.737 113.623 363.271C113.974 362.801 114.15 362.146 114.15 361.303C114.15 360.55 113.97 359.941 113.61 359.475C113.255 359.006 112.781 358.771 112.188 358.771C111.609 358.771 111.141 359.001 110.785 359.463C110.43 359.924 110.252 360.584 110.252 361.443ZM118.073 364.801H116.898V357.933H118.073V364.801ZM116.803 356.111C116.803 355.921 116.86 355.76 116.974 355.629C117.093 355.497 117.266 355.432 117.495 355.432C117.723 355.432 117.897 355.497 118.015 355.629C118.134 355.76 118.193 355.921 118.193 356.111C118.193 356.301 118.134 356.46 118.015 356.587C117.897 356.714 117.723 356.778 117.495 356.778C117.266 356.778 117.093 356.714 116.974 356.587C116.86 356.46 116.803 356.301 116.803 356.111ZM119.672 361.31C119.672 360.256 119.922 359.41 120.421 358.771C120.921 358.127 121.574 357.806 122.383 357.806C123.187 357.806 123.824 358.081 124.293 358.631V355.051H125.468V364.801H124.388L124.331 364.065C123.862 364.64 123.208 364.928 122.37 364.928C121.574 364.928 120.925 364.602 120.421 363.95C119.922 363.299 119.672 362.448 119.672 361.399V361.31ZM120.846 361.443C120.846 362.222 121.007 362.831 121.329 363.271C121.651 363.711 122.095 363.931 122.662 363.931C123.407 363.931 123.951 363.597 124.293 362.928V359.774C123.942 359.126 123.402 358.802 122.675 358.802C122.099 358.802 121.651 359.025 121.329 359.469C121.007 359.913 120.846 360.571 120.846 361.443Z" fill="black"/>
<path d="M159 287.107V212.492" stroke="black" stroke-miterlimit="10"/>
<path d="M172.659 245.461L159 212.492L145.341 245.461" fill="white"/>
<path d="M172.659 245.461L159 212.492L145.341 245.461H172.659Z" stroke="black" stroke-miterlimit="10"/>
</svg>
