<svg width="571" height="386" viewBox="0 0 571 386" fill="none" xmlns="http://www.w3.org/2000/svg">
<path opacity="0.2" d="M402.529 21.8733H176.187V176.273H402.529V21.8733Z" fill="#C0C0C0"/>
<path d="M393.527 12.8667H167.185V167.267H393.527V12.8667Z" fill="white"/>
<path d="M167.185 12.8667H393.527V167.267H167.185V12.8667Z" stroke="black" stroke-miterlimit="10"/>
<path d="M167.185 45.0333H393.527" stroke="black" stroke-miterlimit="10"/>
<path d="M167.185 93.9267H393.527" stroke="black" stroke-miterlimit="10"/>
<path d="M256.599 29.9737V33.23H254.695V23.9878H258.301C258.995 23.9878 259.604 24.1148 260.129 24.3687C260.658 24.6226 261.064 24.9844 261.348 25.4541C261.631 25.9196 261.773 26.4507 261.773 27.0474C261.773 27.953 261.462 28.6682 260.84 29.1929C260.222 29.7134 259.365 29.9737 258.269 29.9737H256.599ZM256.599 28.4312H258.301C258.804 28.4312 259.187 28.3127 259.45 28.0757C259.716 27.8387 259.849 27.5002 259.849 27.0601C259.849 26.6073 259.716 26.2412 259.45 25.9619C259.183 25.6826 258.815 25.5388 258.345 25.5303H256.599V28.4312ZM266.038 33.357C265.031 33.357 264.21 33.048 263.576 32.4302C262.945 31.8124 262.63 30.9893 262.63 29.961V29.7832C262.63 29.0935 262.763 28.4777 263.03 27.9361C263.296 27.3902 263.673 26.9712 264.16 26.6792C264.65 26.383 265.209 26.2349 265.835 26.2349C266.775 26.2349 267.513 26.5311 268.051 27.1236C268.592 27.716 268.863 28.556 268.863 29.6436V30.3926H264.49C264.549 30.8412 264.727 31.2009 265.023 31.4717C265.323 31.7425 265.702 31.878 266.159 31.878C266.866 31.878 267.418 31.6219 267.816 31.1099L268.717 32.1192C268.442 32.5085 268.07 32.8132 267.6 33.0332C267.13 33.2491 266.61 33.357 266.038 33.357ZM265.829 27.7202C265.465 27.7202 265.169 27.843 264.94 28.0884C264.716 28.3339 264.572 28.6851 264.509 29.1421H267.06V28.9961C267.052 28.5899 266.942 28.2767 266.73 28.0567C266.519 27.8324 266.218 27.7202 265.829 27.7202ZM273.77 28.0821C273.52 28.0482 273.3 28.0313 273.11 28.0313C272.416 28.0313 271.961 28.2661 271.745 28.7359V33.23H269.91V26.3618H271.643L271.694 27.1807C272.062 26.5502 272.572 26.2349 273.224 26.2349C273.427 26.2349 273.618 26.2624 273.795 26.3174L273.77 28.0821ZM278.378 31.3321C278.378 31.1078 278.266 30.9322 278.042 30.8052C277.822 30.674 277.466 30.5576 276.975 30.4561C275.342 30.1133 274.525 29.4193 274.525 28.3741C274.525 27.7647 274.777 27.2569 275.281 26.8506C275.788 26.4401 276.451 26.2349 277.267 26.2349C278.139 26.2349 278.835 26.4401 279.356 26.8506C279.881 27.2611 280.143 27.7943 280.143 28.4502H278.308C278.308 28.1879 278.224 27.972 278.055 27.8028C277.885 27.6293 277.621 27.5425 277.261 27.5425C276.952 27.5425 276.713 27.6123 276.544 27.752C276.375 27.8916 276.29 28.0694 276.29 28.2852C276.29 28.4883 276.385 28.6534 276.576 28.7803C276.77 28.903 277.096 29.0109 277.553 29.104C278.01 29.1929 278.395 29.2945 278.708 29.4087C279.677 29.7642 280.162 30.3799 280.162 31.2559C280.162 31.8822 279.893 32.39 279.356 32.7793C278.818 33.1644 278.124 33.357 277.274 33.357C276.698 33.357 276.186 33.2554 275.738 33.0523C275.293 32.8449 274.944 32.5635 274.69 32.208C274.436 31.8483 274.309 31.4611 274.309 31.0464H276.049C276.066 31.3723 276.186 31.6219 276.41 31.7954C276.635 31.9689 276.935 32.0557 277.312 32.0557C277.663 32.0557 277.928 31.9901 278.105 31.8589C278.287 31.7235 278.378 31.5479 278.378 31.3321ZM281.063 29.7325C281.063 29.0511 281.195 28.4439 281.457 27.9107C281.719 27.3775 282.096 26.9649 282.587 26.6729C283.082 26.3809 283.655 26.2349 284.307 26.2349C285.234 26.2349 285.989 26.5184 286.573 27.0855C287.161 27.6525 287.489 28.4227 287.557 29.396L287.57 29.8658C287.57 30.9195 287.276 31.7658 286.687 32.4048C286.099 33.0396 285.31 33.357 284.32 33.357C283.329 33.357 282.538 33.0396 281.946 32.4048C281.357 31.7701 281.063 30.9068 281.063 29.815V29.7325ZM282.898 29.8658C282.898 30.5174 283.021 31.0168 283.266 31.3638C283.511 31.7066 283.863 31.878 284.32 31.878C284.764 31.878 285.111 31.7087 285.361 31.3701C285.61 31.0274 285.735 30.4815 285.735 29.7325C285.735 29.0935 285.61 28.5983 285.361 28.2471C285.111 27.8959 284.76 27.7202 284.307 27.7202C283.858 27.7202 283.511 27.8959 283.266 28.2471C283.021 28.5941 282.898 29.1337 282.898 29.8658ZM290.388 26.3618L290.445 27.1553C290.936 26.5417 291.594 26.2349 292.419 26.2349C293.147 26.2349 293.689 26.4486 294.044 26.876C294.4 27.3034 294.582 27.9424 294.59 28.793V33.23H292.756V28.8374C292.756 28.4481 292.671 28.1667 292.502 27.9932C292.333 27.8155 292.051 27.7266 291.658 27.7266C291.141 27.7266 290.754 27.9466 290.496 28.3867V33.23H288.661V26.3618H290.388Z" fill="black"/>
<path d="M176.947 59.3766H173.85V58.4181H176.947V59.3766ZM179.207 55.9552L179.245 56.8185C179.77 56.1583 180.456 55.8282 181.302 55.8282C182.753 55.8282 183.485 56.6471 183.498 58.2848V62.8233H182.324V58.2784C182.32 57.7833 182.205 57.4172 181.981 57.1803C181.761 56.9433 181.416 56.8248 180.946 56.8248C180.566 56.8248 180.231 56.9264 179.943 57.1295C179.656 57.3326 179.431 57.5992 179.271 57.9293V62.8233H178.096V55.9552H179.207ZM189.509 62.8233C189.442 62.6879 189.387 62.4467 189.344 62.0997C188.798 62.6668 188.147 62.9503 187.389 62.9503C186.712 62.9503 186.156 62.7599 185.72 62.379C185.288 61.9939 185.072 61.5073 185.072 60.919C185.072 60.2039 185.343 59.6495 185.885 59.256C186.431 58.8582 187.197 58.6593 188.183 58.6593H189.325V58.1197C189.325 57.7092 189.203 57.3834 188.957 57.1422C188.712 56.8967 188.35 56.774 187.872 56.774C187.453 56.774 187.102 56.8798 186.818 57.0914C186.534 57.303 186.393 57.559 186.393 57.8595H185.212C185.212 57.5167 185.333 57.1866 185.574 56.8692C185.819 56.5476 186.149 56.2937 186.564 56.1075C186.983 55.9213 187.442 55.8282 187.942 55.8282C188.733 55.8282 189.353 56.0271 189.801 56.4249C190.25 56.8185 190.483 57.3622 190.5 58.0562V61.2174C190.5 61.8479 190.58 62.3494 190.741 62.7218V62.8233H189.509ZM187.561 61.9283C187.929 61.9283 188.278 61.8331 188.608 61.6427C188.938 61.4522 189.177 61.2047 189.325 60.9V59.4908H188.405C186.966 59.4908 186.247 59.9119 186.247 60.754C186.247 61.1222 186.369 61.4099 186.615 61.6173C186.86 61.8246 187.176 61.9283 187.561 61.9283ZM193.445 55.9552L193.477 56.7169C193.98 56.1244 194.659 55.8282 195.514 55.8282C196.475 55.8282 197.129 56.1964 197.476 56.9327C197.704 56.6026 198 56.336 198.364 56.1329C198.733 55.9298 199.166 55.8282 199.666 55.8282C201.172 55.8282 201.938 56.6259 201.964 58.2213V62.8233H200.789V58.2911C200.789 57.8002 200.677 57.4342 200.453 57.193C200.228 56.9475 199.852 56.8248 199.323 56.8248C198.887 56.8248 198.525 56.956 198.237 57.2184C197.95 57.4765 197.783 57.8256 197.736 58.2657V62.8233H196.555V58.3228C196.555 57.3241 196.067 56.8248 195.089 56.8248C194.319 56.8248 193.792 57.1528 193.508 57.8087V62.8233H192.334V55.9552H193.445ZM206.591 62.9503C205.66 62.9503 204.902 62.6456 204.318 62.0362C203.734 61.4226 203.443 60.6038 203.443 59.5797V59.3639C203.443 58.6825 203.572 58.0753 203.83 57.5421C204.092 57.0046 204.456 56.5857 204.922 56.2852C205.391 55.9806 205.899 55.8282 206.445 55.8282C207.338 55.8282 208.032 56.1223 208.527 56.7105C209.022 57.2988 209.27 58.1409 209.27 59.2369V59.7257H204.617C204.634 60.4028 204.831 60.9508 205.207 61.3697C205.588 61.7844 206.07 61.9918 206.654 61.9918C207.069 61.9918 207.42 61.9072 207.708 61.7379C207.996 61.5686 208.248 61.3443 208.464 61.065L209.181 61.6236C208.605 62.5081 207.742 62.9503 206.591 62.9503ZM206.445 56.7931C205.971 56.7931 205.573 56.9666 205.252 57.3136C204.93 57.6563 204.731 58.1388 204.655 58.7608H208.095V58.672C208.061 58.0753 207.901 57.614 207.613 57.2882C207.325 56.9581 206.936 56.7931 206.445 56.7931ZM210.596 62.2076C210.596 62.0045 210.656 61.8352 210.774 61.6998C210.897 61.5644 211.079 61.4967 211.32 61.4967C211.561 61.4967 211.743 61.5644 211.866 61.6998C211.993 61.8352 212.056 62.0045 212.056 62.2076C212.056 62.4023 211.993 62.5652 211.866 62.6964C211.743 62.8276 211.561 62.8932 211.32 62.8932C211.079 62.8932 210.897 62.8276 210.774 62.6964C210.656 62.5652 210.596 62.4023 210.596 62.2076ZM210.603 56.6026C210.603 56.3995 210.662 56.2302 210.78 56.0948C210.903 55.9594 211.085 55.8917 211.326 55.8917C211.568 55.8917 211.749 55.9594 211.872 56.0948C211.999 56.2302 212.063 56.3995 212.063 56.6026C212.063 56.7973 211.999 56.9602 211.872 57.0914C211.749 57.2226 211.568 57.2882 211.326 57.2882C211.085 57.2882 210.903 57.2226 210.78 57.0914C210.662 56.9602 210.603 56.7973 210.603 56.6026ZM221.006 61.0016C221.006 60.6842 220.886 60.4387 220.645 60.2652C220.408 60.0875 219.991 59.9352 219.394 59.8082C218.802 59.6812 218.33 59.5289 217.979 59.3512C217.632 59.1734 217.373 58.9618 217.204 58.7164C217.039 58.471 216.957 58.179 216.957 57.8404C216.957 57.2776 217.194 56.8015 217.668 56.4122C218.146 56.0229 218.755 55.8282 219.496 55.8282C220.274 55.8282 220.905 56.0292 221.387 56.4312C221.874 56.8333 222.117 57.3474 222.117 57.9737H220.937C220.937 57.6521 220.799 57.3749 220.524 57.1422C220.253 56.9094 219.91 56.7931 219.496 56.7931C219.068 56.7931 218.734 56.8862 218.493 57.0724C218.252 57.2586 218.131 57.5019 218.131 57.8023C218.131 58.0859 218.243 58.2996 218.467 58.4435C218.692 58.5873 219.096 58.7249 219.68 58.856C220.268 58.9872 220.744 59.1438 221.108 59.3258C221.472 59.5077 221.741 59.7278 221.914 59.9859C222.092 60.2398 222.181 60.5509 222.181 60.919C222.181 61.5326 221.935 62.0256 221.444 62.398C220.954 62.7662 220.317 62.9503 219.534 62.9503C218.984 62.9503 218.497 62.853 218.074 62.6583C217.651 62.4636 217.318 62.1928 217.077 61.8458C216.84 61.4946 216.722 61.1158 216.722 60.7096H217.896C217.917 61.1031 218.074 61.4163 218.366 61.649C218.662 61.8775 219.051 61.9918 219.534 61.9918C219.978 61.9918 220.334 61.9029 220.6 61.7252C220.871 61.5432 221.006 61.302 221.006 61.0016ZM225.304 54.2921V55.9552H226.586V56.8629H225.304V61.1222C225.304 61.3972 225.361 61.6046 225.475 61.7442C225.589 61.8796 225.784 61.9474 226.059 61.9474C226.195 61.9474 226.381 61.922 226.618 61.8712V62.8233C226.309 62.908 226.008 62.9503 225.716 62.9503C225.192 62.9503 224.796 62.7916 224.529 62.4742C224.263 62.1568 224.13 61.7061 224.13 61.1222V56.8629H222.879V55.9552H224.13V54.2921H225.304ZM231.283 57.0089C231.106 56.9793 230.913 56.9644 230.706 56.9644C229.936 56.9644 229.413 57.2924 229.138 57.9483V62.8233H227.964V55.9552H229.106L229.125 56.7486C229.51 56.135 230.056 55.8282 230.763 55.8282C230.991 55.8282 231.165 55.8578 231.283 55.9171V57.0089ZM233.645 62.8233H232.47V55.9552H233.645V62.8233ZM232.375 54.1334C232.375 53.943 232.432 53.7822 232.547 53.651C232.665 53.5198 232.839 53.4542 233.067 53.4542C233.296 53.4542 233.469 53.5198 233.588 53.651C233.706 53.7822 233.765 53.943 233.765 54.1334C233.765 54.3238 233.706 54.4825 233.588 54.6095C233.469 54.7364 233.296 54.7999 233.067 54.7999C232.839 54.7999 232.665 54.7364 232.547 54.6095C232.432 54.4825 232.375 54.3238 232.375 54.1334ZM236.641 55.9552L236.679 56.8185C237.204 56.1583 237.889 55.8282 238.735 55.8282C240.187 55.8282 240.919 56.6471 240.932 58.2848V62.8233H239.757V58.2784C239.753 57.7833 239.639 57.4172 239.415 57.1803C239.195 56.9433 238.85 56.8248 238.38 56.8248C237.999 56.8248 237.665 56.9264 237.377 57.1295C237.089 57.3326 236.865 57.5992 236.704 57.9293V62.8233H235.53V55.9552H236.641ZM242.423 59.3321C242.423 58.2615 242.671 57.4109 243.166 56.7804C243.661 56.1456 244.317 55.8282 245.134 55.8282C245.972 55.8282 246.626 56.1244 247.095 56.7169L247.152 55.9552H248.225V62.6583C248.225 63.547 247.961 64.2473 247.432 64.7594C246.907 65.2714 246.2 65.5274 245.312 65.5274C244.817 65.5274 244.332 65.4216 243.858 65.2101C243.384 64.9985 243.022 64.7086 242.773 64.3404L243.382 63.6358C243.886 64.2579 244.501 64.5689 245.229 64.5689C245.8 64.5689 246.245 64.4081 246.562 64.0865C246.884 63.7649 247.045 63.3121 247.045 62.7281V62.1378C246.575 62.6795 245.934 62.9503 245.121 62.9503C244.317 62.9503 243.665 62.6266 243.166 61.9791C242.671 61.3316 242.423 60.4493 242.423 59.3321ZM243.604 59.4654C243.604 60.2398 243.763 60.8492 244.08 61.2935C244.398 61.7337 244.842 61.9537 245.413 61.9537C246.154 61.9537 246.698 61.6173 247.045 60.9444V57.8087C246.685 57.1528 246.145 56.8248 245.426 56.8248C244.855 56.8248 244.408 57.047 244.087 57.4913C243.765 57.9356 243.604 58.5937 243.604 59.4654Z" fill="black"/>
<path d="M176.947 78.6766H173.85V77.7181H176.947V78.6766ZM182.337 82.1233C182.269 81.9879 182.214 81.7467 182.172 81.3997C181.626 81.9668 180.974 82.2503 180.216 82.2503C179.539 82.2503 178.983 82.0599 178.547 81.679C178.115 81.2939 177.9 80.8073 177.9 80.219C177.9 79.5039 178.17 78.9495 178.712 78.556C179.258 78.1582 180.024 77.9593 181.01 77.9593H182.152V77.4197C182.152 77.0092 182.03 76.6834 181.784 76.4422C181.539 76.1967 181.177 76.074 180.699 76.074C180.28 76.074 179.929 76.1798 179.645 76.3914C179.362 76.603 179.22 76.859 179.22 77.1595H178.039C178.039 76.8167 178.16 76.4866 178.401 76.1692C178.646 75.8476 178.977 75.5937 179.391 75.4075C179.81 75.2213 180.269 75.1282 180.769 75.1282C181.56 75.1282 182.18 75.3271 182.629 75.7249C183.077 76.1185 183.31 76.6622 183.327 77.3562V80.5174C183.327 81.1479 183.407 81.6494 183.568 82.0218V82.1233H182.337ZM180.388 81.2283C180.756 81.2283 181.105 81.1331 181.435 80.9427C181.765 80.7522 182.004 80.5047 182.152 80.2V78.7908H181.232C179.793 78.7908 179.074 79.2119 179.074 80.054C179.074 80.4222 179.197 80.7099 179.442 80.9173C179.687 81.1246 180.003 81.2283 180.388 81.2283ZM186.443 82.1233H185.269V72.3733H186.443V82.1233ZM189.922 73.5921V75.2552H191.204V76.1629H189.922V80.4222C189.922 80.6972 189.979 80.9046 190.093 81.0442C190.208 81.1797 190.402 81.2474 190.677 81.2474C190.813 81.2474 190.999 81.222 191.236 81.1712V82.1233C190.927 82.208 190.627 82.2503 190.335 82.2503C189.81 82.2503 189.414 82.0916 189.148 81.7742C188.881 81.4568 188.748 81.0061 188.748 80.4222V76.1629H187.497V75.2552H188.748V73.5921H189.922ZM195.432 82.2503C194.501 82.2503 193.743 81.9456 193.159 81.3362C192.575 80.7226 192.283 79.9038 192.283 78.8797V78.6639C192.283 77.9825 192.412 77.3753 192.671 76.8421C192.933 76.3047 193.297 75.8857 193.762 75.5853C194.232 75.2806 194.74 75.1282 195.286 75.1282C196.179 75.1282 196.873 75.4223 197.368 76.0105C197.863 76.5988 198.11 77.4409 198.11 78.5369V79.0257H193.458C193.475 79.7028 193.671 80.2508 194.048 80.6697C194.429 81.0844 194.911 81.2918 195.495 81.2918C195.91 81.2918 196.261 81.2072 196.549 81.0379C196.837 80.8686 197.089 80.6443 197.304 80.365L198.022 80.9236C197.446 81.8081 196.583 82.2503 195.432 82.2503ZM195.286 76.0931C194.812 76.0931 194.414 76.2666 194.092 76.6136C193.771 76.9563 193.572 77.4388 193.496 78.0608H196.936V77.972C196.902 77.3753 196.741 76.914 196.454 76.5882C196.166 76.2581 195.777 76.0931 195.286 76.0931ZM202.795 76.3089C202.617 76.2793 202.425 76.2645 202.217 76.2645C201.447 76.2645 200.925 76.5924 200.65 77.2483V82.1233H199.475V75.2552H200.618L200.637 76.0486C201.022 75.435 201.568 75.1282 202.275 75.1282C202.503 75.1282 202.677 75.1578 202.795 75.2171V76.3089ZM203.842 81.5076C203.842 81.3045 203.902 81.1352 204.02 80.9998C204.143 80.8644 204.325 80.7967 204.566 80.7967C204.807 80.7967 204.989 80.8644 205.112 80.9998C205.239 81.1352 205.302 81.3045 205.302 81.5076C205.302 81.7023 205.239 81.8652 205.112 81.9964C204.989 82.1276 204.807 82.1932 204.566 82.1932C204.325 82.1932 204.143 82.1276 204.02 81.9964C203.902 81.8652 203.842 81.7023 203.842 81.5076ZM203.849 75.9026C203.849 75.6995 203.908 75.5302 204.026 75.3948C204.149 75.2594 204.331 75.1917 204.572 75.1917C204.814 75.1917 204.996 75.2594 205.118 75.3948C205.245 75.5302 205.309 75.6995 205.309 75.9026C205.309 76.0973 205.245 76.2602 205.118 76.3914C204.996 76.5226 204.814 76.5882 204.572 76.5882C204.331 76.5882 204.149 76.5226 204.026 76.3914C203.908 76.2602 203.849 76.0973 203.849 75.9026ZM211.529 82.1233H210.355V75.2552H211.529V82.1233ZM210.26 73.4334C210.26 73.243 210.317 73.0822 210.431 72.951C210.55 72.8198 210.723 72.7542 210.952 72.7542C211.18 72.7542 211.354 72.8198 211.472 72.951C211.591 73.0822 211.65 73.243 211.65 73.4334C211.65 73.6238 211.591 73.7825 211.472 73.9095C211.354 74.0364 211.18 74.0999 210.952 74.0999C210.723 74.0999 210.55 74.0364 210.431 73.9095C210.317 73.7825 210.26 73.6238 210.26 73.4334ZM214.526 75.2552L214.564 76.1185C215.088 75.4583 215.774 75.1282 216.62 75.1282C218.072 75.1282 218.804 75.9471 218.817 77.5848V82.1233H217.642V77.5784C217.638 77.0833 217.524 76.7172 217.299 76.4803C217.079 76.2433 216.734 76.1248 216.265 76.1248C215.884 76.1248 215.55 76.2264 215.262 76.4295C214.974 76.6326 214.75 76.8992 214.589 77.2293V82.1233H213.415V75.2552H214.526ZM222.181 73.5921V75.2552H223.463V76.1629H222.181V80.4222C222.181 80.6972 222.238 80.9046 222.352 81.0442C222.466 81.1797 222.661 81.2474 222.936 81.2474C223.072 81.2474 223.258 81.222 223.495 81.1712V82.1233C223.186 82.208 222.885 82.2503 222.593 82.2503C222.069 82.2503 221.673 82.0916 221.406 81.7742C221.14 81.4568 221.006 81.0061 221.006 80.4222V76.1629H219.756V75.2552H221.006V73.5921H222.181Z" fill="black"/>
<path d="M177.868 106.759H180.445V107.87H177.868V110.79H176.687V107.87H174.11V106.759H176.687V104.061H177.868V106.759ZM185.879 109.895C185.879 109.578 185.758 109.332 185.517 109.159C185.28 108.981 184.863 108.828 184.266 108.702C183.674 108.575 183.202 108.422 182.851 108.245C182.504 108.067 182.246 107.855 182.076 107.61C181.911 107.364 181.829 107.072 181.829 106.734C181.829 106.171 182.066 105.695 182.54 105.306C183.018 104.916 183.627 104.722 184.368 104.722C185.146 104.722 185.777 104.923 186.259 105.325C186.746 105.727 186.989 106.241 186.989 106.867H185.809C185.809 106.545 185.671 106.268 185.396 106.036C185.125 105.803 184.783 105.686 184.368 105.686C183.94 105.686 183.606 105.78 183.365 105.966C183.124 106.152 183.003 106.395 183.003 106.696C183.003 106.979 183.115 107.193 183.339 107.337C183.564 107.481 183.968 107.618 184.552 107.749C185.14 107.881 185.616 108.037 185.98 108.219C186.344 108.401 186.613 108.621 186.786 108.879C186.964 109.133 187.053 109.444 187.053 109.812C187.053 110.426 186.807 110.919 186.317 111.291C185.826 111.66 185.189 111.844 184.406 111.844C183.856 111.844 183.369 111.746 182.946 111.552C182.523 111.357 182.191 111.086 181.949 110.739C181.712 110.388 181.594 110.009 181.594 109.603H182.768C182.789 109.996 182.946 110.31 183.238 110.542C183.534 110.771 183.923 110.885 184.406 110.885C184.85 110.885 185.206 110.796 185.472 110.619C185.743 110.437 185.879 110.195 185.879 109.895ZM194.384 108.359C194.384 109.404 194.145 110.246 193.667 110.885C193.189 111.524 192.541 111.844 191.725 111.844C190.891 111.844 190.235 111.579 189.757 111.05V114.357H188.583V104.849H189.655L189.713 105.61C190.191 105.018 190.855 104.722 191.706 104.722C192.531 104.722 193.183 105.033 193.661 105.655C194.143 106.277 194.384 107.142 194.384 108.251V108.359ZM193.21 108.225C193.21 107.451 193.045 106.84 192.715 106.391C192.385 105.942 191.932 105.718 191.357 105.718C190.646 105.718 190.112 106.033 189.757 106.664V109.946C190.108 110.572 190.646 110.885 191.369 110.885C191.932 110.885 192.379 110.663 192.709 110.219C193.043 109.77 193.21 109.106 193.21 108.225ZM198.733 111.844C197.802 111.844 197.044 111.539 196.46 110.93C195.876 110.316 195.584 109.497 195.584 108.473V108.257C195.584 107.576 195.713 106.969 195.971 106.435C196.234 105.898 196.598 105.479 197.063 105.179C197.533 104.874 198.041 104.722 198.587 104.722C199.479 104.722 200.173 105.016 200.669 105.604C201.164 106.192 201.411 107.034 201.411 108.13V108.619H196.758C196.775 109.296 196.972 109.844 197.349 110.263C197.73 110.678 198.212 110.885 198.796 110.885C199.211 110.885 199.562 110.8 199.85 110.631C200.137 110.462 200.389 110.238 200.605 109.958L201.322 110.517C200.747 111.401 199.884 111.844 198.733 111.844ZM198.587 105.686C198.113 105.686 197.715 105.86 197.393 106.207C197.072 106.55 196.873 107.032 196.797 107.654H200.237V107.565C200.203 106.969 200.042 106.507 199.755 106.182C199.467 105.851 199.077 105.686 198.587 105.686ZM207.016 111.717C206.949 111.581 206.894 111.34 206.851 110.993C206.305 111.56 205.654 111.844 204.896 111.844C204.219 111.844 203.663 111.653 203.227 111.272C202.795 110.887 202.579 110.401 202.579 109.812C202.579 109.097 202.85 108.543 203.392 108.149C203.938 107.752 204.704 107.553 205.69 107.553H206.832V107.013C206.832 106.603 206.709 106.277 206.464 106.036C206.219 105.79 205.857 105.667 205.379 105.667C204.96 105.667 204.608 105.773 204.325 105.985C204.041 106.196 203.9 106.452 203.9 106.753H202.719C202.719 106.41 202.839 106.08 203.081 105.763C203.326 105.441 203.656 105.187 204.071 105.001C204.49 104.815 204.949 104.722 205.448 104.722C206.24 104.722 206.86 104.92 207.308 105.318C207.757 105.712 207.99 106.256 208.006 106.95V110.111C208.006 110.741 208.087 111.243 208.248 111.615V111.717H207.016ZM205.068 110.822C205.436 110.822 205.785 110.726 206.115 110.536C206.445 110.346 206.684 110.098 206.832 109.793V108.384H205.912C204.473 108.384 203.754 108.805 203.754 109.647C203.754 110.016 203.876 110.303 204.122 110.511C204.367 110.718 204.682 110.822 205.068 110.822ZM211.764 108.536L211.028 109.305V111.717H209.854V101.967H211.028V107.864L211.656 107.108L213.796 104.849H215.224L212.551 107.718L215.535 111.717H214.157L211.764 108.536ZM216.392 107.965C216.392 107.009 216.519 106.091 216.773 105.21C217.031 104.33 217.414 103.53 217.922 102.811C218.429 102.092 218.956 101.584 219.502 101.287L219.743 102.062C219.125 102.536 218.618 103.259 218.22 104.233C217.826 105.206 217.61 106.296 217.572 107.502L217.566 108.041C217.566 109.675 217.864 111.092 218.461 112.294C218.821 113.014 219.248 113.577 219.743 113.983L219.502 114.7C218.939 114.387 218.402 113.862 217.89 113.126C216.891 111.687 216.392 109.967 216.392 107.965ZM223.59 108.029C223.59 108.972 223.465 109.878 223.215 110.745C222.97 111.609 222.591 112.406 222.079 113.139C221.571 113.871 221.038 114.391 220.48 114.7L220.232 113.983C220.884 113.483 221.406 112.709 221.8 111.66C222.198 110.606 222.401 109.438 222.409 108.156V107.953C222.409 107.064 222.316 106.239 222.13 105.477C221.944 104.711 221.684 104.025 221.349 103.42C221.019 102.815 220.647 102.343 220.232 102.005L220.48 101.287C221.038 101.596 221.569 102.113 222.073 102.836C222.581 103.56 222.959 104.358 223.209 105.229C223.463 106.101 223.59 107.034 223.59 108.029ZM225.361 111.101C225.361 110.898 225.42 110.729 225.539 110.593C225.661 110.458 225.843 110.39 226.085 110.39C226.326 110.39 226.508 110.458 226.63 110.593C226.757 110.729 226.821 110.898 226.821 111.101C226.821 111.296 226.757 111.459 226.63 111.59C226.508 111.721 226.326 111.786 226.085 111.786C225.843 111.786 225.661 111.721 225.539 111.59C225.42 111.459 225.361 111.296 225.361 111.101ZM225.367 105.496C225.367 105.293 225.427 105.124 225.545 104.988C225.668 104.853 225.85 104.785 226.091 104.785C226.332 104.785 226.514 104.853 226.637 104.988C226.764 105.124 226.827 105.293 226.827 105.496C226.827 105.691 226.764 105.854 226.637 105.985C226.514 106.116 226.332 106.182 226.091 106.182C225.85 106.182 225.668 106.116 225.545 105.985C225.427 105.854 225.367 105.691 225.367 105.496ZM234.038 110.123L235.739 104.849H236.939L234.476 111.717H233.581L231.093 104.849H232.293L234.038 110.123ZM237.656 108.219C237.656 107.546 237.788 106.941 238.05 106.404C238.317 105.866 238.685 105.452 239.154 105.16C239.628 104.868 240.168 104.722 240.773 104.722C241.708 104.722 242.464 105.045 243.039 105.693C243.619 106.34 243.909 107.201 243.909 108.276V108.359C243.909 109.027 243.78 109.628 243.522 110.161C243.268 110.69 242.902 111.103 242.423 111.399C241.95 111.696 241.404 111.844 240.786 111.844C239.855 111.844 239.099 111.52 238.52 110.872C237.944 110.225 237.656 109.368 237.656 108.302V108.219ZM238.837 108.359C238.837 109.12 239.013 109.732 239.364 110.193C239.719 110.655 240.193 110.885 240.786 110.885C241.382 110.885 241.856 110.652 242.208 110.187C242.559 109.717 242.734 109.061 242.734 108.219C242.734 107.466 242.555 106.856 242.195 106.391C241.839 105.921 241.366 105.686 240.773 105.686C240.193 105.686 239.726 105.917 239.37 106.378C239.015 106.84 238.837 107.5 238.837 108.359ZM246.657 111.717H245.483V104.849H246.657V111.717ZM245.388 103.027C245.388 102.836 245.445 102.675 245.559 102.544C245.678 102.413 245.851 102.348 246.08 102.348C246.308 102.348 246.482 102.413 246.6 102.544C246.719 102.675 246.778 102.836 246.778 103.027C246.778 103.217 246.719 103.376 246.6 103.503C246.482 103.63 246.308 103.693 246.08 103.693C245.851 103.693 245.678 103.63 245.559 103.503C245.445 103.376 245.388 103.217 245.388 103.027ZM248.257 108.225C248.257 107.172 248.507 106.325 249.006 105.686C249.505 105.043 250.159 104.722 250.967 104.722C251.771 104.722 252.408 104.997 252.878 105.547V101.967H254.052V111.717H252.973L252.916 110.98C252.446 111.556 251.793 111.844 250.955 111.844C250.159 111.844 249.51 111.518 249.006 110.866C248.507 110.214 248.257 109.364 248.257 108.314V108.225ZM249.431 108.359C249.431 109.137 249.592 109.747 249.914 110.187C250.235 110.627 250.68 110.847 251.247 110.847C251.991 110.847 252.535 110.513 252.878 109.844V106.689C252.527 106.042 251.987 105.718 251.259 105.718C250.684 105.718 250.235 105.94 249.914 106.385C249.592 106.829 249.431 107.487 249.431 108.359Z" fill="black"/>
<path d="M177.868 126.059H180.445V127.17H177.868V130.09H176.687V127.17H174.11V126.059H176.687V123.361H177.868V126.059ZM185.879 129.195C185.879 128.878 185.758 128.632 185.517 128.459C185.28 128.281 184.863 128.128 184.266 128.002C183.674 127.875 183.202 127.722 182.851 127.545C182.504 127.367 182.246 127.155 182.076 126.91C181.911 126.664 181.829 126.372 181.829 126.034C181.829 125.471 182.066 124.995 182.54 124.606C183.018 124.216 183.627 124.022 184.368 124.022C185.146 124.022 185.777 124.223 186.259 124.625C186.746 125.027 186.989 125.541 186.989 126.167H185.809C185.809 125.845 185.671 125.568 185.396 125.336C185.125 125.103 184.783 124.986 184.368 124.986C183.94 124.986 183.606 125.079 183.365 125.266C183.124 125.452 183.003 125.695 183.003 125.996C183.003 126.279 183.115 126.493 183.339 126.637C183.564 126.781 183.968 126.918 184.552 127.049C185.14 127.181 185.616 127.337 185.98 127.519C186.344 127.701 186.613 127.921 186.786 128.179C186.964 128.433 187.053 128.744 187.053 129.112C187.053 129.726 186.807 130.219 186.317 130.591C185.826 130.96 185.189 131.144 184.406 131.144C183.856 131.144 183.369 131.046 182.946 130.852C182.523 130.657 182.191 130.386 181.949 130.039C181.712 129.688 181.594 129.309 181.594 128.903H182.768C182.789 129.296 182.946 129.61 183.238 129.842C183.534 130.071 183.923 130.185 184.406 130.185C184.85 130.185 185.206 130.096 185.472 129.919C185.743 129.737 185.879 129.495 185.879 129.195ZM189.859 131.017H188.684V121.267H189.859V131.017ZM194.594 131.144C193.663 131.144 192.905 130.839 192.321 130.23C191.737 129.616 191.445 128.797 191.445 127.773V127.557C191.445 126.876 191.575 126.269 191.833 125.735C192.095 125.198 192.459 124.779 192.924 124.479C193.394 124.174 193.902 124.022 194.448 124.022C195.341 124.022 196.035 124.316 196.53 124.904C197.025 125.492 197.273 126.334 197.273 127.43V127.919H192.62C192.637 128.596 192.833 129.144 193.21 129.563C193.591 129.978 194.073 130.185 194.657 130.185C195.072 130.185 195.423 130.1 195.711 129.931C195.999 129.762 196.251 129.538 196.466 129.258L197.184 129.817C196.608 130.701 195.745 131.144 194.594 131.144ZM194.448 124.986C193.974 124.986 193.576 125.16 193.255 125.507C192.933 125.85 192.734 126.332 192.658 126.954H196.098V126.865C196.064 126.269 195.904 125.807 195.616 125.482C195.328 125.151 194.939 124.986 194.448 124.986ZM201.487 131.144C200.556 131.144 199.799 130.839 199.215 130.23C198.631 129.616 198.339 128.797 198.339 127.773V127.557C198.339 126.876 198.468 126.269 198.726 125.735C198.989 125.198 199.352 124.779 199.818 124.479C200.288 124.174 200.796 124.022 201.341 124.022C202.234 124.022 202.928 124.316 203.423 124.904C203.919 125.492 204.166 126.334 204.166 127.43V127.919H199.513C199.53 128.596 199.727 129.144 200.104 129.563C200.484 129.978 200.967 130.185 201.551 130.185C201.966 130.185 202.317 130.1 202.605 129.931C202.892 129.762 203.144 129.538 203.36 129.258L204.077 129.817C203.502 130.701 202.638 131.144 201.487 131.144ZM201.341 124.986C200.867 124.986 200.47 125.16 200.148 125.507C199.826 125.85 199.628 126.332 199.551 126.954H202.992V126.865C202.958 126.269 202.797 125.807 202.509 125.482C202.222 125.151 201.832 124.986 201.341 124.986ZM211.333 127.659C211.333 128.704 211.094 129.546 210.615 130.185C210.137 130.824 209.49 131.144 208.673 131.144C207.839 131.144 207.183 130.879 206.705 130.35V133.657H205.531V124.149H206.604L206.661 124.91C207.139 124.318 207.803 124.022 208.654 124.022C209.479 124.022 210.131 124.333 210.609 124.955C211.091 125.577 211.333 126.442 211.333 127.551V127.659ZM210.158 127.525C210.158 126.751 209.993 126.14 209.663 125.691C209.333 125.242 208.88 125.018 208.305 125.018C207.594 125.018 207.061 125.333 206.705 125.964V129.246C207.056 129.872 207.594 130.185 208.318 130.185C208.88 130.185 209.327 129.963 209.657 129.519C209.991 129.07 210.158 128.406 210.158 127.525ZM212.786 127.265C212.786 126.309 212.913 125.391 213.167 124.51C213.425 123.63 213.808 122.83 214.316 122.111C214.824 121.392 215.351 120.884 215.897 120.587L216.138 121.362C215.52 121.836 215.012 122.559 214.614 123.533C214.221 124.506 214.005 125.596 213.967 126.802L213.961 127.341C213.961 128.975 214.259 130.392 214.856 131.594C215.215 132.314 215.643 132.877 216.138 133.283L215.897 134C215.334 133.687 214.796 133.162 214.284 132.426C213.286 130.987 212.786 129.267 212.786 127.265ZM219.984 127.329C219.984 128.272 219.86 129.178 219.61 130.045C219.365 130.909 218.986 131.706 218.474 132.439C217.966 133.171 217.433 133.691 216.874 134L216.627 133.283C217.278 132.783 217.801 132.009 218.194 130.96C218.592 129.906 218.795 128.738 218.804 127.456V127.253C218.804 126.364 218.711 125.539 218.525 124.777C218.338 124.011 218.078 123.325 217.744 122.72C217.414 122.115 217.041 121.643 216.627 121.305L216.874 120.587C217.433 120.896 217.964 121.413 218.467 122.136C218.975 122.86 219.354 123.658 219.604 124.529C219.858 125.401 219.984 126.334 219.984 127.329ZM221.755 130.401C221.755 130.198 221.815 130.029 221.933 129.893C222.056 129.758 222.238 129.69 222.479 129.69C222.72 129.69 222.902 129.758 223.025 129.893C223.152 130.029 223.215 130.198 223.215 130.401C223.215 130.596 223.152 130.759 223.025 130.89C222.902 131.021 222.72 131.086 222.479 131.086C222.238 131.086 222.056 131.021 221.933 130.89C221.815 130.759 221.755 130.596 221.755 130.401ZM221.762 124.796C221.762 124.593 221.821 124.424 221.94 124.288C222.062 124.153 222.244 124.085 222.485 124.085C222.727 124.085 222.909 124.153 223.031 124.288C223.158 124.424 223.222 124.593 223.222 124.796C223.222 124.991 223.158 125.154 223.031 125.285C222.909 125.416 222.727 125.482 222.485 125.482C222.244 125.482 222.062 125.416 221.94 125.285C221.821 125.154 221.762 124.991 221.762 124.796ZM230.433 129.423L232.134 124.149H233.334L230.871 131.017H229.976L227.487 124.149H228.687L230.433 129.423ZM234.051 127.519C234.051 126.846 234.182 126.241 234.444 125.704C234.711 125.166 235.079 124.752 235.549 124.46C236.023 124.168 236.562 124.022 237.168 124.022C238.103 124.022 238.858 124.345 239.434 124.993C240.013 125.64 240.303 126.501 240.303 127.576V127.659C240.303 128.327 240.174 128.928 239.916 129.461C239.662 129.99 239.296 130.403 238.818 130.699C238.344 130.996 237.798 131.144 237.18 131.144C236.249 131.144 235.494 130.82 234.914 130.172C234.339 129.525 234.051 128.668 234.051 127.602V127.519ZM235.232 127.659C235.232 128.42 235.407 129.032 235.758 129.493C236.114 129.954 236.588 130.185 237.18 130.185C237.777 130.185 238.251 129.952 238.602 129.487C238.953 129.017 239.129 128.361 239.129 127.519C239.129 126.766 238.949 126.156 238.589 125.691C238.234 125.221 237.76 124.986 237.168 124.986C236.588 124.986 236.12 125.217 235.765 125.678C235.409 126.14 235.232 126.8 235.232 127.659ZM243.052 131.017H241.878V124.149H243.052V131.017ZM241.782 122.327C241.782 122.136 241.839 121.975 241.954 121.844C242.072 121.713 242.246 121.648 242.474 121.648C242.703 121.648 242.876 121.713 242.995 121.844C243.113 121.975 243.172 122.136 243.172 122.327C243.172 122.517 243.113 122.676 242.995 122.803C242.876 122.93 242.703 122.993 242.474 122.993C242.246 122.993 242.072 122.93 241.954 122.803C241.839 122.676 241.782 122.517 241.782 122.327ZM244.651 127.525C244.651 126.472 244.901 125.625 245.401 124.986C245.9 124.343 246.554 124.022 247.362 124.022C248.166 124.022 248.803 124.297 249.273 124.847V121.267H250.447V131.017H249.368L249.311 130.28C248.841 130.856 248.187 131.144 247.349 131.144C246.554 131.144 245.904 130.818 245.401 130.166C244.901 129.514 244.651 128.664 244.651 127.614V127.525ZM245.826 127.659C245.826 128.437 245.987 129.047 246.308 129.487C246.63 129.927 247.074 130.147 247.641 130.147C248.386 130.147 248.93 129.813 249.273 129.144V125.989C248.921 125.342 248.382 125.018 247.654 125.018C247.078 125.018 246.63 125.24 246.308 125.685C245.987 126.129 245.826 126.787 245.826 127.659Z" fill="black"/>
<path opacity="0.2" d="M248.205 238.033H21.8626V380.853H248.205V238.033Z" fill="#C0C0C0"/>
<path d="M239.203 229.027H12.8604V371.847H239.203V229.027Z" fill="white"/>
<path d="M12.8604 229.027H239.203V371.847H12.8604V229.027Z" stroke="black" stroke-miterlimit="10"/>
<path d="M12.8604 261.193H239.203" stroke="black" stroke-miterlimit="10"/>
<path d="M12.8604 290.787H239.203" stroke="black" stroke-miterlimit="10"/>
<path d="M102.833 246.965C102.833 246.605 102.706 246.33 102.452 246.14C102.198 245.945 101.741 245.742 101.081 245.531C100.421 245.315 99.898 245.103 99.5129 244.896C98.4634 244.329 97.9387 243.565 97.9387 242.604C97.9387 242.105 98.0783 241.661 98.3576 241.271C98.6411 240.878 99.0453 240.571 99.57 240.351C100.099 240.131 100.691 240.021 101.347 240.021C102.008 240.021 102.596 240.141 103.112 240.383C103.628 240.62 104.028 240.956 104.312 241.392C104.599 241.828 104.743 242.323 104.743 242.877H102.839C102.839 242.454 102.706 242.126 102.439 241.893C102.173 241.656 101.798 241.538 101.316 241.538C100.85 241.538 100.488 241.637 100.23 241.836C99.972 242.031 99.843 242.289 99.843 242.611C99.843 242.911 99.9932 243.163 100.294 243.366C100.598 243.569 101.045 243.76 101.633 243.937C102.716 244.263 103.506 244.667 104.001 245.15C104.496 245.632 104.743 246.233 104.743 246.952C104.743 247.752 104.441 248.381 103.836 248.838C103.23 249.291 102.416 249.517 101.392 249.517C100.681 249.517 100.033 249.388 99.4494 249.13C98.8654 248.867 98.419 248.51 98.11 248.057C97.8054 247.604 97.653 247.079 97.653 246.483H99.5637C99.5637 247.503 100.173 248.013 101.392 248.013C101.845 248.013 102.198 247.922 102.452 247.74C102.706 247.553 102.833 247.295 102.833 246.965ZM108.114 240.833V242.522H109.288V243.868H108.114V247.295C108.114 247.549 108.163 247.731 108.26 247.841C108.357 247.951 108.543 248.006 108.819 248.006C109.022 248.006 109.202 247.991 109.358 247.962V249.352C108.998 249.462 108.628 249.517 108.247 249.517C106.961 249.517 106.305 248.867 106.279 247.568V243.868H105.277V242.522H106.279V240.833H108.114ZM114.424 248.692C113.971 249.242 113.344 249.517 112.545 249.517C111.808 249.517 111.245 249.305 110.856 248.882C110.471 248.459 110.274 247.839 110.266 247.022V242.522H112.1V246.959C112.1 247.674 112.426 248.032 113.078 248.032C113.7 248.032 114.127 247.816 114.36 247.384V242.522H116.201V249.39H114.474L114.424 248.692ZM117.299 245.905C117.299 244.834 117.538 243.982 118.016 243.347C118.499 242.712 119.157 242.395 119.99 242.395C120.659 242.395 121.211 242.645 121.647 243.144V239.64H123.488V249.39H121.831L121.742 248.66C121.285 249.231 120.697 249.517 119.978 249.517C119.169 249.517 118.52 249.2 118.029 248.565C117.542 247.926 117.299 247.039 117.299 245.905ZM119.133 246.038C119.133 246.682 119.246 247.175 119.47 247.517C119.694 247.86 120.02 248.032 120.447 248.032C121.015 248.032 121.414 247.792 121.647 247.314V244.604C121.419 244.126 121.023 243.887 120.46 243.887C119.576 243.887 119.133 244.604 119.133 246.038ZM128.071 249.517C127.064 249.517 126.243 249.208 125.608 248.59C124.978 247.972 124.662 247.149 124.662 246.121V245.943C124.662 245.253 124.796 244.638 125.062 244.096C125.329 243.55 125.705 243.131 126.192 242.839C126.683 242.543 127.242 242.395 127.868 242.395C128.807 242.395 129.546 242.691 130.083 243.284C130.625 243.876 130.896 244.716 130.896 245.804V246.553H126.522C126.581 247.001 126.759 247.361 127.055 247.632C127.356 247.903 127.735 248.038 128.192 248.038C128.898 248.038 129.451 247.782 129.848 247.27L130.75 248.279C130.475 248.668 130.102 248.973 129.633 249.193C129.163 249.409 128.642 249.517 128.071 249.517ZM127.862 243.88C127.498 243.88 127.201 244.003 126.973 244.248C126.749 244.494 126.605 244.845 126.541 245.302H129.093V245.156C129.084 244.75 128.974 244.437 128.763 244.217C128.551 243.992 128.251 243.88 127.862 243.88ZM133.632 242.522L133.689 243.315C134.18 242.702 134.838 242.395 135.663 242.395C136.391 242.395 136.932 242.609 137.288 243.036C137.643 243.463 137.825 244.102 137.834 244.953V249.39H135.999V244.997C135.999 244.608 135.915 244.327 135.745 244.153C135.576 243.975 135.295 243.887 134.901 243.887C134.385 243.887 133.998 244.107 133.739 244.547V249.39H131.905V242.522H133.632ZM141.426 240.833V242.522H142.601V243.868H141.426V247.295C141.426 247.549 141.475 247.731 141.572 247.841C141.67 247.951 141.856 248.006 142.131 248.006C142.334 248.006 142.514 247.991 142.671 247.962V249.352C142.311 249.462 141.941 249.517 141.56 249.517C140.273 249.517 139.617 248.867 139.592 247.568V243.868H138.589V242.522H139.592V240.833H141.426Z" fill="black"/>
<path d="M22.623 275.537H19.5254V274.578H22.623V275.537ZM26.5269 278.152C26.9458 278.152 27.3118 278.025 27.625 277.771C27.9382 277.517 28.1117 277.2 28.1455 276.819H29.2563C29.2352 277.212 29.0998 277.587 28.8501 277.942C28.6004 278.298 28.2661 278.581 27.8472 278.793C27.4325 279.004 26.9924 279.11 26.5269 279.11C25.5916 279.11 24.8468 278.799 24.2925 278.177C23.7424 277.551 23.4673 276.696 23.4673 275.613V275.416C23.4673 274.747 23.59 274.153 23.8354 273.632C24.0809 273.112 24.4321 272.708 24.8892 272.42C25.3504 272.132 25.8942 271.988 26.5205 271.988C27.2907 271.988 27.9297 272.219 28.4375 272.68C28.9495 273.141 29.2225 273.74 29.2563 274.477H28.1455C28.1117 274.032 27.9424 273.668 27.6377 273.385C27.3372 273.097 26.9648 272.953 26.5205 272.953C25.9238 272.953 25.4604 273.169 25.1304 273.601C24.8045 274.028 24.6416 274.648 24.6416 275.46V275.683C24.6416 276.474 24.8045 277.083 25.1304 277.511C25.4562 277.938 25.9217 278.152 26.5269 278.152ZM34.8169 278.304C34.3599 278.842 33.6891 279.11 32.8047 279.11C32.0726 279.11 31.514 278.899 31.1289 278.476C30.748 278.048 30.5555 277.418 30.5513 276.584V272.115H31.7256V276.552C31.7256 277.593 32.1488 278.114 32.9951 278.114C33.8923 278.114 34.4889 277.779 34.7852 277.111V272.115H35.9595V278.983H34.8423L34.8169 278.304ZM41.0693 273.169C40.8916 273.139 40.6991 273.124 40.4917 273.124C39.7215 273.124 39.1989 273.452 38.9238 274.108V278.983H37.7495V272.115H38.8921L38.9111 272.909C39.2962 272.295 39.8421 271.988 40.5488 271.988C40.7773 271.988 40.9508 272.018 41.0693 272.077V273.169ZM45.4746 273.169C45.2969 273.139 45.1043 273.124 44.897 273.124C44.1268 273.124 43.6042 273.452 43.3291 274.108V278.983H42.1548V272.115H43.2974L43.3164 272.909C43.7015 272.295 44.2474 271.988 44.9541 271.988C45.1826 271.988 45.3561 272.018 45.4746 272.077V273.169ZM49.2832 279.11C48.3522 279.11 47.5947 278.806 47.0107 278.196C46.4268 277.583 46.1348 276.764 46.1348 275.74V275.524C46.1348 274.843 46.2638 274.235 46.522 273.702C46.7843 273.165 47.1483 272.746 47.6138 272.445C48.0835 272.141 48.5913 271.988 49.1372 271.988C50.0301 271.988 50.7241 272.282 51.2192 272.871C51.7144 273.459 51.9619 274.301 51.9619 275.397V275.886H47.3091C47.326 276.563 47.5228 277.111 47.8994 277.53C48.2803 277.944 48.7627 278.152 49.3467 278.152C49.7614 278.152 50.1126 278.067 50.4004 277.898C50.6882 277.729 50.9399 277.504 51.1558 277.225L51.873 277.784C51.2975 278.668 50.4342 279.11 49.2832 279.11ZM49.1372 272.953C48.6632 272.953 48.2655 273.127 47.9438 273.474C47.6222 273.816 47.4233 274.299 47.3472 274.921H50.7876V274.832C50.7537 274.235 50.5929 273.774 50.3052 273.448C50.0174 273.118 49.6281 272.953 49.1372 272.953ZM54.4375 272.115L54.4756 272.978C55.0003 272.318 55.6859 271.988 56.5322 271.988C57.9837 271.988 58.7158 272.807 58.7285 274.445V278.983H57.5542V274.438C57.55 273.943 57.4357 273.577 57.2114 273.34C56.9914 273.103 56.6465 272.985 56.1768 272.985C55.7959 272.985 55.4616 273.086 55.1738 273.289C54.8861 273.493 54.6618 273.759 54.501 274.089V278.983H53.3267V272.115H54.4375ZM62.0928 270.452V272.115H63.375V273.023H62.0928V277.282C62.0928 277.557 62.1499 277.765 62.2642 277.904C62.3784 278.04 62.5731 278.107 62.8481 278.107C62.9836 278.107 63.1698 278.082 63.4067 278.031V278.983C63.0978 279.068 62.7974 279.11 62.5054 279.11C61.9806 279.11 61.585 278.952 61.3184 278.634C61.0518 278.317 60.9185 277.866 60.9185 277.282V273.023H59.668V272.115H60.9185V270.452H62.0928ZM67.6597 274.864C66.6144 274.563 65.8527 274.195 65.3745 273.759C64.9006 273.319 64.6636 272.777 64.6636 272.134C64.6636 271.406 64.9535 270.805 65.5332 270.331C66.1172 269.853 66.8747 269.614 67.8057 269.614C68.4404 269.614 69.0054 269.737 69.5005 269.982C69.9998 270.228 70.3849 270.566 70.6558 270.998C70.9308 271.43 71.0684 271.901 71.0684 272.414H69.8433C69.8433 271.855 69.6655 271.417 69.3101 271.1C68.9546 270.778 68.4531 270.617 67.8057 270.617C67.2048 270.617 66.735 270.75 66.3965 271.017C66.0622 271.279 65.895 271.645 65.895 272.115C65.895 272.492 66.0537 272.811 66.3711 273.074C66.6927 273.332 67.2365 273.569 68.0024 273.785C68.7726 274 69.3735 274.24 69.8052 274.502C70.241 274.76 70.5627 275.063 70.77 275.41C70.9816 275.757 71.0874 276.165 71.0874 276.635C71.0874 277.384 70.7954 277.985 70.2114 278.437C69.6274 278.886 68.8467 279.11 67.8691 279.11C67.2344 279.11 66.6419 278.99 66.0918 278.748C65.5417 278.503 65.1164 278.169 64.8159 277.746C64.5197 277.322 64.3716 276.842 64.3716 276.305H65.5967C65.5967 276.863 65.8019 277.305 66.2124 277.631C66.6271 277.953 67.1794 278.114 67.8691 278.114C68.5124 278.114 69.0054 277.983 69.3481 277.72C69.6909 277.458 69.8623 277.1 69.8623 276.647C69.8623 276.195 69.7036 275.845 69.3862 275.6C69.0688 275.35 68.4933 275.105 67.6597 274.864ZM75.3213 279.11C74.3903 279.11 73.6328 278.806 73.0488 278.196C72.4648 277.583 72.1729 276.764 72.1729 275.74V275.524C72.1729 274.843 72.3019 274.235 72.5601 273.702C72.8224 273.165 73.1864 272.746 73.6519 272.445C74.1216 272.141 74.6294 271.988 75.1753 271.988C76.0682 271.988 76.7622 272.282 77.2573 272.871C77.7524 273.459 78 274.301 78 275.397V275.886H73.3472C73.3641 276.563 73.5609 277.111 73.9375 277.53C74.3184 277.944 74.8008 278.152 75.3848 278.152C75.7995 278.152 76.1507 278.067 76.4385 277.898C76.7262 277.729 76.978 277.504 77.1938 277.225L77.9111 277.784C77.3356 278.668 76.4723 279.11 75.3213 279.11ZM75.1753 272.953C74.7013 272.953 74.3035 273.127 73.9819 273.474C73.6603 273.816 73.4614 274.299 73.3853 274.921H76.8257V274.832C76.7918 274.235 76.631 273.774 76.3433 273.448C76.0555 273.118 75.6662 272.953 75.1753 272.953ZM80.4692 272.115L80.501 272.877C81.0046 272.284 81.6838 271.988 82.5386 271.988C83.4992 271.988 84.153 272.356 84.5 273.093C84.7285 272.763 85.0247 272.496 85.3887 272.293C85.7568 272.09 86.1906 271.988 86.6899 271.988C88.1965 271.988 88.9624 272.786 88.9878 274.381V278.983H87.8135V274.451C87.8135 273.96 87.7013 273.594 87.4771 273.353C87.2528 273.108 86.8761 272.985 86.3472 272.985C85.9113 272.985 85.5495 273.116 85.2617 273.378C84.974 273.636 84.8068 273.986 84.7603 274.426V278.983H83.5796V274.483C83.5796 273.484 83.0908 272.985 82.1133 272.985C81.3431 272.985 80.8162 273.313 80.5327 273.969V278.983H79.3584V272.115H80.4692ZM93.6152 279.11C92.6842 279.11 91.9268 278.806 91.3428 278.196C90.7588 277.583 90.4668 276.764 90.4668 275.74V275.524C90.4668 274.843 90.5959 274.235 90.854 273.702C91.1164 273.165 91.4803 272.746 91.9458 272.445C92.4155 272.141 92.9233 271.988 93.4692 271.988C94.3621 271.988 95.0562 272.282 95.5513 272.871C96.0464 273.459 96.2939 274.301 96.2939 275.397V275.886H91.6411C91.658 276.563 91.8548 277.111 92.2314 277.53C92.6123 277.944 93.0947 278.152 93.6787 278.152C94.0934 278.152 94.4447 278.067 94.7324 277.898C95.0202 277.729 95.272 277.504 95.4878 277.225L96.2051 277.784C95.6296 278.668 94.7663 279.11 93.6152 279.11ZM93.4692 272.953C92.9953 272.953 92.5975 273.127 92.2759 273.474C91.9543 273.816 91.7554 274.299 91.6792 274.921H95.1196V274.832C95.0858 274.235 94.925 273.774 94.6372 273.448C94.3494 273.118 93.9601 272.953 93.4692 272.953ZM101.658 277.162C101.658 276.844 101.537 276.599 101.296 276.425C101.059 276.247 100.642 276.095 100.045 275.968C99.453 275.841 98.9811 275.689 98.6299 275.511C98.2829 275.333 98.0247 275.122 97.8555 274.876C97.6904 274.631 97.6079 274.339 97.6079 274C97.6079 273.438 97.8449 272.962 98.3188 272.572C98.797 272.183 99.4064 271.988 100.147 271.988C100.926 271.988 101.556 272.189 102.039 272.591C102.525 272.993 102.769 273.507 102.769 274.134H101.588C101.588 273.812 101.45 273.535 101.175 273.302C100.904 273.069 100.562 272.953 100.147 272.953C99.7196 272.953 99.3853 273.046 99.144 273.232C98.9028 273.419 98.7822 273.662 98.7822 273.962C98.7822 274.246 98.8944 274.46 99.1187 274.603C99.3429 274.747 99.7471 274.885 100.331 275.016C100.919 275.147 101.395 275.304 101.759 275.486C102.123 275.668 102.392 275.888 102.565 276.146C102.743 276.4 102.832 276.711 102.832 277.079C102.832 277.693 102.587 278.186 102.096 278.558C101.605 278.926 100.968 279.11 100.185 279.11C99.6349 279.11 99.1483 279.013 98.7251 278.818C98.3019 278.624 97.9697 278.353 97.7285 278.006C97.4915 277.655 97.373 277.276 97.373 276.87H98.5474C98.5685 277.263 98.7251 277.576 99.0171 277.809C99.3133 278.038 99.7026 278.152 100.185 278.152C100.629 278.152 100.985 278.063 101.251 277.885C101.522 277.703 101.658 277.462 101.658 277.162ZM105.955 270.452V272.115H107.237V273.023H105.955V277.282C105.955 277.557 106.012 277.765 106.126 277.904C106.241 278.04 106.435 278.107 106.71 278.107C106.846 278.107 107.032 278.082 107.269 278.031V278.983C106.96 279.068 106.66 279.11 106.368 279.11C105.843 279.11 105.447 278.952 105.181 278.634C104.914 278.317 104.781 277.866 104.781 277.282V273.023H103.53V272.115H104.781V270.452H105.955ZM111.465 279.11C110.534 279.11 109.776 278.806 109.192 278.196C108.608 277.583 108.316 276.764 108.316 275.74V275.524C108.316 274.843 108.445 274.235 108.704 273.702C108.966 273.165 109.33 272.746 109.795 272.445C110.265 272.141 110.773 271.988 111.319 271.988C112.212 271.988 112.906 272.282 113.401 272.871C113.896 273.459 114.144 274.301 114.144 275.397V275.886H109.491C109.508 276.563 109.704 277.111 110.081 277.53C110.462 277.944 110.944 278.152 111.528 278.152C111.943 278.152 112.294 278.067 112.582 277.898C112.87 277.729 113.122 277.504 113.337 277.225L114.055 277.784C113.479 278.668 112.616 279.11 111.465 279.11ZM111.319 272.953C110.845 272.953 110.447 273.127 110.125 273.474C109.804 273.816 109.605 274.299 109.529 274.921H112.969V274.832C112.935 274.235 112.775 273.774 112.487 273.448C112.199 273.118 111.81 272.953 111.319 272.953ZM118.828 273.169C118.65 273.139 118.458 273.124 118.25 273.124C117.48 273.124 116.958 273.452 116.683 274.108V278.983H115.508V272.115H116.651L116.67 272.909C117.055 272.295 117.601 271.988 118.308 271.988C118.536 271.988 118.71 272.018 118.828 272.077V273.169ZM119.875 278.368C119.875 278.164 119.935 277.995 120.053 277.86C120.176 277.724 120.358 277.657 120.599 277.657C120.84 277.657 121.022 277.724 121.145 277.86C121.272 277.995 121.335 278.164 121.335 278.368C121.335 278.562 121.272 278.725 121.145 278.856C121.022 278.988 120.84 279.053 120.599 279.053C120.358 279.053 120.176 278.988 120.053 278.856C119.935 278.725 119.875 278.562 119.875 278.368ZM119.882 272.763C119.882 272.56 119.941 272.39 120.06 272.255C120.182 272.119 120.364 272.052 120.605 272.052C120.847 272.052 121.029 272.119 121.151 272.255C121.278 272.39 121.342 272.56 121.342 272.763C121.342 272.957 121.278 273.12 121.151 273.251C121.029 273.383 120.847 273.448 120.605 273.448C120.364 273.448 120.182 273.383 120.06 273.251C119.941 273.12 119.882 272.957 119.882 272.763ZM127.562 278.983H126.388V272.115H127.562V278.983ZM126.293 270.293C126.293 270.103 126.35 269.942 126.464 269.811C126.583 269.68 126.756 269.614 126.985 269.614C127.213 269.614 127.387 269.68 127.505 269.811C127.624 269.942 127.683 270.103 127.683 270.293C127.683 270.484 127.624 270.643 127.505 270.769C127.387 270.896 127.213 270.96 126.985 270.96C126.756 270.96 126.583 270.896 126.464 270.769C126.35 270.643 126.293 270.484 126.293 270.293ZM130.559 272.115L130.597 272.978C131.121 272.318 131.807 271.988 132.653 271.988C134.105 271.988 134.837 272.807 134.85 274.445V278.983H133.675V274.438C133.671 273.943 133.557 273.577 133.333 273.34C133.112 273.103 132.768 272.985 132.298 272.985C131.917 272.985 131.583 273.086 131.295 273.289C131.007 273.493 130.783 273.759 130.622 274.089V278.983H129.448V272.115H130.559ZM138.214 270.452V272.115H139.496V273.023H138.214V277.282C138.214 277.557 138.271 277.765 138.385 277.904C138.5 278.04 138.694 278.107 138.969 278.107C139.105 278.107 139.291 278.082 139.528 278.031V278.983C139.219 279.068 138.918 279.11 138.626 279.11C138.102 279.11 137.706 278.952 137.439 278.634C137.173 278.317 137.04 277.866 137.04 277.282V273.023H135.789V272.115H137.04V270.452H138.214Z" fill="black"/>
<path d="M23.5435 303.619H26.1206V304.73H23.5435V307.65H22.3628V304.73H19.7856V303.619H22.3628V300.921H23.5435V303.619ZM31.5542 306.755C31.5542 306.438 31.4336 306.192 31.1924 306.019C30.9554 305.841 30.5386 305.688 29.9419 305.562C29.3494 305.435 28.8776 305.282 28.5264 305.104C28.1794 304.927 27.9212 304.715 27.752 304.47C27.5869 304.224 27.5044 303.932 27.5044 303.594C27.5044 303.031 27.7414 302.555 28.2153 302.166C28.6935 301.776 29.3029 301.582 30.0435 301.582C30.8221 301.582 31.4526 301.783 31.9351 302.185C32.4217 302.587 32.665 303.101 32.665 303.727H31.4844C31.4844 303.405 31.3468 303.128 31.0718 302.896C30.8009 302.663 30.4582 302.546 30.0435 302.546C29.616 302.546 29.2817 302.639 29.0405 302.826C28.7993 303.012 28.6787 303.255 28.6787 303.556C28.6787 303.839 28.7909 304.053 29.0151 304.197C29.2394 304.341 29.6436 304.478 30.2275 304.609C30.8158 304.741 31.2918 304.897 31.6558 305.079C32.0197 305.261 32.2884 305.481 32.4619 305.739C32.6396 305.993 32.7285 306.304 32.7285 306.672C32.7285 307.286 32.4831 307.779 31.9922 308.151C31.5013 308.52 30.8644 308.704 30.0815 308.704C29.5314 308.704 29.0448 308.606 28.6216 308.412C28.1984 308.217 27.8662 307.946 27.625 307.599C27.388 307.248 27.2695 306.869 27.2695 306.463H28.4438C28.465 306.856 28.6216 307.17 28.9136 307.402C29.2098 307.631 29.5991 307.745 30.0815 307.745C30.5259 307.745 30.8813 307.656 31.1479 307.479C31.4188 307.297 31.5542 307.055 31.5542 306.755ZM35.8516 300.045V301.708H37.1338V302.616H35.8516V306.875C35.8516 307.151 35.9087 307.358 36.0229 307.498C36.1372 307.633 36.3319 307.701 36.6069 307.701C36.7424 307.701 36.9285 307.675 37.1655 307.625V308.577C36.8566 308.661 36.5562 308.704 36.2642 308.704C35.7394 308.704 35.3438 308.545 35.0771 308.228C34.8105 307.91 34.6772 307.459 34.6772 306.875V302.616H33.4268V301.708H34.6772V300.045H35.8516ZM42.7515 307.897C42.2944 308.435 41.6237 308.704 40.7393 308.704C40.0072 308.704 39.4486 308.492 39.0635 308.069C38.6826 307.641 38.4901 307.011 38.4858 306.177V301.708H39.6602V306.146C39.6602 307.187 40.0833 307.707 40.9297 307.707C41.8268 307.707 42.4235 307.373 42.7197 306.704V301.708H43.894V308.577H42.7769L42.7515 307.897ZM45.3984 305.085C45.3984 304.032 45.6481 303.185 46.1475 302.546C46.6468 301.903 47.3006 301.582 48.1089 301.582C48.9129 301.582 49.5498 301.857 50.0195 302.407V298.827H51.1938V308.577H50.1147L50.0576 307.84C49.5879 308.416 48.9341 308.704 48.0962 308.704C47.3006 308.704 46.651 308.378 46.1475 307.726C45.6481 307.074 45.3984 306.224 45.3984 305.174V305.085ZM46.5728 305.219C46.5728 305.997 46.7336 306.607 47.0552 307.047C47.3768 307.487 47.8211 307.707 48.3882 307.707C49.133 307.707 49.6768 307.373 50.0195 306.704V303.549C49.6683 302.902 49.1287 302.578 48.4009 302.578C47.8254 302.578 47.3768 302.8 47.0552 303.245C46.7336 303.689 46.5728 304.347 46.5728 305.219ZM55.269 306.856L56.8687 301.708H58.1255L55.3643 309.637C54.9368 310.779 54.2576 311.351 53.3267 311.351L53.1045 311.332L52.6665 311.249V310.297L52.9839 310.322C53.3817 310.322 53.6906 310.242 53.9106 310.081C54.1349 309.92 54.319 309.626 54.4629 309.199L54.7231 308.5L52.2729 301.708H53.5552L55.269 306.856ZM59.1348 304.825C59.1348 303.869 59.2617 302.951 59.5156 302.07C59.7738 301.19 60.1567 300.39 60.6646 299.671C61.1724 298.951 61.6992 298.444 62.2451 298.147L62.4863 298.922C61.8685 299.396 61.3607 300.119 60.9629 301.093C60.5693 302.066 60.3535 303.156 60.3154 304.362L60.3091 304.901C60.3091 306.535 60.6074 307.952 61.2041 309.154C61.5638 309.874 61.9912 310.437 62.4863 310.843L62.2451 311.56C61.6823 311.247 61.1449 310.722 60.6328 309.986C59.6341 308.547 59.1348 306.827 59.1348 304.825ZM66.333 304.889C66.333 305.832 66.2082 306.738 65.9585 307.605C65.7131 308.469 65.3343 309.266 64.8223 309.999C64.3145 310.731 63.7812 311.251 63.2227 311.56L62.9751 310.843C63.6268 310.343 64.1494 309.569 64.543 308.52C64.9408 307.466 65.1439 306.298 65.1523 305.016V304.812C65.1523 303.924 65.0592 303.099 64.873 302.337C64.6868 301.571 64.4266 300.885 64.0923 300.28C63.7622 299.675 63.3898 299.203 62.9751 298.865L63.2227 298.147C63.7812 298.456 64.3123 298.973 64.8159 299.696C65.3237 300.42 65.7025 301.218 65.9521 302.089C66.2061 302.961 66.333 303.894 66.333 304.889ZM68.104 307.961C68.104 307.758 68.1632 307.589 68.2817 307.453C68.4045 307.318 68.5864 307.25 68.8276 307.25C69.0688 307.25 69.2508 307.318 69.3735 307.453C69.5005 307.589 69.564 307.758 69.564 307.961C69.564 308.156 69.5005 308.319 69.3735 308.45C69.2508 308.581 69.0688 308.646 68.8276 308.646C68.5864 308.646 68.4045 308.581 68.2817 308.45C68.1632 308.319 68.104 308.156 68.104 307.961ZM68.1104 302.356C68.1104 302.153 68.1696 301.984 68.2881 301.848C68.4108 301.713 68.5928 301.645 68.834 301.645C69.0752 301.645 69.2572 301.713 69.3799 301.848C69.5068 301.984 69.5703 302.153 69.5703 302.356C69.5703 302.551 69.5068 302.714 69.3799 302.845C69.2572 302.976 69.0752 303.042 68.834 303.042C68.5928 303.042 68.4108 302.976 68.2881 302.845C68.1696 302.714 68.1104 302.551 68.1104 302.356ZM76.7812 306.983L78.4824 301.708H79.6821L77.2192 308.577H76.3242L73.8359 301.708H75.0356L76.7812 306.983ZM80.3994 305.079C80.3994 304.406 80.5306 303.801 80.793 303.264C81.0596 302.726 81.4277 302.312 81.8975 302.02C82.3714 301.728 82.911 301.582 83.5161 301.582C84.4513 301.582 85.2067 301.905 85.7822 302.553C86.362 303.2 86.6519 304.061 86.6519 305.136V305.219C86.6519 305.887 86.5228 306.488 86.2646 307.021C86.0107 307.55 85.6447 307.963 85.1665 308.259C84.6925 308.556 84.1466 308.704 83.5288 308.704C82.5978 308.704 81.8424 308.38 81.2627 307.732C80.6872 307.085 80.3994 306.228 80.3994 305.162V305.079ZM81.5801 305.219C81.5801 305.98 81.7557 306.592 82.1069 307.053C82.4624 307.514 82.9364 307.745 83.5288 307.745C84.1255 307.745 84.5994 307.512 84.9507 307.047C85.3019 306.577 85.4775 305.921 85.4775 305.079C85.4775 304.326 85.2977 303.716 84.938 303.251C84.5825 302.781 84.1086 302.546 83.5161 302.546C82.9364 302.546 82.4688 302.777 82.1133 303.238C81.7578 303.7 81.5801 304.36 81.5801 305.219ZM89.4004 308.577H88.2261V301.708H89.4004V308.577ZM88.1309 299.887C88.1309 299.696 88.188 299.535 88.3022 299.404C88.4207 299.273 88.5942 299.208 88.8228 299.208C89.0513 299.208 89.2248 299.273 89.3433 299.404C89.4618 299.535 89.521 299.696 89.521 299.887C89.521 300.077 89.4618 300.236 89.3433 300.363C89.2248 300.49 89.0513 300.553 88.8228 300.553C88.5942 300.553 88.4207 300.49 88.3022 300.363C88.188 300.236 88.1309 300.077 88.1309 299.887ZM91 305.085C91 304.032 91.2497 303.185 91.749 302.546C92.2484 301.903 92.9022 301.582 93.7104 301.582C94.5145 301.582 95.1514 301.857 95.6211 302.407V298.827H96.7954V308.577H95.7163L95.6592 307.84C95.1895 308.416 94.5356 308.704 93.6978 308.704C92.9022 308.704 92.2526 308.378 91.749 307.726C91.2497 307.074 91 306.224 91 305.174V305.085ZM92.1743 305.219C92.1743 305.997 92.3351 306.607 92.6567 307.047C92.9784 307.487 93.4227 307.707 93.9897 307.707C94.7345 307.707 95.2783 307.373 95.6211 306.704V303.549C95.2699 302.902 94.7303 302.578 94.0024 302.578C93.4269 302.578 92.9784 302.8 92.6567 303.245C92.3351 303.689 92.1743 304.347 92.1743 305.219Z" fill="black"/>
<path d="M178.759 227.74L222.484 168.553" stroke="black" stroke-miterlimit="10"/>
<path d="M215.654 196.023L222.484 168.553L198.24 183.145" fill="white"/>
<path d="M215.654 196.023L222.484 168.553L198.24 183.145L215.654 196.023Z" stroke="black" stroke-miterlimit="10"/>
<path opacity="0.2" d="M567.142 238.033H330.511V382.14H567.142V238.033Z" fill="#C0C0C0"/>
<path d="M558.14 229.027H321.509V373.133H558.14V229.027Z" fill="white"/>
<path d="M321.509 229.027H558.14V373.133H321.509V229.027Z" stroke="black" stroke-miterlimit="10"/>
<path d="M321.509 261.193H558.14" stroke="black" stroke-miterlimit="10"/>
<path d="M321.509 290.787H558.14" stroke="black" stroke-miterlimit="10"/>
<path d="M414.164 249.39V240.148H417.007C417.82 240.148 418.546 240.332 419.185 240.7C419.828 241.064 420.329 241.584 420.689 242.262C421.049 242.934 421.229 243.7 421.229 244.559V244.985C421.229 245.844 421.051 246.608 420.695 247.276C420.344 247.945 419.847 248.463 419.204 248.831C418.56 249.2 417.835 249.386 417.026 249.39H414.164ZM416.068 241.69V247.86H416.988C417.733 247.86 418.302 247.617 418.696 247.13C419.089 246.644 419.29 245.947 419.299 245.042V244.553C419.299 243.614 419.104 242.903 418.715 242.42C418.326 241.934 417.756 241.69 417.007 241.69H416.068ZM422.212 245.892C422.212 245.211 422.344 244.604 422.606 244.071C422.868 243.537 423.245 243.125 423.736 242.833C424.231 242.541 424.804 242.395 425.456 242.395C426.383 242.395 427.138 242.678 427.722 243.245C428.31 243.813 428.638 244.583 428.706 245.556L428.719 246.026C428.719 247.079 428.425 247.926 427.836 248.565C427.248 249.2 426.459 249.517 425.469 249.517C424.479 249.517 423.687 249.2 423.095 248.565C422.507 247.93 422.212 247.067 422.212 245.975V245.892ZM424.047 246.026C424.047 246.677 424.17 247.177 424.415 247.524C424.661 247.867 425.012 248.038 425.469 248.038C425.913 248.038 426.26 247.869 426.51 247.53C426.76 247.187 426.884 246.641 426.884 245.892C426.884 245.253 426.76 244.758 426.51 244.407C426.26 244.056 425.909 243.88 425.456 243.88C425.008 243.88 424.661 244.056 424.415 244.407C424.17 244.754 424.047 245.294 424.047 246.026ZM431.855 247.911H435.212V249.39H429.512V248.273L432.743 244.007H429.607V242.522H435.111V243.607L431.855 247.911ZM439.421 249.517C438.414 249.517 437.593 249.208 436.958 248.59C436.328 247.972 436.012 247.149 436.012 246.121V245.943C436.012 245.253 436.146 244.638 436.412 244.096C436.679 243.55 437.055 243.131 437.542 242.839C438.033 242.543 438.592 242.395 439.218 242.395C440.157 242.395 440.896 242.691 441.433 243.284C441.975 243.876 442.246 244.716 442.246 245.804V246.553H437.872C437.931 247.001 438.109 247.361 438.405 247.632C438.706 247.903 439.085 248.038 439.542 248.038C440.248 248.038 440.801 247.782 441.198 247.27L442.1 248.279C441.825 248.668 441.452 248.973 440.982 249.193C440.513 249.409 439.992 249.517 439.421 249.517ZM439.211 243.88C438.848 243.88 438.551 244.003 438.323 244.248C438.099 244.494 437.955 244.845 437.891 245.302H440.443V245.156C440.434 244.75 440.324 244.437 440.113 244.217C439.901 243.992 439.601 243.88 439.211 243.88ZM444.982 242.522L445.039 243.315C445.53 242.702 446.188 242.395 447.013 242.395C447.741 242.395 448.282 242.609 448.638 243.036C448.993 243.463 449.175 244.102 449.184 244.953V249.39H447.349V244.997C447.349 244.608 447.265 244.327 447.095 244.153C446.926 243.975 446.645 243.887 446.251 243.887C445.735 243.887 445.348 244.107 445.089 244.547V249.39H443.255V242.522H444.982ZM452.776 240.833V242.522H453.951V243.868H452.776V247.295C452.776 247.549 452.825 247.731 452.922 247.841C453.02 247.951 453.206 248.006 453.481 248.006C453.684 248.006 453.864 247.991 454.021 247.962V249.352C453.661 249.462 453.291 249.517 452.91 249.517C451.623 249.517 450.967 248.867 450.942 247.568V243.868H449.939V242.522H450.942V240.833H452.776Z" fill="black"/>
<path d="M331.272 275.537H328.174V274.578H331.272V275.537ZM336.42 277.162C336.42 276.844 336.299 276.599 336.058 276.425C335.821 276.247 335.404 276.095 334.807 275.968C334.215 275.841 333.743 275.689 333.392 275.511C333.045 275.333 332.787 275.122 332.617 274.876C332.452 274.631 332.37 274.339 332.37 274C332.37 273.438 332.607 272.962 333.081 272.572C333.559 272.183 334.168 271.988 334.909 271.988C335.688 271.988 336.318 272.189 336.801 272.591C337.287 272.993 337.53 273.507 337.53 274.134H336.35C336.35 273.812 336.212 273.535 335.937 273.302C335.666 273.069 335.324 272.953 334.909 272.953C334.481 272.953 334.147 273.046 333.906 273.232C333.665 273.419 333.544 273.662 333.544 273.962C333.544 274.246 333.656 274.46 333.881 274.603C334.105 274.747 334.509 274.885 335.093 275.016C335.681 275.147 336.157 275.304 336.521 275.486C336.885 275.668 337.154 275.888 337.327 276.146C337.505 276.4 337.594 276.711 337.594 277.079C337.594 277.693 337.349 278.186 336.858 278.558C336.367 278.926 335.73 279.11 334.947 279.11C334.397 279.11 333.91 279.013 333.487 278.818C333.064 278.624 332.732 278.353 332.49 278.006C332.253 277.655 332.135 277.276 332.135 276.87H333.309C333.33 277.263 333.487 277.576 333.779 277.809C334.075 278.038 334.465 278.152 334.947 278.152C335.391 278.152 335.747 278.063 336.013 277.885C336.284 277.703 336.42 277.462 336.42 277.162ZM343.364 278.304C342.907 278.842 342.236 279.11 341.352 279.11C340.62 279.11 340.061 278.899 339.676 278.476C339.295 278.048 339.103 277.418 339.098 276.584V272.115H340.273V276.552C340.273 277.593 340.696 278.114 341.542 278.114C342.439 278.114 343.036 277.779 343.332 277.111V272.115H344.507V278.983H343.389L343.364 278.304ZM352.111 275.625C352.111 276.675 351.87 277.519 351.387 278.158C350.905 278.793 350.258 279.11 349.445 279.11C348.578 279.11 347.907 278.803 347.433 278.19L347.376 278.983H346.297V269.233H347.471V272.871C347.945 272.282 348.599 271.988 349.432 271.988C350.266 271.988 350.92 272.303 351.394 272.934C351.872 273.565 352.111 274.428 352.111 275.524V275.625ZM350.937 275.492C350.937 274.692 350.782 274.074 350.473 273.639C350.164 273.203 349.72 272.985 349.14 272.985C348.366 272.985 347.809 273.345 347.471 274.064V277.035C347.831 277.754 348.391 278.114 349.153 278.114C349.716 278.114 350.154 277.896 350.467 277.46C350.78 277.024 350.937 276.368 350.937 275.492ZM354.809 272.115V279.777C354.809 281.097 354.21 281.757 353.012 281.757C352.754 281.757 352.515 281.719 352.295 281.643V280.704C352.431 280.737 352.608 280.754 352.828 280.754C353.091 280.754 353.29 280.682 353.425 280.539C353.565 280.399 353.634 280.153 353.634 279.802V272.115H354.809ZM353.514 270.293C353.514 270.107 353.571 269.949 353.685 269.817C353.804 269.682 353.975 269.614 354.199 269.614C354.428 269.614 354.601 269.68 354.72 269.811C354.838 269.942 354.898 270.103 354.898 270.293C354.898 270.484 354.838 270.643 354.72 270.769C354.601 270.896 354.428 270.96 354.199 270.96C353.971 270.96 353.8 270.896 353.685 270.769C353.571 270.643 353.514 270.484 353.514 270.293ZM359.557 279.11C358.626 279.11 357.868 278.806 357.284 278.196C356.7 277.583 356.408 276.764 356.408 275.74V275.524C356.408 274.843 356.537 274.235 356.796 273.702C357.058 273.165 357.422 272.746 357.887 272.445C358.357 272.141 358.865 271.988 359.411 271.988C360.304 271.988 360.998 272.282 361.493 272.871C361.988 273.459 362.236 274.301 362.236 275.397V275.886H357.583C357.6 276.563 357.796 277.111 358.173 277.53C358.554 277.944 359.036 278.152 359.62 278.152C360.035 278.152 360.386 278.067 360.674 277.898C360.962 277.729 361.214 277.504 361.429 277.225L362.147 277.784C361.571 278.668 360.708 279.11 359.557 279.11ZM359.411 272.953C358.937 272.953 358.539 273.127 358.217 273.474C357.896 273.816 357.697 274.299 357.621 274.921H361.061V274.832C361.027 274.235 360.867 273.774 360.579 273.448C360.291 273.118 359.902 272.953 359.411 272.953ZM366.355 278.152C366.774 278.152 367.14 278.025 367.453 277.771C367.766 277.517 367.94 277.2 367.974 276.819H369.085C369.064 277.212 368.928 277.587 368.678 277.942C368.429 278.298 368.094 278.581 367.676 278.793C367.261 279.004 366.821 279.11 366.355 279.11C365.42 279.11 364.675 278.799 364.121 278.177C363.571 277.551 363.296 276.696 363.296 275.613V275.416C363.296 274.747 363.418 274.153 363.664 273.632C363.909 273.112 364.26 272.708 364.717 272.42C365.179 272.132 365.723 271.988 366.349 271.988C367.119 271.988 367.758 272.219 368.266 272.68C368.778 273.141 369.051 273.74 369.085 274.477H367.974C367.94 274.032 367.771 273.668 367.466 273.385C367.166 273.097 366.793 272.953 366.349 272.953C365.752 272.953 365.289 273.169 364.959 273.601C364.633 274.028 364.47 274.648 364.47 275.46V275.683C364.47 276.474 364.633 277.083 364.959 277.511C365.285 277.938 365.75 278.152 366.355 278.152ZM371.998 270.452V272.115H373.28V273.023H371.998V277.282C371.998 277.557 372.055 277.765 372.17 277.904C372.284 278.04 372.479 278.107 372.754 278.107C372.889 278.107 373.075 278.082 373.312 278.031V278.983C373.003 279.068 372.703 279.11 372.411 279.11C371.886 279.11 371.49 278.952 371.224 278.634C370.957 278.317 370.824 277.866 370.824 277.282V273.023H369.573V272.115H370.824V270.452H371.998ZM374.62 278.368C374.62 278.164 374.679 277.995 374.798 277.86C374.92 277.724 375.102 277.657 375.343 277.657C375.585 277.657 375.767 277.724 375.889 277.86C376.016 277.995 376.08 278.164 376.08 278.368C376.08 278.562 376.016 278.725 375.889 278.856C375.767 278.988 375.585 279.053 375.343 279.053C375.102 279.053 374.92 278.988 374.798 278.856C374.679 278.725 374.62 278.562 374.62 278.368ZM374.626 272.763C374.626 272.56 374.685 272.39 374.804 272.255C374.927 272.119 375.109 272.052 375.35 272.052C375.591 272.052 375.773 272.119 375.896 272.255C376.023 272.39 376.086 272.56 376.086 272.763C376.086 272.957 376.023 273.12 375.896 273.251C375.773 273.383 375.591 273.448 375.35 273.448C375.109 273.448 374.927 273.383 374.804 273.251C374.685 273.12 374.626 272.957 374.626 272.763ZM385.03 277.162C385.03 276.844 384.909 276.599 384.668 276.425C384.431 276.247 384.014 276.095 383.418 275.968C382.825 275.841 382.353 275.689 382.002 275.511C381.655 275.333 381.397 275.122 381.228 274.876C381.063 274.631 380.98 274.339 380.98 274C380.98 273.438 381.217 272.962 381.691 272.572C382.169 272.183 382.779 271.988 383.519 271.988C384.298 271.988 384.928 272.189 385.411 272.591C385.898 272.993 386.141 273.507 386.141 274.134H384.96C384.96 273.812 384.823 273.535 384.548 273.302C384.277 273.069 383.934 272.953 383.519 272.953C383.092 272.953 382.758 273.046 382.516 273.232C382.275 273.419 382.155 273.662 382.155 273.962C382.155 274.246 382.267 274.46 382.491 274.603C382.715 274.747 383.119 274.885 383.703 275.016C384.292 275.147 384.768 275.304 385.132 275.486C385.495 275.668 385.764 275.888 385.938 276.146C386.115 276.4 386.204 276.711 386.204 277.079C386.204 277.693 385.959 278.186 385.468 278.558C384.977 278.926 384.34 279.11 383.557 279.11C383.007 279.11 382.521 279.013 382.097 278.818C381.674 278.624 381.342 278.353 381.101 278.006C380.864 277.655 380.745 277.276 380.745 276.87H381.92C381.941 277.263 382.097 277.576 382.389 277.809C382.686 278.038 383.075 278.152 383.557 278.152C384.002 278.152 384.357 278.063 384.624 277.885C384.895 277.703 385.03 277.462 385.03 277.162ZM389.327 270.452V272.115H390.61V273.023H389.327V277.282C389.327 277.557 389.384 277.765 389.499 277.904C389.613 278.04 389.808 278.107 390.083 278.107C390.218 278.107 390.404 278.082 390.641 278.031V278.983C390.332 279.068 390.032 279.11 389.74 279.11C389.215 279.11 388.82 278.952 388.553 278.634C388.286 278.317 388.153 277.866 388.153 277.282V273.023H386.903V272.115H388.153V270.452H389.327ZM395.307 273.169C395.129 273.139 394.937 273.124 394.729 273.124C393.959 273.124 393.436 273.452 393.161 274.108V278.983H391.987V272.115H393.13L393.149 272.909C393.534 272.295 394.08 271.988 394.786 271.988C395.015 271.988 395.188 272.018 395.307 272.077V273.169ZM397.668 278.983H396.494V272.115H397.668V278.983ZM396.399 270.293C396.399 270.103 396.456 269.942 396.57 269.811C396.689 269.68 396.862 269.614 397.091 269.614C397.319 269.614 397.493 269.68 397.611 269.811C397.73 269.942 397.789 270.103 397.789 270.293C397.789 270.484 397.73 270.643 397.611 270.769C397.493 270.896 397.319 270.96 397.091 270.96C396.862 270.96 396.689 270.896 396.57 270.769C396.456 270.643 396.399 270.484 396.399 270.293ZM400.664 272.115L400.702 272.978C401.227 272.318 401.913 271.988 402.759 271.988C404.211 271.988 404.943 272.807 404.955 274.445V278.983H403.781V274.438C403.777 273.943 403.662 273.577 403.438 273.34C403.218 273.103 402.873 272.985 402.404 272.985C402.023 272.985 401.688 273.086 401.401 273.289C401.113 273.493 400.889 273.759 400.728 274.089V278.983H399.553V272.115H400.664ZM406.447 275.492C406.447 274.421 406.695 273.571 407.19 272.94C407.685 272.306 408.341 271.988 409.157 271.988C409.995 271.988 410.649 272.284 411.119 272.877L411.176 272.115H412.249V278.818C412.249 279.707 411.984 280.407 411.455 280.919C410.931 281.431 410.224 281.687 409.335 281.687C408.84 281.687 408.356 281.582 407.882 281.37C407.408 281.158 407.046 280.869 406.796 280.5L407.405 279.796C407.909 280.418 408.525 280.729 409.253 280.729C409.824 280.729 410.268 280.568 410.586 280.247C410.907 279.925 411.068 279.472 411.068 278.888V278.298C410.598 278.839 409.957 279.11 409.145 279.11C408.341 279.11 407.689 278.787 407.19 278.139C406.695 277.492 406.447 276.609 406.447 275.492ZM407.628 275.625C407.628 276.4 407.786 277.009 408.104 277.454C408.421 277.894 408.865 278.114 409.437 278.114C410.177 278.114 410.721 277.777 411.068 277.104V273.969C410.708 273.313 410.169 272.985 409.449 272.985C408.878 272.985 408.432 273.207 408.11 273.651C407.788 274.096 407.628 274.754 407.628 275.625Z" fill="black"/>
<path d="M332.192 303.619H334.769V304.73H332.192V307.65H331.011V304.73H328.434V303.619H331.011V300.921H332.192V303.619ZM337.797 300.045V301.708H339.079V302.616H337.797V306.875C337.797 307.151 337.854 307.358 337.968 307.498C338.083 307.633 338.277 307.701 338.552 307.701C338.688 307.701 338.874 307.675 339.111 307.625V308.577C338.802 308.661 338.502 308.704 338.21 308.704C337.685 308.704 337.289 308.545 337.023 308.228C336.756 307.91 336.623 307.459 336.623 306.875V302.616H335.372V301.708H336.623V300.045H337.797ZM343.307 308.704C342.376 308.704 341.618 308.399 341.034 307.79C340.45 307.176 340.158 306.357 340.158 305.333V305.117C340.158 304.436 340.287 303.829 340.546 303.295C340.808 302.758 341.172 302.339 341.637 302.039C342.107 301.734 342.615 301.582 343.161 301.582C344.054 301.582 344.748 301.876 345.243 302.464C345.738 303.052 345.986 303.894 345.986 304.99V305.479H341.333C341.35 306.156 341.546 306.704 341.923 307.123C342.304 307.538 342.786 307.745 343.37 307.745C343.785 307.745 344.136 307.66 344.424 307.491C344.712 307.322 344.964 307.098 345.179 306.818L345.897 307.377C345.321 308.261 344.458 308.704 343.307 308.704ZM343.161 302.546C342.687 302.546 342.289 302.72 341.967 303.067C341.646 303.41 341.447 303.892 341.371 304.514H344.811V304.425C344.777 303.829 344.617 303.367 344.329 303.042C344.041 302.711 343.652 302.546 343.161 302.546ZM351.591 308.577C351.523 308.441 351.468 308.2 351.426 307.853C350.88 308.42 350.228 308.704 349.47 308.704C348.793 308.704 348.237 308.513 347.801 308.132C347.369 307.747 347.154 307.261 347.154 306.672C347.154 305.957 347.424 305.403 347.966 305.009C348.512 304.611 349.278 304.413 350.264 304.413H351.406V303.873C351.406 303.463 351.284 303.137 351.038 302.896C350.793 302.65 350.431 302.527 349.953 302.527C349.534 302.527 349.183 302.633 348.899 302.845C348.616 303.056 348.474 303.312 348.474 303.613H347.293C347.293 303.27 347.414 302.94 347.655 302.623C347.9 302.301 348.231 302.047 348.645 301.861C349.064 301.675 349.523 301.582 350.023 301.582C350.814 301.582 351.434 301.78 351.883 302.178C352.331 302.572 352.564 303.116 352.581 303.81V306.971C352.581 307.601 352.661 308.103 352.822 308.475V308.577H351.591ZM349.642 307.682C350.01 307.682 350.359 307.586 350.689 307.396C351.019 307.206 351.258 306.958 351.406 306.653V305.244H350.486C349.047 305.244 348.328 305.665 348.328 306.507C348.328 306.875 348.451 307.163 348.696 307.371C348.941 307.578 349.257 307.682 349.642 307.682ZM357.176 307.745C357.595 307.745 357.961 307.618 358.275 307.364C358.588 307.11 358.761 306.793 358.795 306.412H359.906C359.885 306.806 359.749 307.18 359.5 307.536C359.25 307.891 358.916 308.175 358.497 308.386C358.082 308.598 357.642 308.704 357.176 308.704C356.241 308.704 355.496 308.393 354.942 307.771C354.392 307.144 354.117 306.289 354.117 305.206V305.009C354.117 304.341 354.24 303.746 354.485 303.226C354.731 302.705 355.082 302.301 355.539 302.013C356 301.725 356.544 301.582 357.17 301.582C357.94 301.582 358.579 301.812 359.087 302.273C359.599 302.735 359.872 303.333 359.906 304.07H358.795C358.761 303.625 358.592 303.262 358.287 302.978C357.987 302.69 357.614 302.546 357.17 302.546C356.573 302.546 356.11 302.762 355.78 303.194C355.454 303.621 355.291 304.241 355.291 305.054V305.276C355.291 306.067 355.454 306.677 355.78 307.104C356.106 307.531 356.571 307.745 357.176 307.745ZM362.401 302.54C362.921 301.901 363.598 301.582 364.432 301.582C365.883 301.582 366.615 302.4 366.628 304.038V308.577H365.454V304.032C365.45 303.537 365.335 303.171 365.111 302.934C364.891 302.697 364.546 302.578 364.076 302.578C363.696 302.578 363.361 302.68 363.073 302.883C362.786 303.086 362.561 303.353 362.401 303.683V308.577H361.226V298.827H362.401V302.54ZM368.342 304.825C368.342 303.869 368.469 302.951 368.723 302.07C368.981 301.19 369.364 300.39 369.872 299.671C370.38 298.951 370.906 298.444 371.452 298.147L371.694 298.922C371.076 299.396 370.568 300.119 370.17 301.093C369.777 302.066 369.561 303.156 369.523 304.362L369.516 304.901C369.516 306.535 369.815 307.952 370.411 309.154C370.771 309.874 371.198 310.437 371.694 310.843L371.452 311.56C370.89 311.247 370.352 310.722 369.84 309.986C368.841 308.547 368.342 306.827 368.342 304.825ZM375.54 304.889C375.54 305.832 375.415 306.738 375.166 307.605C374.92 308.469 374.542 309.266 374.03 309.999C373.522 310.731 372.988 311.251 372.43 311.56L372.182 310.843C372.834 310.343 373.357 309.569 373.75 308.52C374.148 307.466 374.351 306.298 374.36 305.016V304.812C374.36 303.924 374.266 303.099 374.08 302.337C373.894 301.571 373.634 300.885 373.3 300.28C372.969 299.675 372.597 299.203 372.182 298.865L372.43 298.147C372.988 298.456 373.52 298.973 374.023 299.696C374.531 300.42 374.91 301.218 375.159 302.089C375.413 302.961 375.54 303.894 375.54 304.889ZM377.311 307.961C377.311 307.758 377.37 307.589 377.489 307.453C377.612 307.318 377.794 307.25 378.035 307.25C378.276 307.25 378.458 307.318 378.581 307.453C378.708 307.589 378.771 307.758 378.771 307.961C378.771 308.156 378.708 308.319 378.581 308.45C378.458 308.581 378.276 308.646 378.035 308.646C377.794 308.646 377.612 308.581 377.489 308.45C377.37 308.319 377.311 308.156 377.311 307.961ZM377.318 302.356C377.318 302.153 377.377 301.984 377.495 301.848C377.618 301.713 377.8 301.645 378.041 301.645C378.282 301.645 378.464 301.713 378.587 301.848C378.714 301.984 378.778 302.153 378.778 302.356C378.778 302.551 378.714 302.714 378.587 302.845C378.464 302.976 378.282 303.042 378.041 303.042C377.8 303.042 377.618 302.976 377.495 302.845C377.377 302.714 377.318 302.551 377.318 302.356ZM385.988 306.983L387.69 301.708H388.889L386.426 308.577H385.531L383.043 301.708H384.243L385.988 306.983ZM389.607 305.079C389.607 304.406 389.738 303.801 390 303.264C390.267 302.726 390.635 302.312 391.105 302.02C391.579 301.728 392.118 301.582 392.723 301.582C393.659 301.582 394.414 301.905 394.989 302.553C395.569 303.2 395.859 304.061 395.859 305.136V305.219C395.859 305.887 395.73 306.488 395.472 307.021C395.218 307.55 394.852 307.963 394.374 308.259C393.9 308.556 393.354 308.704 392.736 308.704C391.805 308.704 391.05 308.38 390.47 307.732C389.894 307.085 389.607 306.228 389.607 305.162V305.079ZM390.787 305.219C390.787 305.98 390.963 306.592 391.314 307.053C391.67 307.514 392.144 307.745 392.736 307.745C393.333 307.745 393.807 307.512 394.158 307.047C394.509 306.577 394.685 305.921 394.685 305.079C394.685 304.326 394.505 303.716 394.145 303.251C393.79 302.781 393.316 302.546 392.723 302.546C392.144 302.546 391.676 302.777 391.321 303.238C390.965 303.7 390.787 304.36 390.787 305.219ZM398.608 308.577H397.433V301.708H398.608V308.577ZM397.338 299.887C397.338 299.696 397.395 299.535 397.509 299.404C397.628 299.273 397.801 299.208 398.03 299.208C398.259 299.208 398.432 299.273 398.551 299.404C398.669 299.535 398.728 299.696 398.728 299.887C398.728 300.077 398.669 300.236 398.551 300.363C398.432 300.49 398.259 300.553 398.03 300.553C397.801 300.553 397.628 300.49 397.509 300.363C397.395 300.236 397.338 300.077 397.338 299.887ZM400.207 305.085C400.207 304.032 400.457 303.185 400.956 302.546C401.456 301.903 402.109 301.582 402.918 301.582C403.722 301.582 404.359 301.857 404.828 302.407V298.827H406.003V308.577H404.924L404.866 307.84C404.397 308.416 403.743 308.704 402.905 308.704C402.109 308.704 401.46 308.378 400.956 307.726C400.457 307.074 400.207 306.224 400.207 305.174V305.085ZM401.382 305.219C401.382 305.997 401.542 306.607 401.864 307.047C402.186 307.487 402.63 307.707 403.197 307.707C403.942 307.707 404.486 307.373 404.828 306.704V303.549C404.477 302.902 403.938 302.578 403.21 302.578C402.634 302.578 402.186 302.8 401.864 303.245C401.542 303.689 401.382 304.347 401.382 305.219Z" fill="black"/>
<path d="M384.525 227.74L339.514 168.553" stroke="black" stroke-miterlimit="10"/>
<path d="M363.958 182.806L339.514 168.553L346.725 195.925" fill="white"/>
<path d="M363.958 182.806L339.514 168.553L346.725 195.925L363.958 182.806Z" stroke="black" stroke-miterlimit="10"/>
</svg>
